<svg preserveAspectRatio="none" width="100%" height="100%" overflow="visible" style="display: block;" viewBox="0 0 124.993 34.5178" fill="none" xmlns="http://www.w3.org/2000/svg">
<g id="Group 7">
<path id="Vector" d="M51.1836 11.6115C51.2378 11.6343 51.2919 11.657 51.3478 11.6805C52.4218 12.1624 53.1995 13.079 53.6873 14.1284C53.7762 14.329 53.7762 14.329 53.8995 14.5046C53.9403 14.4092 53.9403 14.4092 53.982 14.312C54.309 13.5717 54.6797 12.9535 55.3165 12.4381C55.3579 12.3918 55.3993 12.3455 55.4419 12.2979C56.214 11.5929 57.4137 11.2362 58.4457 11.1982C58.5479 11.1926 58.5479 11.1926 58.6521 11.1869C60.069 11.1434 61.3891 11.6232 62.4336 12.5898C63.3949 13.5347 63.7909 14.8025 63.9956 16.0987C64.0059 16.1529 64.0163 16.2071 64.0269 16.2629C64.0577 16.4738 64.0619 16.6747 64.0617 16.8878C64.0618 16.9515 64.0618 16.9515 64.0619 17.0166C64.062 17.1582 64.0617 17.2999 64.0613 17.4416C64.0613 17.5435 64.0613 17.6453 64.0614 17.7472C64.0614 18.0232 64.061 18.2992 64.0606 18.5752C64.0602 18.8639 64.0602 19.1525 64.0601 19.4411C64.06 19.9875 64.0595 20.5339 64.0589 21.0803C64.0582 21.7024 64.0579 22.3245 64.0576 22.9466C64.057 24.2261 64.0559 25.5057 64.0546 26.7852C63.1389 26.7852 62.2232 26.7852 61.2797 26.7852C61.2785 26.4908 61.2773 26.1965 61.2761 25.8932C61.2722 24.9192 61.2676 23.9453 61.2627 22.9713C61.2597 22.3809 61.257 21.7906 61.2548 21.2002C61.2528 20.6854 61.2505 20.1705 61.2476 19.6557C61.2461 19.3833 61.2449 19.111 61.244 18.8387C61.2433 18.5817 61.242 18.3248 61.2403 18.0679C61.2397 17.9741 61.2394 17.8804 61.2393 17.7867C61.2374 16.55 61.0917 15.4366 60.2612 14.4677C59.5419 13.8464 58.9203 13.5752 57.9623 13.6005C57.8639 13.6013 57.8639 13.6013 57.7636 13.6022C57.3967 13.6072 57.0382 13.6307 56.6744 13.678C56.6744 13.7169 56.6744 13.7559 56.6744 13.7961C56.6429 13.804 56.6114 13.812 56.5789 13.8203C55.8746 14.0238 55.3168 14.4978 54.9544 15.1307C54.4211 16.1171 54.3049 17.0977 54.3006 18.207C54.3001 18.3002 54.2995 18.3933 54.2989 18.4864C54.2973 18.7379 54.296 18.9894 54.2949 19.2409C54.2936 19.5043 54.2919 19.7676 54.2904 20.031C54.2874 20.529 54.2848 21.0271 54.2822 21.5251C54.2793 22.0924 54.2761 22.6597 54.2728 23.227C54.2661 24.3934 54.2598 25.5598 54.2537 26.7262C53.3575 26.7262 52.4612 26.7262 51.5378 26.7262C51.5366 26.4414 51.5355 26.1566 51.5343 25.8631C51.5303 24.92 51.5257 23.9769 51.5208 23.0338C51.5179 22.4623 51.5151 21.8907 51.5129 21.3192C51.5109 20.8206 51.5086 20.3221 51.5058 19.8235C51.5043 19.5599 51.503 19.2963 51.5022 19.0327C51.5014 18.7838 51.5001 18.5349 51.4984 18.286C51.4979 18.1954 51.4975 18.1047 51.4974 18.0141C51.4954 16.7799 51.4081 15.443 50.5304 14.4905C50.0928 14.0755 49.5907 13.7942 48.999 13.678C48.9113 13.6487 48.9113 13.6487 48.8219 13.6189C48.1217 13.571 47.3595 13.5375 46.6964 13.7961C46.6542 13.8125 46.6119 13.8289 46.5684 13.8459C45.6836 14.2429 45.1606 14.9917 44.8071 15.8625C44.5349 16.6324 44.5029 17.3992 44.4997 18.207C44.4992 18.3002 44.4986 18.3933 44.498 18.4864C44.4964 18.7379 44.4951 18.9894 44.494 19.2409C44.4927 19.5043 44.491 19.7676 44.4895 20.031C44.4865 20.529 44.4839 21.0271 44.4813 21.5251C44.4784 22.0924 44.4752 22.6597 44.4719 23.227C44.4652 24.3934 44.4589 25.5598 44.4528 26.7262C43.5566 26.7262 42.6603 26.7262 41.7369 26.7262C41.7369 21.7188 41.7369 16.7115 41.7369 11.5525C42.6332 11.5525 43.5294 11.5525 44.4528 11.5525C44.4723 12.3903 44.4918 13.2281 44.5119 14.0913C44.6677 13.799 44.8236 13.5067 44.9842 13.2056C45.2238 12.8935 45.4607 12.586 45.7517 12.32C45.7907 12.32 45.8297 12.32 45.8698 12.32C45.8698 12.281 45.8698 12.2421 45.8698 12.2019C46.3738 11.8121 46.9101 11.5513 47.523 11.3753C47.5857 11.3566 47.6484 11.3378 47.713 11.3184C48.8282 11.0303 50.1406 11.1188 51.1836 11.6115Z" fill="var(--fill-0, black)"/>
<path id="Vector_2" d="M89.9736 11.7884C89.9736 12.6067 89.9736 13.4251 89.9736 14.2682C89.6797 14.2262 89.4637 14.1841 89.1913 14.0911C88.8918 13.9955 88.6249 13.9517 88.3126 13.9345C88.1205 13.9112 87.9576 13.854 87.7743 13.7922C87.2941 13.656 86.8161 13.6529 86.3204 13.6519C86.2804 13.6516 86.2404 13.6512 86.1992 13.6509C85.7321 13.6481 85.3272 13.6689 84.896 13.8549C84.8453 13.8728 84.7946 13.8908 84.7424 13.9093C84.301 14.09 84.0063 14.3467 83.8074 14.7848C83.65 15.2321 83.6536 15.7022 83.8236 16.1462C84.0682 16.6066 84.4606 16.8961 84.896 17.1612C84.9581 17.2051 85.0202 17.2489 85.0842 17.2941C85.2543 17.3999 85.4125 17.4606 85.6045 17.5155C85.6045 17.5544 85.6045 17.5934 85.6045 17.6335C85.6388 17.64 85.673 17.6465 85.7083 17.6531C85.994 17.7111 86.2335 17.784 86.4901 17.9288C86.4901 17.9677 86.4901 18.0067 86.4901 18.0468C86.5778 18.0706 86.5778 18.0706 86.6673 18.0948C87.1463 18.234 87.5443 18.4278 87.9662 18.6963C88.0299 18.7353 88.0299 18.7353 88.0949 18.7752C89.1625 19.4517 90.0394 20.3492 90.3279 21.6115C90.5266 22.8402 90.4043 24.0854 89.6791 25.1226C89.5657 25.2688 89.448 25.4077 89.3241 25.5451C89.2915 25.5826 89.2588 25.62 89.2252 25.6586C88.5301 26.4084 87.5252 26.7608 86.5492 26.9621C86.5015 26.9727 86.4538 26.9832 86.4046 26.9941C85.9596 27.0855 85.5266 27.1007 85.0732 27.0986C84.9977 27.0984 84.9223 27.0981 84.8446 27.0978C83.5313 27.0816 82.3504 26.753 81.1174 26.3127C81.1174 25.4554 81.1174 24.5981 81.1174 23.7148C81.3095 23.7629 81.4717 23.8246 81.652 23.903C83.0527 24.4881 84.8083 24.8768 86.2973 24.4344C86.7987 24.2269 87.2567 23.8869 87.4791 23.3827C87.628 22.9515 87.6095 22.425 87.4348 22.0026C87.0936 21.3572 86.5452 20.9353 85.8665 20.6853C85.819 20.6719 85.7715 20.6585 85.7226 20.6447C85.7226 20.6057 85.7226 20.5667 85.7226 20.5266C85.6737 20.5109 85.6249 20.4952 85.5745 20.4791C85.3475 20.4014 85.1258 20.3141 84.9034 20.224C84.8628 20.2076 84.8221 20.1913 84.7802 20.1744C84.681 20.1344 84.5819 20.0944 84.4827 20.0542C84.4827 20.0153 84.4827 19.9763 84.4827 19.9362C84.4152 19.9161 84.4152 19.9161 84.3462 19.8956C83.0749 19.4431 81.8667 18.6185 81.2354 17.3974C80.75 16.2281 80.7498 14.9356 81.2078 13.7534C81.6312 12.8074 82.3886 12.1156 83.3282 11.698C85.4658 10.8995 87.8331 11.0749 89.9736 11.7884Z" fill="var(--fill-0, black)"/>
<path id="Vector_3" d="M97.2952 7.71447C97.2952 8.98091 97.2952 10.2474 97.2952 11.5522C98.6395 11.5522 99.9839 11.5522 101.369 11.5522C101.369 12.351 101.369 13.1498 101.369 13.9729C100.044 13.9729 98.7192 13.9729 97.3542 13.9729C97.3613 15.6027 97.3613 15.6027 97.3694 17.2325C97.373 17.897 97.3764 18.5615 97.3791 19.2259C97.3811 19.7099 97.3834 20.1938 97.3862 20.6777C97.3877 20.9339 97.389 21.1902 97.3898 21.4464C97.3906 21.6876 97.3919 21.9288 97.3936 22.17C97.3941 22.2585 97.3945 22.347 97.3946 22.4355C97.3948 22.5564 97.3958 22.6773 97.3968 22.7982C97.3971 22.8658 97.3975 22.9335 97.3978 23.0032C97.4333 23.4175 97.6765 23.7827 97.9483 24.0874C98.7397 24.5421 99.8517 24.4285 100.719 24.2719C100.897 24.2461 100.897 24.2461 101.31 24.2461C101.31 25.0644 101.31 25.8827 101.31 26.7259C100.549 26.8611 99.822 26.9202 99.0516 26.9177C98.9884 26.9176 98.9884 26.9176 98.924 26.9176C97.7375 26.9139 97.7375 26.9139 97.2361 26.7259C97.1982 26.7144 97.1603 26.703 97.1213 26.6913C96.3307 26.4504 95.5927 26.0459 95.1697 25.3089C95.1697 25.2504 95.1697 25.192 95.1697 25.1317C95.1307 25.1317 95.0917 25.1317 95.0516 25.1317C95.0116 25.0398 94.9724 24.9474 94.9335 24.855C94.9116 24.8036 94.8897 24.7522 94.8671 24.6993C94.8143 24.5379 94.8057 24.4146 94.8154 24.2461C94.7764 24.2461 94.7375 24.2461 94.6973 24.2461C94.5613 23.7336 94.5633 23.2258 94.5658 22.6998C94.5659 22.6043 94.5659 22.5088 94.5658 22.4134C94.5658 22.1558 94.5664 21.8982 94.5673 21.6406C94.568 21.3708 94.5681 21.101 94.5682 20.8312C94.5686 20.321 94.5696 19.8108 94.5707 19.3006C94.5721 18.7195 94.5727 18.1383 94.5733 17.5572C94.5745 16.3624 94.5767 15.1677 94.5792 13.9729C93.7999 13.9729 93.0205 13.9729 92.2176 13.9729C92.2176 13.174 92.2176 12.3752 92.2176 11.5522C92.9969 11.5522 93.7763 11.5522 94.5792 11.5522C94.5792 10.5195 94.5792 9.4869 94.5792 8.42297C95.0663 8.28658 95.5534 8.1502 96.0553 8.00968C96.4364 7.88895 96.4364 7.88895 96.8164 7.76452C97 7.71447 97 7.71447 97.2952 7.71447Z" fill="var(--fill-0, black)"/>
<path id="Vector_4" d="M112.055 11.3754C112.055 12.2716 112.055 13.1679 112.055 14.0913C111.159 14.1134 111.159 14.1134 110.877 14.1195C110.804 14.1216 110.73 14.1237 110.654 14.1259C110.579 14.1277 110.504 14.1296 110.427 14.1315C110.234 14.1495 110.105 14.1896 109.93 14.2684C109.851 14.29 109.771 14.3099 109.691 14.3279C109.108 14.4681 108.678 14.6351 108.218 15.0359C108.183 15.0621 108.148 15.0883 108.112 15.1153C107.86 15.3065 107.685 15.5441 107.509 15.8035C107.479 15.8472 107.449 15.891 107.419 15.9361C106.763 16.9566 106.607 18.1793 106.605 19.3666C106.604 19.4476 106.604 19.5285 106.603 19.6095C106.601 19.8265 106.6 20.0434 106.6 20.2604C106.599 20.4882 106.597 20.716 106.596 20.9438C106.593 21.3739 106.591 21.804 106.589 22.2341C106.586 22.7243 106.584 23.2145 106.581 23.7047C106.574 24.7118 106.569 25.719 106.564 26.7262C105.668 26.7262 104.772 26.7262 103.849 26.7262C103.849 21.7189 103.849 16.7115 103.849 11.5525C104.745 11.5525 105.641 11.5525 106.564 11.5525C106.584 12.6631 106.603 13.7736 106.624 14.9179C106.701 14.7035 106.779 14.4892 106.86 14.2684C107.479 13.1216 108.451 12.162 109.694 11.7296C109.739 11.7133 109.784 11.697 109.83 11.6803C110.574 11.42 111.255 11.3754 112.055 11.3754Z" fill="var(--fill-0, black)"/>
<path id="Subtract" d="M72.5745 11.182C73.5574 11.1855 74.4994 11.3684 75.3909 11.7846C75.4319 11.8037 75.4727 11.8235 75.5149 11.8432C75.7905 11.9772 76.0359 12.1295 76.2766 12.3197V12.4379C76.3166 12.4488 76.3565 12.4599 76.3977 12.4711C77.1805 12.8541 77.669 13.9262 77.9407 14.7045C78.2223 15.5915 78.2924 16.424 78.2903 17.349C78.2903 17.4515 78.2903 17.5542 78.2903 17.6566C78.2903 17.9333 78.2897 18.21 78.2893 18.4867C78.289 18.7765 78.2894 19.067 78.2893 19.3568C78.2891 19.905 78.2889 20.4532 78.2884 21.0014C78.2877 21.6257 78.2867 22.2501 78.2864 22.8744C78.2858 24.1583 78.2847 25.4421 78.2835 26.726H75.6272C75.6077 26.0247 75.5877 25.3235 75.5677 24.601C75.3633 24.9222 75.3632 24.9225 75.1546 25.2504C74.9893 25.4428 74.9894 25.4431 74.8411 25.5863C74.7916 25.6351 74.7417 25.6835 74.6907 25.7338C74.5645 25.8401 74.5637 25.8402 74.4456 25.8402C74.4261 25.8987 74.4071 25.9577 74.387 26.018C74.2593 26.1109 74.1348 26.1919 73.9993 26.2719C73.9599 26.2952 73.9208 26.3191 73.8802 26.3432C73.4578 26.5853 73.0211 26.7598 72.5569 26.9037C72.4925 26.9238 72.4279 26.9436 72.3616 26.9642C71.0909 27.2941 69.6358 27.1127 68.4827 26.4896C67.5664 25.9095 66.915 25.1105 66.6575 24.0443C66.4331 22.9443 66.5621 21.7968 67.1253 20.8207C67.3146 20.5383 67.5359 20.2951 67.7747 20.0541C67.8233 20.0019 67.8721 19.9497 67.9221 19.8959C68.4092 19.4453 68.9316 19.1231 69.5452 18.8734C69.5912 18.8531 69.6375 18.8329 69.6848 18.8119C70.3773 18.5102 71.1007 18.2848 71.8225 18.0648C72.2067 17.9472 72.5895 17.8246 72.9719 17.7016C73.0361 17.6809 73.1002 17.6603 73.1663 17.6391C73.4349 17.5527 73.7034 17.4659 73.9719 17.3793C74.1697 17.3155 74.3679 17.2524 74.5657 17.1889C74.6565 17.1595 74.657 17.1592 74.7493 17.1293C74.8059 17.1111 74.8628 17.0923 74.9212 17.0736C74.9706 17.0577 75.0206 17.0422 75.0716 17.0258C75.2164 16.9837 75.3608 16.9526 75.5091 16.9252C75.4377 16.0451 75.3149 15.2316 74.6819 14.5639C74.6495 14.527 74.6177 14.4895 74.5843 14.4516C74.0415 13.9017 73.1786 13.7355 72.4368 13.7182C72.393 13.7169 72.3491 13.7155 72.304 13.7142C72.1644 13.7104 72.0246 13.707 71.885 13.7035C71.79 13.701 71.6949 13.6983 71.5999 13.6957C71.3678 13.6894 71.1357 13.6839 70.9036 13.6781V13.7963C70.4068 13.8255 70.4066 13.8251 69.8997 13.8549V13.973C69.8353 13.986 69.7707 13.9988 69.7044 14.0121C69.1608 14.1252 68.6371 14.264 68.1135 14.4496C67.9339 14.5129 67.7891 14.5639 67.5969 14.5639V14.682C67.4511 14.7112 67.451 14.7108 67.302 14.7406V12.0834C67.6722 11.986 68.0427 11.8888 68.4241 11.7885C68.621 11.7283 68.6214 11.7279 68.8225 11.6664C69.3568 11.5117 69.9057 11.4283 70.4544 11.3412C70.5806 11.3208 70.7065 11.2979 70.8323 11.2748C71.3397 11.1903 71.8441 11.1857 72.3577 11.183C72.4649 11.1822 72.4652 11.1829 72.5745 11.182ZM75.5677 19.1683C75.3316 19.1683 75.3314 19.1679 75.2151 19.1957C75.1732 19.2091 75.1327 19.2227 75.0921 19.2357C75.0438 19.251 74.9964 19.2658 74.9495 19.2807C74.8974 19.2975 74.8467 19.3141 74.7962 19.3305C74.6288 19.3838 74.4614 19.4377 74.2942 19.4916C74.1762 19.5297 74.0578 19.5679 73.9397 19.6058C73.703 19.6819 73.4663 19.7578 73.2298 19.8344C72.9764 19.9165 72.7228 19.9986 72.469 20.0795C71.6341 20.3453 70.6401 20.5736 69.9856 21.1967C69.4339 21.8241 69.3174 22.4248 69.3684 23.2426C69.5233 23.707 69.7565 24.0837 70.1321 24.4008C70.8142 24.8992 71.6193 24.9779 72.4387 24.8959C73.2543 24.7455 74.1847 24.3286 74.7044 23.6664C74.7368 23.6225 74.7686 23.5801 74.8001 23.5375C75.0758 23.1947 75.3139 22.8856 75.4153 22.4516C75.427 22.3993 75.4382 22.348 75.4495 22.2973C75.5318 21.9462 75.5814 21.6144 75.5813 21.2533C75.5807 21.1992 75.58 21.1466 75.5794 21.0941C75.5789 20.9221 75.5779 20.7496 75.5764 20.5775C75.5754 20.4587 75.5751 20.3399 75.5745 20.2211C75.5731 19.8703 75.5706 19.5191 75.5677 19.1683Z" fill="var(--fill-0, black)"/>
<path id="Vector_5" d="M75.5674 19.1686C75.5689 19.5215 75.5699 19.8744 75.5707 20.2273C75.571 20.3472 75.5714 20.4672 75.5719 20.5871C75.5726 20.76 75.5729 20.933 75.5732 21.1059C75.5735 21.159 75.5738 21.2121 75.5741 21.2668C75.5741 21.5766 75.5534 21.8731 75.5084 22.1797C75.4889 22.1797 75.4694 22.1797 75.4493 22.1797C75.4493 21.225 75.4493 20.2703 75.4493 19.2867C75.3519 19.2867 75.2545 19.2867 75.1541 19.2867C75.3312 19.1686 75.3312 19.1686 75.5674 19.1686Z" fill="var(--fill-0, black)"/>
<path id="Vector_6" d="M113.945 12.0833C114.023 12.1028 114.101 12.1223 114.181 12.1423C114.161 12.1618 114.142 12.1813 114.122 12.2014C114.112 12.3802 114.106 12.5577 114.103 12.7367C114.102 12.7903 114.101 12.844 114.099 12.8992C114.096 13.0713 114.092 13.2433 114.089 13.4154C114.086 13.5318 114.083 13.6481 114.081 13.7645C114.075 14.0503 114.069 14.3362 114.063 14.6221C114.121 14.6416 114.18 14.661 114.24 14.6811C114.094 14.7103 114.094 14.7103 113.945 14.7402C113.945 13.8634 113.945 12.9866 113.945 12.0833Z" fill="var(--fill-0, black)"/>
<path id="Vector_7" d="M108.454 12.3786C108.493 12.3981 108.532 12.4176 108.572 12.4377C108.417 12.5956 108.262 12.7529 108.107 12.91C108.063 12.9551 108.019 13.0001 107.973 13.0465C107.931 13.0892 107.889 13.1318 107.845 13.1757C107.787 13.2351 107.787 13.2351 107.727 13.2956C107.627 13.3823 107.627 13.3823 107.509 13.3823C107.602 13.1581 107.743 13.0163 107.915 12.8473C107.966 12.7967 108.017 12.7461 108.069 12.6939C108.193 12.5786 108.316 12.4762 108.454 12.3786Z" fill="var(--fill-0, black)"/>
<path id="Vector_8" d="M24.0833 11.0795C24.1755 11.1865 24.1755 11.1865 24.2604 11.3157C24.2409 11.3741 24.2214 11.4326 24.2014 11.4928C24.1039 11.3759 24.0065 11.259 23.9062 11.1386C23.9646 11.1191 24.0231 11.0996 24.0833 11.0795Z" fill="var(--fill-0, black)"/>
<path id="Union" d="M17.7529 5.68091e-05C18.8069 0.00161835 19.8266 0.0434377 20.8613 0.258846C20.8998 0.26659 20.9388 0.274304 20.9785 0.282283C21.6617 0.420451 22.3198 0.607012 22.9795 0.831111C23.048 0.854181 23.0487 0.854263 23.1191 0.877986C23.8438 1.12272 24.5466 1.38993 25.2305 1.73443C25.284 1.7608 25.3374 1.78832 25.3926 1.81549C26.1845 2.20687 26.9324 2.63672 27.6504 3.15142C27.6911 3.18055 27.7325 3.21029 27.7744 3.24029C28.3485 3.65438 28.8922 4.09927 29.4219 4.56842C29.4521 4.5949 29.4826 4.62219 29.5137 4.64947C29.8179 4.91675 30.1089 5.18659 30.3691 5.49713C30.4655 5.609 30.564 5.71764 30.665 5.82525C30.713 5.87642 30.7135 5.87731 30.7627 5.92974C30.8271 5.99822 30.8922 6.06674 30.957 6.13482C31.0939 6.28084 31.1878 6.38396 31.252 6.57623C31.3194 6.64161 31.3876 6.70717 31.4551 6.77252C32.0359 7.39259 32.4893 8.20031 32.9053 8.93756C32.9441 9.00275 32.9835 9.06864 33.0234 9.1358C33.6135 10.1361 33.6143 10.1373 33.6143 10.5909H33.7324C34.3208 11.9569 34.7257 13.4785 34.8984 14.9581C34.9131 15.0807 34.9313 15.2031 34.9492 15.3253C35.1332 16.6741 35.0839 18.1006 34.9131 19.4473C34.908 19.4913 34.9027 19.5358 34.8975 19.5811C34.7536 20.8068 34.3846 22.0212 34.0313 23.2003C34.0125 23.2635 33.993 23.3274 33.9736 23.3926C33.9075 23.5844 33.8265 23.7549 33.7324 23.9346C33.6935 24.0117 33.6538 24.0888 33.6152 24.1661C33.5852 24.226 33.5853 24.2269 33.5547 24.2881C33.5011 24.3962 33.4487 24.5056 33.3965 24.6143C32.6347 26.1955 31.653 27.6218 30.459 28.9063C30.3327 29.0436 30.2104 29.183 30.0898 29.3253C29.9243 29.5158 29.7461 29.6808 29.5537 29.8438C29.3473 30.0209 29.1495 30.2076 28.9502 30.3926C28.5561 30.737 28.1344 31.0425 27.7022 31.337C27.6535 31.3701 27.6048 31.4034 27.5547 31.4376C27.1239 31.7287 26.6848 32.0019 26.2334 32.2598C26.1891 32.2854 26.1443 32.3106 26.0986 32.337C23.8177 33.65 21.1044 34.5022 18.457 34.5147C18.3689 34.5153 18.3683 34.516 18.2783 34.5167C18.0889 34.5177 17.8994 34.5175 17.71 34.5176C17.6454 34.5177 17.5802 34.5176 17.5137 34.5176C16.3065 34.5173 15.132 34.4729 13.9531 34.1905C13.8088 34.1562 13.6641 34.1253 13.5186 34.0967C12.9909 33.9911 12.4823 33.8468 11.9717 33.6768C11.9129 33.6573 11.8535 33.6374 11.793 33.6172C11.4808 33.5108 11.1772 33.3937 10.8779 33.2549C10.7712 33.207 10.6608 33.1668 10.5508 33.127C10.0778 32.9547 9.61923 32.7227 9.1709 32.4952V32.377C9.13057 32.372 9.08941 32.3675 9.04786 32.3624C8.83253 32.3077 8.66059 32.2056 8.47364 32.0899C8.43527 32.0664 8.39597 32.0428 8.35645 32.0186C7.38281 31.4161 6.48077 30.7304 5.6377 29.9551C5.5152 29.8432 5.38925 29.7353 5.2627 29.628C5.07219 29.4617 4.9072 29.2839 4.74414 29.0909C4.62624 28.955 4.50294 28.8246 4.37891 28.6944C1.27876 25.4191 -0.093065 20.8469 0.00488634 16.4122C0.0287489 15.5824 0.107346 14.7356 0.318363 13.9307C0.365589 13.7505 0.408385 13.5695 0.449222 13.3878C1.06203 10.6865 2.31468 8.28191 4.09278 6.16314C4.12009 6.13012 4.14765 6.09658 4.17578 6.06256C4.55055 5.6104 4.94231 5.18603 5.37012 4.78326C5.41065 4.745 5.45141 4.70647 5.49317 4.66705C5.78252 4.39976 5.78243 4.39973 5.98243 4.33306V4.2149C6.24625 3.97885 6.24639 3.97857 6.39551 3.97857V3.86041C6.59843 3.68609 6.82461 3.53926 7.04493 3.38775C7.08413 3.36075 7.12367 3.33354 7.16407 3.30572C9.332 1.82065 11.6559 0.803652 14.2334 0.273494C14.2897 0.261786 14.3463 0.2504 14.4043 0.238338C15.4485 0.033232 16.4825 -0.0016295 17.5439 5.68091e-05C17.6128 4.97349e-05 17.682 6.41383e-05 17.7529 5.68091e-05ZM2.85352 23.7569C2.89717 24.0683 2.89741 24.0697 3.30957 24.8047C3.33497 24.8497 3.36011 24.8939 3.38477 24.9376C3.96646 25.9713 4.62662 26.9531 5.44434 27.8165C5.52286 27.8993 5.5997 27.9845 5.67383 28.0713C5.93734 28.3856 6.23112 28.6592 6.53907 28.9297C6.57045 28.9572 6.60136 28.9841 6.63184 29.0108C8.53639 30.6876 10.7346 31.9852 13.21 32.6036C13.3398 32.6359 13.4697 32.6683 13.5986 32.7042C13.991 32.8169 14.3817 32.9162 14.7842 32.9844C14.8326 32.9923 14.8798 33.0003 14.9268 33.0079C15.7214 33.1392 16.5218 33.1528 17.3252 33.1524C17.494 33.152 17.6632 33.1511 17.832 33.1514C17.9442 33.1517 18.0568 33.1524 18.1689 33.1524C18.2238 33.1523 18.2778 33.1525 18.3311 33.1524C19.8314 33.1559 22.0592 32.9355 23.3408 32.0811C22.9651 32.068 22.5893 32.0523 22.2139 32.0323C22.1555 32.029 22.0986 32.0257 22.042 32.0225C20.6152 31.9439 19.1556 31.6019 17.8106 31.127C17.764 31.1103 17.7181 31.0944 17.6729 31.0782C17.4263 30.9904 17.1795 30.9006 16.9356 30.8057C16.865 30.7779 16.796 30.7507 16.7275 30.7237C16.2026 30.519 15.6999 30.278 15.1992 30.0206C15.1571 29.9989 15.1161 29.9772 15.0752 29.9561C14.5556 29.6911 14.0471 29.4168 13.5547 29.1036C13.3583 28.9762 13.1675 28.8516 12.9522 28.7579C12.8913 28.7366 12.8906 28.7367 12.8311 28.7159V28.5977C12.0545 28.4627 11.2912 28.2974 10.5361 28.0713C10.4974 28.0597 10.4595 28.0485 10.4219 28.0372C10.0073 27.9135 9.60031 27.7829 9.20118 27.6153C9.02448 27.5393 8.85048 27.4673 8.66895 27.4034C7.05805 26.8792 5.40569 25.9548 4.12989 24.8379C4.00835 24.726 3.88611 24.6173 3.75879 24.5118C3.51074 24.3103 3.26207 24.1086 3.01953 23.9004C2.93591 23.828 2.93504 23.8275 2.85352 23.7569ZM30.8984 24.9376C30.7805 24.9376 30.7799 24.9374 30.6533 25.0284C27.3515 27.6402 22.8486 28.8967 18.6826 29.0069C18.5381 29.0107 18.3935 29.0142 18.249 29.0186C17.7008 29.0354 17.1519 29.051 16.6035 29.0655C16.5456 29.067 16.4889 29.0689 16.4326 29.0704V29.129C16.6556 29.285 16.8983 29.38 17.1504 29.4776C17.2074 29.4996 17.263 29.5217 17.3184 29.543C17.746 29.7162 18.174 29.8685 18.6172 29.9962C18.7749 30.0406 18.9327 30.0862 19.0898 30.1329C20.593 30.7649 22.5108 30.8441 24.1152 30.6827C25.9308 30.4667 28.0312 29.723 29.21 28.2471C29.2417 28.206 29.2729 28.166 29.3037 28.126C29.5917 27.7693 29.8718 27.4198 30.0898 27.0147C30.1641 26.8691 30.2356 26.7282 30.3272 26.5928C30.5421 26.2863 30.6338 25.9689 30.7295 25.6085C30.7547 25.5083 30.7557 25.5079 30.7803 25.4102C30.8208 25.2531 30.8606 25.0953 30.8984 24.9376ZM20.918 7.02056C17.5878 6.50117 14.1285 6.81589 10.8965 7.72564C10.8282 7.745 10.8276 7.74476 10.7607 7.76373C10.317 7.88885 9.88098 8.01589 9.46094 8.20904C9.29526 8.28848 9.13711 8.35935 8.96387 8.42193C7.78004 8.80293 6.64461 9.46776 5.64258 10.1973C5.59749 10.2305 5.55354 10.2627 5.50977 10.295C5.44896 10.3376 5.39008 10.3796 5.33106 10.421C5.26911 10.4647 5.20857 10.5074 5.14844 10.5499C4.98201 10.6672 4.98165 10.6673 4.86036 10.7676V10.8858H4.74219C4.46467 11.0712 4.21305 11.2735 3.99512 11.5274C3.81804 11.8067 3.8176 11.8077 3.88282 12.5079C3.90214 12.6665 3.91827 12.8217 3.92774 12.9815C4.07554 15.6221 5.29156 18.3194 6.6836 20.5235C6.70598 20.5586 6.72827 20.5939 6.75 20.628C7.07127 21.1317 7.40985 21.6183 7.7793 22.0879C7.85703 22.1863 7.93404 22.2857 8.01075 22.3848C8.31819 22.7836 8.62935 23.1752 8.97071 23.546C9.04593 23.6271 9.12104 23.7091 9.19532 23.7911C9.47614 24.1022 9.75307 24.4166 10.0713 24.6905C10.1833 24.7843 10.2912 24.8781 10.3945 24.9815C10.9397 25.5453 11.5472 26.0581 12.1709 26.5333C12.3061 26.6355 12.4416 26.7369 12.5684 26.8497C12.6895 26.9598 12.8132 27.0649 12.9434 27.1641C14.7684 28.3751 19.1495 27.7838 21.2129 27.4473C21.3029 27.4321 21.3036 27.4319 21.3916 27.417C24.4811 26.8991 27.8832 25.8089 30.2559 23.668C30.35 23.5778 30.4465 23.4891 30.5439 23.4024C30.7255 23.2836 30.9002 23.1666 31.0684 23.0294C31.2867 22.7519 31.2869 22.7509 31.209 22.0635C31.1977 21.9673 31.1879 21.87 31.1787 21.7735C31.1492 21.45 31.1144 21.1272 31.0752 20.8047H30.957C30.9657 20.5482 30.942 20.3064 30.9033 20.0538C30.8954 20.0046 30.8866 19.956 30.8789 19.9083C30.7736 19.2541 30.6022 18.6487 30.3662 18.0294H30.2481C30.2481 17.8282 30.2485 17.8273 30.1377 17.4649C30.1215 17.4137 30.1055 17.3633 30.0898 17.3135C29.9915 17.001 29.8943 16.6991 29.7314 16.4131C29.6562 16.2952 29.5945 16.1898 29.542 16.0596C29.0998 14.9468 28.363 13.81 27.6279 12.8672C27.5297 12.7451 27.432 12.6222 27.3389 12.4962C26.9762 11.9992 26.6063 11.5248 26.1816 11.0792C26.0875 10.9809 25.9934 10.8815 25.9014 10.7813C24.9476 9.73368 23.9043 8.77799 22.7803 7.9151C22.7114 7.86257 22.642 7.8096 22.5732 7.75689C22.1652 7.43528 21.7999 7.11605 21.2647 7.0606C21.0946 7.04968 21.0942 7.05014 20.918 7.02056ZM2.55762 13.3663C2.14762 13.7766 1.89812 14.5531 1.73536 15.0967C1.71406 15.1705 1.69255 15.2429 1.67188 15.3145C1.27388 16.4435 1.26833 17.9432 1.63184 19.0879C1.65206 19.1494 1.65202 19.1506 1.67188 19.211C2.12998 20.663 2.93464 22.0124 4.08887 23.0235C4.2186 23.1323 4.34604 23.2417 4.46973 23.3575C5.54171 24.3639 6.79399 25.1661 8.1377 25.7588C8.18766 25.7808 8.23666 25.803 8.28516 25.8243C8.45222 25.8988 8.61966 25.9733 8.78711 26.0469C8.87041 26.0833 8.87127 26.0834 8.95313 26.1192C9.26008 26.2543 9.54166 26.3789 9.87891 26.4141C9.77525 26.2716 9.66768 26.1421 9.53614 26.0245C9.33349 25.8529 9.14425 25.6828 8.97168 25.4805C8.86087 25.3497 8.74821 25.2248 8.62696 25.1036C7.97431 24.4678 7.38914 23.77 6.83692 23.046C6.80733 23.007 6.77872 22.9685 6.75 22.9307C4.59556 20.1065 3.24648 16.9849 2.63868 13.4913C2.62787 13.4285 2.6277 13.4274 2.61719 13.3663H2.55762ZM20.6836 13.3653C20.7689 13.4541 20.769 13.4547 20.8682 13.5762C21.0813 13.8279 21.3161 14.0405 21.5693 14.251C21.4872 14.4362 21.3915 14.5618 21.2481 14.7042C21.1852 14.767 21.1851 14.7671 21.1211 14.8311C21.0771 14.8745 21.0327 14.9182 20.9873 14.9629C20.9469 15.0033 20.9059 15.0435 20.8643 15.085C20.7132 15.2354 20.5616 15.3853 20.4102 15.5352C20.0717 15.8712 19.7335 16.2076 19.3848 16.5538C21.0796 16.5732 22.7744 16.5933 24.5205 16.6133V18.0303C21.9785 18.0595 21.9782 18.0591 19.3848 18.0889L21.5693 20.2735C21.3484 20.5313 21.1372 20.7714 20.8975 21.0079C20.846 21.0588 20.7942 21.1097 20.7412 21.1622C20.6834 21.2189 20.683 21.2195 20.624 21.2774C20.2834 20.9947 19.9715 20.6904 19.6602 20.376C19.6087 20.3244 19.5569 20.273 19.5039 20.2198C19.313 20.028 19.1223 19.8356 18.9316 19.6436C18.7441 19.4547 18.556 19.2659 18.3682 19.0772C18.3188 19.0273 18.2696 18.9772 18.2188 18.9258C18.1729 18.8798 18.1273 18.8336 18.0801 18.7862C18.0398 18.7456 17.9986 18.705 17.957 18.6631C17.8436 18.5511 17.8437 18.5509 17.6719 18.4434V18.3253C17.4439 18.4509 17.2722 18.5931 17.0889 18.7774C17.0618 18.8045 17.0347 18.8316 17.0068 18.8594C16.9181 18.9483 16.8296 19.0377 16.7412 19.127C16.6795 19.189 16.6174 19.2507 16.5557 19.3126C16.3936 19.4751 16.2319 19.6379 16.0703 19.8008C15.9051 19.9673 15.7398 20.1337 15.5742 20.2999C15.2499 20.6254 14.9253 20.9512 14.6016 21.2774C14.5354 21.221 14.4694 21.164 14.4033 21.1075C14.3666 21.0761 14.3298 21.045 14.292 21.0128C14.1764 20.9127 14.0648 20.8087 13.9561 20.7012C13.9045 20.6509 13.9041 20.6509 13.8516 20.5997C13.7757 20.5102 13.7754 20.5097 13.7754 20.3917H13.5986C13.6807 20.2065 13.7765 20.0809 13.9199 19.9385C13.9617 19.8968 14.0038 19.8546 14.0469 19.8116C14.0907 19.7684 14.1346 19.7252 14.1797 19.6807C14.2404 19.6201 14.2408 19.6195 14.3027 19.5577C14.4538 19.4073 14.6054 19.2574 14.7568 19.1075C15.0954 18.7714 15.4344 18.4352 15.7832 18.0889C14.0882 18.0694 12.3928 18.0504 10.6465 18.0303V16.6133C13.1888 16.5841 13.1893 16.5836 15.7832 16.5538C15.4447 16.214 15.1056 15.8745 14.7568 15.5245C14.6501 15.4172 14.5436 15.3098 14.4336 15.1993C14.3491 15.1147 14.2642 15.03 14.1797 14.9454C14.1357 14.9011 14.0922 14.8562 14.0469 14.8106C14.005 14.7687 13.9631 14.7268 13.9199 14.6837C13.8835 14.6471 13.8461 14.611 13.8086 14.5733C13.7187 14.4824 13.7189 14.4821 13.5986 14.4288C13.5986 14.2516 13.5987 14.2514 13.6875 14.1583C13.7474 14.1096 13.7474 14.1093 13.8086 14.0596C14.0195 13.8849 14.205 13.6998 14.3867 13.4952C14.4836 13.4251 14.484 13.4249 14.5908 13.4337C14.769 13.503 14.8647 13.6093 14.9981 13.7462C15.0247 13.7733 15.0516 13.8002 15.0791 13.8282C15.1369 13.8871 15.1945 13.9466 15.252 14.0059C15.3427 14.0994 15.4339 14.1925 15.5254 14.2852C15.7859 14.5495 16.0457 14.8153 16.3047 15.0811C16.4631 15.2436 16.6226 15.4051 16.7822 15.5665C16.8429 15.6281 16.9028 15.6907 16.9629 15.753C17.0468 15.8399 17.1319 15.9259 17.2168 16.0118C17.2649 16.061 17.3138 16.1104 17.3633 16.1612C17.4833 16.2696 17.4836 16.2702 17.6123 16.2618C17.7766 16.1763 17.8865 16.0647 18.0166 15.9327C18.044 15.9051 18.0714 15.8771 18.0996 15.8487C18.1901 15.7575 18.2803 15.6661 18.3701 15.5743C18.4329 15.5108 18.4957 15.4472 18.5586 15.3838C18.7241 15.217 18.8898 15.0494 19.0547 14.8819C19.3189 14.6135 19.5835 14.3456 19.8486 14.0782C19.9413 13.9845 20.0337 13.89 20.126 13.796C20.1823 13.739 20.2386 13.682 20.2949 13.6251C20.3443 13.5749 20.3944 13.5244 20.4453 13.4727C20.5653 13.3658 20.5656 13.3653 20.6836 13.3653ZM25.1123 8.05181C25.2288 8.20476 25.3446 8.34428 25.4854 8.47564C25.7188 8.67674 25.9454 8.87659 26.1455 9.11138C26.2576 9.24433 26.372 9.37121 26.4941 9.49517C26.7196 9.71756 26.9445 9.93865 27.1523 10.1778C27.2628 10.3073 27.3746 10.4347 27.4902 10.5596C27.6601 10.743 27.8334 10.9188 27.9668 11.1309C28.0179 11.2265 28.0706 11.3222 28.1231 11.417C28.1831 11.4371 28.2415 11.4572 28.2998 11.4766C28.2998 11.5939 28.3004 11.5948 28.4512 11.7676C28.616 11.9525 28.7463 12.1475 28.876 12.3585C28.9366 12.4598 28.9995 12.5606 29.0674 12.6573H29.1856C29.2444 12.8338 29.2449 12.8344 29.3125 12.9503C29.3413 12.9952 29.3695 13.0394 29.3975 13.0831C29.4297 13.134 29.4618 13.184 29.4932 13.2335C29.9633 13.9746 30.4292 14.7337 30.75 15.5538C30.7774 15.6318 30.8069 15.7099 30.8389 15.7862C30.9644 15.9118 31.0105 16.0232 31.0723 16.1876C31.0869 16.2279 31.101 16.2676 31.1152 16.3067C31.2914 16.7843 31.4559 17.2663 31.6143 17.7501C31.6717 17.9261 31.7294 18.1027 31.7881 18.2784C31.8319 18.4095 31.8757 18.5416 31.9189 18.6729C31.9406 18.7387 31.9614 18.8034 31.9824 18.8672C32.0945 19.1998 32.2014 19.5194 32.2344 19.8702C32.2515 20.1049 32.2826 20.333 32.3242 20.5645C32.3362 20.6293 32.3368 20.6303 32.3486 20.6944C32.3766 20.8492 32.4041 21.0046 32.4326 21.1592H32.5508C33.1029 20.0106 33.6612 18.9391 33.6348 17.6397C33.633 17.5552 33.6315 17.4703 33.6309 17.3858C33.6282 16.9127 33.6335 16.4306 33.5547 15.9629C33.4855 15.7845 33.4851 15.7837 33.4697 15.5909C33.4573 15.4356 33.4367 15.3134 33.3818 15.167C33.3606 15.1169 33.339 15.0672 33.3184 15.0186C33.0628 14.2401 32.6892 13.51 32.1904 12.8585C32.1526 12.8102 32.1159 12.7627 32.0791 12.7159C31.7462 12.2679 31.3849 11.8776 30.9648 11.5098C30.8835 11.4401 30.8015 11.3692 30.7207 11.2989C29.1405 9.82715 27.176 8.69552 25.1123 8.05181ZM17.4199 1.36529C16.469 1.36136 15.5445 1.40946 14.6084 1.58697C14.5525 1.59832 14.4976 1.60916 14.4434 1.62017C13.8813 1.73332 13.3292 1.87628 12.7783 2.03424C12.7361 2.04638 12.6952 2.05858 12.6543 2.07037C12.5337 2.10477 12.4123 2.13946 12.292 2.17486C12.2545 2.186 12.2181 2.19725 12.1816 2.20806C12.0792 2.2383 12.0789 2.23801 11.9785 2.26763C11.8273 2.32512 11.8276 2.32539 11.7686 2.44342C14.016 2.52286 16.1377 2.91847 18.2217 3.77545C18.2643 3.79308 18.3062 3.81009 18.3477 3.82721C18.8373 4.02805 19.3205 4.23477 19.7881 4.48346C20.1423 4.6734 20.4972 4.86184 20.8584 5.03814C21.1061 5.15883 21.3467 5.27639 21.5693 5.43951C21.746 5.57204 21.7467 5.57216 21.9385 5.66803C21.9935 5.69555 22.0472 5.72334 22.1006 5.75006C22.1942 5.84979 22.2533 5.91866 22.3838 5.96392C22.4253 5.97143 22.4666 5.97812 22.5068 5.98541C22.5549 5.99482 22.6018 6.00459 22.6484 6.01373C22.7615 6.03573 22.875 6.05962 22.9873 6.08502C23.1834 6.13083 23.3799 6.17671 23.5762 6.22174C24.8813 6.49566 26.1939 6.96678 27.3916 7.55084C27.6031 7.65796 27.7979 7.75119 28.0322 7.79986C28.0829 7.80548 28.1324 7.81101 28.1816 7.81646V7.93463C29.0393 8.35365 29.8535 8.88436 30.6191 9.45221C30.6536 9.4779 30.6873 9.50343 30.7207 9.52838C31.4468 10.1147 31.4476 10.1152 32.125 10.7588C32.1608 10.7928 32.161 10.7937 32.1963 10.8272C32.2163 10.7672 32.2364 10.7087 32.2559 10.6504C32.2094 10.5491 32.1611 10.4473 32.1074 10.3497C32.0628 10.2712 32.0184 10.1914 31.9746 10.1124C31.9522 10.0717 31.93 10.0317 31.9082 9.99224C31.8355 9.86127 31.7662 9.73036 31.7002 9.59576C31.5537 9.28591 31.3836 9.01016 31.1826 8.73248C31.0714 8.57924 30.9644 8.4229 30.8574 8.26666C30.7944 8.17431 30.7284 8.08255 30.6611 7.99322C30.5818 7.91551 30.5034 7.83629 30.4258 7.75689C30.3058 7.3969 30.0135 7.10117 29.7461 6.83795C29.6384 6.73411 29.5351 6.63023 29.4365 6.51763C29.2792 6.33224 29.1246 6.15407 28.9385 5.99713C28.8056 5.88779 28.6766 5.77576 28.5498 5.65924C28.2298 5.36165 27.9083 5.07095 27.5635 4.80181C27.5129 4.76285 27.4632 4.7244 27.4141 4.68658C25.892 3.4844 24.0961 2.54939 22.2266 2.02154C22.1267 1.99412 22.0258 1.96668 21.9268 1.93658C21.3052 1.74534 20.693 1.6199 20.0479 1.53814C19.9451 1.5257 19.8418 1.51314 19.7393 1.49908C19.1452 1.38587 18.5736 1.3639 17.9697 1.36431C17.7867 1.36506 17.603 1.36593 17.4199 1.36529ZM15.5469 4.27349C14.136 3.84294 12.556 3.6534 11.0859 3.82623C10.9701 3.8458 10.8537 3.86368 10.7373 3.87994C9.26097 4.08395 7.90748 4.51459 6.72461 5.44732C6.67298 5.48979 6.62239 5.5311 6.57227 5.57232C6.11516 5.94223 5.73682 6.36268 5.3877 6.83502C5.36039 6.87243 5.33316 6.90906 5.30664 6.94537C5.17076 7.12878 5.05142 7.29196 4.99121 7.51568C4.98692 7.55723 4.98269 7.59839 4.97852 7.63873H4.86036C4.5518 8.22965 4.28148 8.86187 4.21094 9.52838C4.32862 9.52838 4.32921 9.52805 4.43653 9.45123C4.56818 9.3487 4.70514 9.25979 4.84571 9.16998C4.98847 9.07949 4.989 9.07973 5.09668 8.99713V8.87896C5.21439 8.87896 5.21486 8.87871 5.32422 8.82037C5.36936 8.7926 5.41322 8.76529 5.45703 8.73834C5.50739 8.70763 5.5566 8.67732 5.60547 8.64752C6.35709 8.18554 7.11796 7.75916 7.92383 7.39849C7.96625 7.37981 8.00765 7.36195 8.04883 7.34381C8.52343 7.13339 9.00445 6.95893 9.49805 6.79986C9.62944 6.75786 9.76139 6.7165 9.89258 6.67388C10.5123 6.47222 11.1308 6.28713 11.7715 6.16314C11.9164 6.13547 12.0584 6.10529 12.2002 6.06451C12.6453 5.93141 13.0948 5.85834 13.5537 5.794C13.599 5.78772 13.6435 5.78154 13.6875 5.77545C15.2858 5.5515 16.8784 5.48977 18.4902 5.45806C18.5837 5.45628 18.5841 5.4559 18.6758 5.45416V5.39556C18.515 5.33215 18.3553 5.266 18.1963 5.1983C18.1275 5.16863 18.06 5.14018 17.9932 5.11138C17.8469 5.04905 17.7007 4.98583 17.5547 4.92291C17.0056 4.67012 16.4468 4.50858 15.8633 4.3565C15.7579 4.32913 15.6521 4.30161 15.5469 4.27349Z" fill="var(--fill-0, black)"/>
<path id="Subtract_2" d="M115.22 11.7503C117.873 11.0589 121.021 10.6575 123.255 12.5999C124.559 13.8329 124.908 15.5553 124.986 17.2796C124.993 17.6039 124.993 17.9279 124.992 18.2523C124.992 18.3459 124.992 18.4399 124.992 18.5335C124.993 18.785 124.992 19.0369 124.992 19.2884C124.991 19.5523 124.991 19.8165 124.991 20.0804C124.99 20.5789 124.99 21.0779 124.99 21.5765C124.989 22.1447 124.989 22.7133 124.989 23.2816C124.988 24.4493 124.987 25.6177 124.986 26.7855H122.27C122.25 26.0647 122.23 25.3435 122.21 24.6009C122.006 24.922 122.006 24.9224 121.797 25.2503C121.067 26.2641 119.785 26.8218 118.587 27.0433C117.354 27.1922 116.243 27.0285 115.125 26.4896V26.3714C115.009 26.3325 114.892 26.2942 114.772 26.2542V26.136C114.707 26.1146 114.706 26.1139 114.64 26.0921C114.085 25.8384 113.716 25.142 113.472 24.6009C113.301 24.1389 113.196 23.6761 113.177 23.1839C113.175 23.1412 113.173 23.098 113.17 23.054C113.133 21.8345 113.668 20.8268 114.48 19.9622C114.78 19.6669 115.094 19.4662 115.465 19.2708C115.626 19.1851 115.775 19.0934 115.926 18.9915C116.12 18.8789 116.206 18.8394 116.424 18.8733V18.7552C116.584 18.6752 116.72 18.6928 116.897 18.6966V18.5784C116.952 18.5641 117.007 18.5502 117.064 18.5355C117.692 18.3702 118.313 18.1871 118.929 17.9788C119.136 17.9105 119.346 17.8463 119.554 17.7816C119.801 17.7049 120.047 17.628 120.291 17.5452C120.577 17.4485 120.866 17.3601 121.154 17.2708C121.376 17.2015 121.599 17.1294 121.82 17.054C122.033 16.984 122.034 16.9847 122.152 16.9847C122.068 16.042 121.936 15.1135 121.199 14.4505C120.429 13.8219 119.717 13.7165 118.745 13.722C118.614 13.7226 118.482 13.7218 118.35 13.721C117.909 13.7206 117.485 13.7401 117.051 13.8294C116.879 13.8576 116.716 13.8588 116.542 13.8548V13.973C116.5 13.9848 116.457 13.9969 116.413 14.0091C116.219 14.0635 116.025 14.1178 115.83 14.1722C115.73 14.2003 115.73 14.2002 115.627 14.2288C115.562 14.247 115.497 14.2657 115.43 14.2845C115.367 14.3021 115.303 14.32 115.238 14.3382C115.1 14.377 114.963 14.4179 114.826 14.4593C114.653 14.5048 114.653 14.5042 114.417 14.5042V14.6224L113.945 14.7405V12.0833C114.266 11.9993 114.588 11.916 114.919 11.8294C115.018 11.8033 115.118 11.7772 115.22 11.7503ZM121.974 19.1692V19.2864C121.709 19.3398 121.448 19.3986 121.192 19.4857C120.972 19.5618 120.75 19.6326 120.528 19.7005C120.359 19.7516 120.191 19.8025 120.024 19.8587C119.736 19.9563 119.446 20.0454 119.154 20.1282C118.695 20.257 118.238 20.3885 117.783 20.5267V20.6448H117.606C117.066 20.8031 116.641 21.119 116.324 21.5853C116.285 21.6468 116.285 21.6471 116.247 21.7073C115.942 22.1722 115.942 22.1725 116.011 23.2425C116.161 23.6921 116.39 24.1699 116.83 24.39C116.894 24.4067 116.894 24.4068 116.955 24.4232V24.5413C117.128 24.6354 117.302 24.7121 117.488 24.7776C118.433 24.9775 119.345 24.9437 120.224 24.5081C120.277 24.4794 120.329 24.451 120.38 24.4232C120.677 24.2633 120.942 24.0926 121.19 23.8626C122.11 22.8954 122.252 21.793 122.229 20.5091C122.227 20.3962 122.225 20.2831 122.224 20.1702C122.221 19.8366 122.216 19.5028 122.21 19.1692H121.974Z" fill="var(--fill-0, black)"/>
<path id="Vector_9" d="M116.897 20.9985C116.936 21.018 116.975 21.0375 117.015 21.0576C116.839 21.2329 116.664 21.4083 116.483 21.589C116.444 21.5695 116.405 21.55 116.365 21.5299C116.524 21.3189 116.686 21.1568 116.897 20.9985Z" fill="var(--fill-0, black)"/>
<path id="Vector_10" d="M14.6367 32.748C14.8705 32.748 15.1043 32.748 15.3452 32.748C15.1729 32.8629 15.0721 32.8928 14.8729 32.9251C14.8729 32.8862 14.8729 32.8472 14.8729 32.8071C14.7949 32.7876 14.717 32.7681 14.6367 32.748Z" fill="var(--fill-0, black)"/>
</g>
</svg>
