<svg preserveAspectRatio="none" width="100%" height="100%" overflow="visible" style="display: block;" viewBox="0 0 76.3436 34.1016" fill="none" xmlns="http://www.w3.org/2000/svg">
<path id="Vector 63" d="M73.5998 0.899002L75.3898 17.201C75.3898 17.201 68.2298 16.3578 62.8599 16.3578C55.5044 16.3578 51.168 16.0711 44.96 19.1685C38.9376 22.1733 39.2622 25.697 33.5041 29.0059C28.0456 32.1426 23.7833 32.8426 17.0362 33.2219C10.3879 33.5957 0.210391 30.9734 0.210391 30.9734C0.210391 30.9734 9.54043 32.0619 15.2463 30.9734C20.8968 29.8954 24.1518 28.6713 28.4921 25.6331C34.5139 21.4178 32.7247 15.9808 38.1581 11.2986C48.1092 2.7231 73.5998 0.899002 73.5998 0.899002Z" fill="var(--fill-0, black)" stroke="var(--stroke-0, black)" stroke-width="1.68641"/>
</svg>
