<svg preserveAspectRatio="none" width="100%" height="100%" overflow="visible" style="display: block;" viewBox="0 0 86.5536 38.6622" fill="none" xmlns="http://www.w3.org/2000/svg">
<path id="Vector 63" d="M83.4429 1.01923L85.4722 19.5014C85.4722 19.5014 77.3547 18.5455 71.2666 18.5455C62.9274 18.5455 58.0111 18.2204 50.9729 21.732C44.145 25.1387 44.513 29.1337 37.9849 32.8851C31.7964 36.4413 26.9641 37.2349 19.3146 37.665C11.7771 38.0888 0.238528 35.1157 0.238528 35.1157C0.238528 35.1157 10.8163 36.3498 17.2853 35.1157C23.6915 33.8935 27.3818 32.5058 32.3026 29.0612C39.1297 24.2822 37.1012 18.118 43.2613 12.8096C54.5433 3.08729 83.4429 1.01923 83.4429 1.01923Z" fill="var(--fill-0, black)" stroke="var(--stroke-0, black)" stroke-width="1.91195"/>
</svg>
