<svg preserveAspectRatio="none" width="100%" height="100%" overflow="visible" style="display: block;" viewBox="0 0 227.503 215.361" fill="none" xmlns="http://www.w3.org/2000/svg">
<g id="asml boat">
<path id="Vector 128" d="M213.721 172.802C211.82 168.621 188.285 174.449 188.285 174.449L25.4634 177.092C25.4634 177.092 15.306 178.153 14.3725 182.358C13.4391 186.562 15.6087 192.485 19.1984 194.82C22.7881 197.155 55.0552 201.005 63.6808 201.804C72.3065 202.604 175.564 197.3 183.15 191.71C190.737 186.119 215.622 176.984 213.721 172.802Z" fill="var(--fill-0, #65A7E6)"/>
<path id="Vector 61" d="M74.7044 111.261C74.7324 76.2157 64.7613 22.0745 64.7613 22.0745C64.7613 22.0745 131.35 -0.221813 162.987 32.0176C194.624 64.257 225.96 152.239 225.96 152.239C225.96 152.239 204.212 142.985 189.502 139.885C143.827 130.258 71.6913 160.073 71.6913 160.073C71.6913 160.073 74.6892 130.359 74.7044 111.261Z" fill="var(--fill-0, #E2F3FE)" stroke="var(--stroke-0, #E2F3FE)" stroke-width="1.80783"/>
<path id="Vector 62" d="M55.7221 87.4572C51.9781 115.716 65.6652 159.771 65.6652 159.771L9.92363 146.212C9.92363 146.212 14.6211 132.079 18.3602 123.313C31.5614 92.363 65.6652 51.3005 65.6652 51.3005C65.6652 51.3005 57.6455 72.9398 55.7221 87.4572Z" fill="var(--fill-0, #E2F3FE)" stroke="var(--stroke-0, #E2F3FE)" stroke-width="1.80783"/>
<path id="Vector 63" d="M62.0495 0.982637L63.5561 18.4584C63.5561 18.4584 57.5299 17.5545 53.0104 17.5545C46.8197 17.5545 43.17 17.2471 37.9451 20.5675C32.8763 23.7886 33.1495 27.5661 28.3033 31.1132C23.7092 34.4758 20.1219 35.2261 14.4432 35.6328C8.84766 36.0335 0.28186 33.2223 0.28186 33.2223C0.28186 33.2223 8.13442 34.3893 12.9367 33.2223C17.6925 32.0667 20.432 30.7546 24.085 27.4975C29.1532 22.9788 27.6473 17.1503 32.2203 12.1309C40.5956 2.93807 62.0495 0.982637 62.0495 0.982637Z" fill="var(--fill-0, #0E228C)" stroke="var(--stroke-0, #0E228C)" stroke-width="1.80783"/>
<g id="Group 1">
<path id="Vector" d="M136.707 70.5789C139.539 70.5789 142.371 70.5789 145.288 70.5789C145.537 71.5126 145.78 72.4425 145.999 73.3829C146.028 73.5042 146.056 73.6254 146.085 73.7503C146.162 74.0781 146.239 74.4059 146.316 74.7338C146.397 75.0809 146.478 75.4279 146.559 75.7749C146.696 76.358 146.832 76.9411 146.969 77.5242C147.142 78.2656 147.316 79.007 147.489 79.7484C147.64 80.3938 147.792 81.0393 147.943 81.6848C147.99 81.8882 148.038 82.0916 148.085 82.2951C148.456 83.876 148.822 85.4577 149.179 87.0416C149.564 85.6671 149.882 84.2764 150.207 82.8866C150.288 82.5396 150.369 82.1925 150.451 81.8455C150.587 81.2625 150.724 80.6794 150.86 80.0962C151.033 79.3548 151.207 78.6134 151.38 77.8721C151.532 77.2266 151.683 76.5812 151.834 75.9357C151.881 75.7322 151.929 75.5288 151.977 75.3254C152.067 74.9408 152.157 74.5563 152.246 74.1717C152.272 74.0625 152.298 73.9533 152.324 73.8409C152.578 72.7546 152.823 71.6667 153.07 70.5789C155.935 70.5789 158.799 70.5789 161.751 70.5789C162.209 74.0861 162.667 77.5933 163.123 81.1006C163.177 81.5147 163.231 81.9289 163.285 82.343C163.301 82.4666 163.301 82.4666 163.318 82.5928C163.492 83.9275 163.666 85.2622 163.84 86.5969C164.019 87.9664 164.198 89.3361 164.376 90.7058C164.486 91.5509 164.596 92.3959 164.707 93.2409C164.783 93.8205 164.858 94.4 164.934 94.9797C164.977 95.314 165.021 95.6483 165.065 95.9826C165.112 96.3454 165.159 96.7082 165.206 97.071C165.22 97.1762 165.234 97.2814 165.249 97.3898C165.261 97.4877 165.274 97.5856 165.286 97.6864C165.303 97.8119 165.303 97.8119 165.32 97.9399C165.349 98.2969 165.343 98.6562 165.343 99.0144C162.709 99.0144 160.074 99.0144 157.361 99.0144C157.235 97.8799 157.116 96.7505 157.029 95.6133C157.017 95.4626 157.005 95.312 156.993 95.1613C156.961 94.7588 156.93 94.3564 156.899 93.9539C156.866 93.5308 156.833 93.1078 156.8 92.6847C156.738 91.8866 156.675 91.0884 156.613 90.2902C156.543 89.3803 156.472 88.4703 156.401 87.5604C156.255 85.6913 156.109 83.8222 155.964 81.9531C155.504 84.032 155.061 86.1138 154.634 88.1998C154.558 88.5706 154.482 88.9414 154.405 89.3122C154.23 90.1661 154.055 91.0201 153.88 91.874C153.655 92.9714 153.43 94.0689 153.204 95.1662C153.114 95.6052 153.024 96.0441 152.934 96.4831C152.892 96.689 152.85 96.8947 152.808 97.1005C152.756 97.351 152.705 97.6016 152.654 97.8522C152.631 97.9622 152.608 98.0721 152.585 98.1854C152.565 98.2811 152.546 98.3767 152.526 98.4753C152.472 98.7151 152.472 98.7151 152.372 99.0144C150.298 99.0144 148.223 99.0144 146.086 99.0144C145.953 98.6135 145.844 98.2564 145.761 97.8481C145.738 97.7373 145.715 97.6265 145.691 97.5123C145.667 97.3921 145.642 97.2719 145.617 97.1481C145.591 97.0203 145.564 96.8925 145.537 96.7609C145.465 96.4108 145.394 96.0606 145.322 95.7103C145.246 95.3407 145.17 94.9711 145.094 94.6014C144.95 93.8986 144.806 93.1957 144.662 92.4928C144.485 91.6268 144.307 90.7609 144.129 89.8951C143.946 89.006 143.764 88.117 143.582 87.2278C143.221 85.4692 142.859 83.7109 142.494 81.9531C142.296 84.0876 142.112 86.2228 141.943 88.3598C141.913 88.7369 141.883 89.114 141.853 89.4911C141.797 90.1991 141.741 90.9071 141.685 91.6151C141.609 92.5762 141.532 93.5372 141.456 94.4982C141.336 96.0036 141.217 97.509 141.098 99.0144C138.431 99.0144 135.764 99.0144 133.016 99.0144C133.19 97.5064 133.364 95.9999 133.56 94.4948C133.575 94.3833 133.589 94.2718 133.604 94.1569C133.619 94.0415 133.634 93.9262 133.65 93.8073C133.682 93.5581 133.714 93.3089 133.747 93.0596C133.824 92.4606 133.902 91.8616 133.98 91.2627C134.044 90.776 134.107 90.2893 134.17 89.8027C134.179 89.7328 134.188 89.663 134.197 89.591C134.216 89.4491 134.234 89.3071 134.253 89.1652C134.424 87.8433 134.596 86.5215 134.768 85.1997C134.916 84.0666 135.063 82.9335 135.21 81.8004C135.381 80.4793 135.553 79.1582 135.725 77.8372C135.743 77.6964 135.761 77.5557 135.78 77.415C135.789 77.3458 135.798 77.2766 135.807 77.2053C135.87 76.7184 135.933 76.2315 135.997 75.7445C136.081 75.0907 136.166 74.437 136.252 73.7832C136.283 73.5432 136.314 73.3032 136.345 73.0632C136.387 72.7362 136.43 72.4093 136.473 72.0824C136.485 71.987 136.497 71.8916 136.51 71.7933C136.527 71.6618 136.527 71.6618 136.545 71.5277C136.555 71.4523 136.564 71.3769 136.575 71.2992C136.611 71.0577 136.66 70.8183 136.707 70.5789Z" fill="var(--fill-0, #0E228C)"/>
<path id="Vector_2" d="M89.714 70.5789C92.9407 70.5789 96.1674 70.5789 99.4919 70.5789C100.028 72.3076 100.563 74.0359 101.082 75.7698C101.146 75.9818 101.209 76.1938 101.273 76.4058C101.407 76.8554 101.542 77.3051 101.677 77.7548C101.891 78.4695 102.105 79.1842 102.319 79.8988C102.601 80.8393 102.883 81.7797 103.165 82.7202C103.826 84.9276 104.488 87.1348 105.15 89.342C105.361 90.0449 105.572 90.7478 105.783 91.4508C105.914 91.8901 106.046 92.3295 106.178 92.7689C106.241 92.9785 106.304 93.1881 106.366 93.3978C106.672 94.4173 106.978 95.4366 107.29 96.4544C107.314 96.5333 107.338 96.6122 107.363 96.6934C107.473 97.0536 107.583 97.4136 107.694 97.7733C107.732 97.8949 107.769 98.0164 107.807 98.1417C107.839 98.2462 107.872 98.3507 107.905 98.4583C107.973 98.7151 107.973 98.7151 107.973 99.0144C105.141 99.0144 102.309 99.0144 99.3921 99.0144C99.141 98.01 98.8928 97.0075 98.6645 95.9981C98.6179 95.7925 98.5706 95.5871 98.5234 95.3816C98.4933 95.2493 98.4633 95.1169 98.4333 94.9845C98.4066 94.8672 98.3799 94.7498 98.3524 94.6289C98.2946 94.325 98.2946 94.325 98.2946 93.926C95.891 93.9589 93.4875 93.9918 91.0111 94.0257C90.6489 95.672 90.2867 97.3183 89.9136 99.0144C87.082 99.0144 84.2504 99.0144 81.333 99.0144C81.4453 98.1165 81.4453 98.1165 81.5477 97.7774C81.5707 97.6999 81.5938 97.6223 81.6176 97.5424C81.6555 97.4186 81.6555 97.4186 81.6941 97.2923C81.721 97.2025 81.748 97.1128 81.7757 97.0203C81.8655 96.7211 81.9563 96.4222 82.047 96.1233C82.1118 95.9085 82.1764 95.6936 82.241 95.4788C82.3801 95.0165 82.5196 94.5545 82.6594 94.0925C82.8818 93.3574 83.1034 92.6221 83.3248 91.8868C83.556 91.1191 83.7872 90.3515 84.0188 89.584C84.7689 87.0982 85.5154 84.6113 86.2612 82.1241C86.4698 81.4282 86.6786 80.7323 86.8874 80.0364C87.4597 78.1292 88.0317 76.2218 88.6013 74.3138C88.6212 74.2472 88.6411 74.1806 88.6616 74.112C89.013 72.9345 89.3634 71.7566 89.714 70.5789ZM94.603 77.2637C94.2762 78.5318 93.9881 79.8071 93.7066 81.0859C93.6602 81.2959 93.6138 81.5059 93.5673 81.7159C93.4709 82.1521 93.3747 82.5884 93.2786 83.0247C93.1551 83.5851 93.0313 84.1453 92.9075 84.7056C92.8121 85.1374 92.7167 85.5692 92.6215 86.001C92.5758 86.2078 92.5301 86.4147 92.4844 86.6215C92.4211 86.9085 92.3578 87.1955 92.2946 87.4825C92.2757 87.5683 92.2567 87.6541 92.2371 87.7424C92.1477 88.0873 92.1477 88.0873 92.1086 88.4384C93.7549 88.4384 95.4011 88.4384 97.0973 88.4384C96.9711 87.6813 96.84 86.9368 96.6736 86.1893C96.6522 86.0918 96.6307 85.9943 96.6086 85.8939C96.5388 85.5764 96.4684 85.259 96.3981 84.9416C96.3492 84.7197 96.3002 84.4977 96.2513 84.2757C96.1233 83.695 95.995 83.1144 95.8665 82.5338C95.7352 81.9399 95.6042 81.3459 95.4732 80.7519C95.2168 79.5891 94.9599 78.4264 94.7027 77.2637C94.6698 77.2637 94.6369 77.2637 94.603 77.2637Z" fill="var(--fill-0, #0E228C)"/>
<path id="Vector_3" d="M169.234 70.5789C171.802 70.5789 174.37 70.5789 177.016 70.5789C177.016 77.9542 177.016 85.3294 177.016 92.9282C180.44 92.9282 183.865 92.9282 187.393 92.9282C187.393 94.9367 187.393 96.9451 187.393 99.0144C181.4 99.0144 175.408 99.0144 169.234 99.0144C169.234 89.6307 169.234 80.247 169.234 70.5789Z" fill="var(--fill-0, #0F228B)"/>
<path id="Vector_4" d="M120.145 76.2663C119.927 76.4849 119.746 76.5641 119.465 76.6903C118.886 76.9756 118.591 77.2529 118.318 77.8502C118.171 78.5166 118.202 79.0322 118.506 79.6426C119.401 80.9955 121.664 81.5041 123.119 82.0332C124.23 82.4384 125.285 82.8979 126.331 83.45C126.499 83.5382 126.499 83.5382 126.67 83.6281C128.436 84.5741 129.739 86.1476 130.319 88.0591C130.824 89.917 130.748 91.8111 129.823 93.5272C129.779 93.6099 129.735 93.6926 129.69 93.7778C128.247 96.3237 125.566 98.2141 122.763 98.9914C120.137 99.6583 117.32 99.7774 114.658 99.2143C114.564 99.1944 114.47 99.1746 114.373 99.1542C112.715 98.7921 111.143 98.2473 109.569 97.6179C109.569 95.3131 109.569 93.0083 109.569 90.6337C109.931 90.8642 110.294 91.0947 110.667 91.3321C112.529 92.4398 114.543 93.4365 116.753 93.5272C116.858 93.5323 116.963 93.5374 117.071 93.5427C118.476 93.5798 119.746 93.3082 120.837 92.3798C121.379 91.7229 121.696 91.1192 121.666 90.2448C121.575 89.4545 121.252 88.852 120.644 88.3389C120.192 88.046 119.723 87.7921 119.247 87.5407C117.267 86.492 115.778 85.1639 114.969 83.0178C114.616 81.7274 114.81 80.2273 115.414 79.0529C116.236 77.6934 117.464 76.8244 118.993 76.3976C119.381 76.3045 119.743 76.2403 120.145 76.2663Z" fill="var(--fill-0, #0E228C)"/>
<path id="Vector_5" d="M125.134 70.0802C125.215 70.0984 125.296 70.1166 125.38 70.1353C127.855 70.7059 127.855 70.7059 128.326 71.1777C128.462 71.8475 128.44 72.5232 128.439 73.204C128.439 73.3318 128.44 73.4596 128.44 73.5912C128.44 73.8608 128.44 74.1304 128.439 74.4C128.439 74.7437 128.439 75.0873 128.439 75.4309C128.44 75.7611 128.44 76.0914 128.439 76.4217C128.44 76.5442 128.44 76.6666 128.44 76.7928C128.438 77.3917 128.418 77.9689 128.326 78.561C127.949 78.4294 127.696 78.2691 127.397 78.006C126.008 76.8703 124.281 76.1339 122.571 75.6364C122.446 75.6001 122.446 75.6001 122.32 75.563C121.145 75.2379 119.989 75.1321 118.773 75.1375C118.576 75.1382 118.576 75.1382 118.375 75.139C115.849 75.1693 113.483 75.8727 111.564 77.5633C110.779 78.3987 110.384 79.4302 110.267 80.5565C110.201 80.5235 110.136 80.4906 110.068 80.4567C109.703 78.3388 110.053 75.9242 111.271 74.1296C111.607 73.6823 111.97 73.2725 112.363 72.8739C112.438 72.7967 112.514 72.7196 112.592 72.64C113.996 71.2967 115.973 70.4857 117.85 70.0802C117.915 70.0653 117.979 70.0504 118.045 70.035C120.277 69.5323 122.907 69.579 125.134 70.0802Z" fill="var(--fill-0, #0E228C)"/>
</g>
<path id="Vector 64" d="M61.7481 188.094C59.0363 187.792 15.3471 177.85 14.4431 176.343C13.5392 174.835 12.9366 161.277 13.2379 160.373C13.5392 159.469 24.9888 163.989 24.9888 163.989V160.373C24.9888 159.771 67.7743 161.579 69.5821 161.88C71.3899 162.181 78.32 165.797 81.333 166.098C84.346 166.4 216.619 154.347 218.427 154.649C220.235 154.95 200.65 158.566 199.445 158.867C198.24 159.168 178.353 183.575 176.244 184.177C174.135 184.779 64.4599 188.395 61.7481 188.094Z" fill="var(--fill-0, #0E228C)" stroke="var(--stroke-0, #0E228C)" stroke-width="1.80783"/>
</g>
</svg>
