<svg preserveAspectRatio="none" width="100%" height="100%" overflow="visible" style="display: block;" viewBox="0 0 463.449 263.383" fill="none" xmlns="http://www.w3.org/2000/svg">
<g id="Group 96">
<path id="Vector 120" d="M88.2363 32.842C88.2363 35.6497 144.03 57.176 144.03 57.176H266.326C266.326 57.176 141.212 3.82824 137.267 3.82842C133.322 3.8286 114.142 2.64202 103.453 9.44395C93.5262 15.7608 88.2363 30.0343 88.2363 32.842Z" fill="var(--fill-0, #A56E3D)" stroke="var(--stroke-0, #6B3204)" stroke-width="7.49851" stroke-linecap="round"/>
<g id="Vector 132">
<path d="M39.587 259.634L26.8417 259.634C21.2172 259.634 2.00249 244.167 3.87755 149.031C5.7526 53.8945 26.8417 57.6429 26.8417 57.6429H433.167C433.167 57.6429 456.132 52.4894 459.412 149.031C462.692 245.573 436.917 259.636 433.167 259.634C429.794 259.632 108.246 259.634 39.587 259.634Z" fill="var(--fill-0, #A56E3D)"/>
<path d="M26.8417 259.634C32.4662 259.634 429.417 259.632 433.167 259.634C436.917 259.636 462.692 245.573 459.412 149.031C456.132 52.4894 433.167 57.6429 433.167 57.6429H26.8417M26.8417 259.634C21.2172 259.634 2.00249 244.167 3.87755 149.031C5.75261 53.8945 26.8417 57.6429 26.8417 57.6429M26.8417 259.634C26.8417 259.634 49.8065 234.793 48.4005 149.031C46.9945 63.2685 26.8417 57.6429 26.8417 57.6429" stroke="var(--stroke-0, #6B3204)" stroke-width="7.49851"/>
</g>
<path id="Vector 133" d="M118.101 92.8028C118.57 78.7424 444.286 74.517 444.286 74.517C444.286 74.517 446.581 79.6224 447.567 82.9521C449.799 90.49 451.316 102.636 451.316 102.636C451.316 102.636 117.633 106.863 118.101 92.8028Z" fill="var(--fill-0, #A86838)"/>
<path id="Vector 134" d="M358.053 230.593C357.611 215.447 50.6782 210.895 50.6782 210.895C50.6782 210.895 48.5158 216.395 47.5868 219.982C45.4836 228.101 44.0538 241.185 44.0538 241.185C44.0538 241.185 358.495 245.738 358.053 230.593Z" fill="var(--fill-0, #A86838)"/>
<g id="Group 95">
<path id="Vector 50" d="M49.6776 111.072C49.6776 111.072 325.716 97.6892 315.406 110.811C305.095 123.933 52.4896 150.907 52.4896 150.907" stroke="var(--stroke-0, #8F562B)" stroke-width="2.81194"/>
<path id="Vector 51" d="M453.773 119.039C453.773 119.039 322.549 126.537 317.862 140.597C313.176 154.656 455.647 144.815 455.647 144.815" stroke="var(--stroke-0, #8F562B)" stroke-width="2.81194"/>
<path id="Vector 52" d="M44.0538 231.048C44.0538 231.048 247.541 227.555 255.256 216.242C262.971 204.928 48.7403 209.489 48.7403 209.489" stroke="var(--stroke-0, #8F562B)" stroke-width="2.81194"/>
<path id="Vector 53" d="M442.881 73.1104C442.881 73.1104 120.11 79.6709 102.77 87.1701C85.4291 94.6693 447.098 84.3581 447.098 84.3581" stroke="var(--stroke-0, #8F562B)" stroke-width="2.81194"/>
<path id="Vector 54" d="M455.066 168.716C455.066 168.716 136.982 175.277 119.641 182.776C102.301 190.275 455.066 179.964 455.066 179.964" stroke="var(--stroke-0, #8F562B)" stroke-width="2.81194"/>
<path id="Vector 55" d="M191.212 254.48C191.212 254.48 176.589 253.075 185.962 249.794C195.335 246.513 441.006 246.982 441.006 246.982" stroke="var(--stroke-0, #8F562B)" stroke-width="2.81194"/>
<path id="Vector 56" d="M48.7403 62.7999C48.7403 62.7999 160.749 74.985 173.872 72.173C186.994 69.3611 209.958 62.3313 209.958 62.3313" stroke="var(--stroke-0, #8F562B)" stroke-width="2.81194"/>
<path id="Vector 57" d="M50.615 195.898L453.66 200.116" stroke="var(--stroke-0, #8F562B)" stroke-width="2.81194"/>
<path id="Vector 58" d="M52.4896 163.561L455.534 157.469" stroke="var(--stroke-0, #8F562B)" stroke-width="2.81194"/>
<path id="Vector 59" d="M48.7403 99.3551L448.036 93.7312" stroke="var(--stroke-0, #8F562B)" stroke-width="2.81194"/>
<path id="Vector 60" d="M39.8359 244.17L444.755 239.015" stroke="var(--stroke-0, #8F562B)" stroke-width="2.81194"/>
</g>
<path id="Vector 135" d="M24.3703 164.03C24.3703 164.03 26.7136 173.403 30.4628 170.591C34.2121 167.779 33.2748 141.066 28.1195 141.066C22.9643 141.066 17.8089 155.125 17.8089 166.842C17.8089 178.558 22.9643 189.806 28.1195 189.337C33.2748 188.868 37.9611 174.34 37.9611 160.28C37.9611 146.221 34.6806 115.289 28.1195 115.289C21.5585 115.289 12.6536 148.564 12.6536 164.03C12.6536 179.495 19.6839 223.549 28.1195 224.486C36.5552 225.424 44.0537 185.588 43.5852 160.28C43.1167 134.973 37.4925 87.17 28.1195 87.17C18.7466 87.17 12.6536 120.913 10.3106 143.409C7.96752 165.904 11.7167 236.769 22.4957 239.015C33.2747 241.26 36.0866 224.486 36.0866 224.486" stroke="var(--stroke-0, #8F562B)" stroke-width="2.81194"/>
<path id="Vector 50_2" d="M92.794 28.8079C92.794 28.8079 144.539 48.8328 148.103 45.694C151.666 42.5552 98.6215 20.3732 98.6215 20.3732" stroke="var(--stroke-0, #8F562B)" stroke-width="2.81194"/>
<path id="Vector 51_2" d="M218.505 52.911C218.505 52.911 158.301 28.6454 151.061 28.441C143.821 28.2366 201.633 52.9112 201.633 52.9112" stroke="var(--stroke-0, #8F562B)" stroke-width="2.81194"/>
<path id="Vector 52_2" d="M103.712 14.9969L177.152 52.4894" stroke="var(--stroke-0, #8F562B)" stroke-width="2.81194"/>
<path id="Vector 136" d="M127.711 8.57919L233.391 52.4894" stroke="var(--stroke-0, #8F562B)" stroke-width="2.81194"/>
</g>
</svg>
