<svg preserveAspectRatio="none" width="100%" height="100%" overflow="visible" style="display: block;" viewBox="0 0 220.5 243.267" fill="none" xmlns="http://www.w3.org/2000/svg">
<g id="small mountain">
<path id="Vector 76" d="M0.823928 199C4.82384 192 16.3239 191.5 16.3239 191.5L145.324 196.5L167.324 229C167.324 229 136.324 242 127.324 242.5C118.324 243 80.8091 243.894 53.8239 233.5C30.7779 224.623 -3.17598 206 0.823928 199Z" fill="var(--fill-0, white)" stroke="var(--stroke-0, white)"/>
<path id="Vector 71" d="M150 24.5C155.5 21 220.5 0 220.5 0L199 232H112C108.5 232 40.0002 217.985 37.0002 216.5C34.0002 215.015 9.00023 200 9.00023 197C9.00023 194 74.0002 137 77.5002 133C81.0002 129 105 68 108 63C111 58 144.5 28 150 24.5Z" fill="var(--fill-0, #755848)"/>
</g>
</svg>
