<svg preserveAspectRatio="none" width="100%" height="100%" overflow="visible" style="display: block;" viewBox="0 0 646.752 244.025" fill="none" xmlns="http://www.w3.org/2000/svg">
<path id="Vector 88" d="M532 74C534.226 65.5 582 41.5 582 41.5L0 0V244C0 244 40.614 231.515 67.5 229C114.136 224.637 139.667 244.836 186.5 244C227.528 243.267 249.631 232.681 290.5 229C359.15 222.817 476.5 239 467 229C457.5 219 434.5 220 425.5 209C416.5 198 595.5 198.5 591.5 194C587.5 189.5 529.5 185.5 525.5 179.5C521.5 173.5 648.5 172.5 645.5 159C642.5 145.5 546 141.5 547 134.5C548 127.5 632.5 134.5 645.5 125.5C658.5 116.5 566 112.5 564.5 107.5C563 102.5 645.5 107.5 645.5 98.5C645.5 89.5 588 94 591.5 90C595 86 611.5 81 619.5 74C627.5 67 529.774 82.5 532 74Z" fill="var(--fill-0, #A5D3FF)"/>
</svg>
