<svg preserveAspectRatio="none" width="100%" height="100%" overflow="visible" style="display: block;" viewBox="0 0 1458 406.863" fill="none" xmlns="http://www.w3.org/2000/svg">
<g id="small hill">
<path id="hill" d="M643.437 172.158C961.821 131.32 1458 214.358 1458 214.358V406.863H0C0 406.863 389.889 204.68 643.437 172.158Z" fill="var(--fill-0, #8CB95B)"/>
<path id="Vector 106" d="M1181.9 3.86305C1181.9 3.86305 1148.63 122.401 1143.43 152.555C1138.23 182.71 1181.9 200.387 1181.9 200.387C1181.9 200.387 1227.65 181.67 1221.42 152.555C1215.18 123.441 1181.9 3.86305 1181.9 3.86305Z" fill="var(--fill-0, #1D4F2A)" stroke="var(--stroke-0, #1D4F2A)" stroke-width="2.07961"/>
<path id="Vector 107" d="M1135.08 68.8631C1135.08 68.8631 1111.92 151.389 1108.3 172.383C1104.68 193.377 1135.08 205.683 1135.08 205.683C1135.08 205.683 1166.94 192.653 1162.59 172.383C1158.25 152.113 1135.08 68.8631 1135.08 68.8631Z" fill="var(--fill-0, #2B743E)" stroke="var(--stroke-0, #2B743E)" stroke-width="1.44783"/>
<g id="Group 91">
<ellipse id="Ellipse 15" cx="8.78185" cy="8.47902" rx="8.78185" ry="8.47902" transform="matrix(-0.764786 -0.644285 -0.644285 0.764786 1071.29 177.664)" fill="var(--fill-0, #ECCC37)"/>
<ellipse id="Ellipse 16" cx="8.78185" cy="8.47902" rx="8.78185" ry="8.47902" transform="matrix(-0.764786 -0.644285 -0.644285 0.764786 1044.98 181.634)" fill="var(--fill-0, #ECCC37)"/>
<ellipse id="Ellipse 17" cx="8.78185" cy="8.47902" rx="8.78185" ry="8.47902" transform="matrix(-0.764786 -0.644285 -0.644285 0.764786 1055.91 168.665)" fill="var(--fill-0, #ECCC37)"/>
<ellipse id="Ellipse 18" cx="8.78185" cy="8.47902" rx="8.78185" ry="8.47902" transform="matrix(-0.764786 -0.644285 -0.644285 0.764786 1087.55 196.905)" fill="var(--fill-0, #ECCC37)"/>
<ellipse id="Ellipse 19" cx="8.78185" cy="8.47902" rx="8.78185" ry="8.47902" transform="matrix(-0.764786 -0.644285 -0.644285 0.764786 1062.32 188.318)" fill="var(--fill-0, #ECCC37)"/>
<ellipse id="Ellipse 20" cx="8.78185" cy="8.47902" rx="8.78185" ry="8.47902" transform="matrix(-0.764786 -0.644285 -0.644285 0.764786 1042.48 157.349)" fill="var(--fill-0, #ECCC37)"/>
<ellipse id="Ellipse 21" cx="8.78185" cy="8.47902" rx="8.78185" ry="8.47902" transform="matrix(-0.764786 -0.644285 -0.644285 0.764786 1026.55 162.149)" fill="var(--fill-0, #ECCC37)"/>
<ellipse id="Ellipse 22" cx="8.78185" cy="8.47902" rx="8.78185" ry="8.47902" transform="matrix(-0.764786 -0.644285 -0.644285 0.764786 1077.5 205.071)" fill="var(--fill-0, #ECCC37)"/>
<ellipse id="Ellipse 23" cx="8.78185" cy="8.47902" rx="8.78185" ry="8.47902" transform="matrix(-0.764786 -0.644285 -0.644285 0.764786 1027.16 179.29)" fill="var(--fill-0, #ECCC37)"/>
</g>
<g id="Group 94">
<ellipse id="Ellipse 15_2" cx="8.78185" cy="8.47902" rx="8.78185" ry="8.47902" transform="matrix(-0.955301 -0.295636 -0.295636 0.955301 1202.8 186.126)" fill="var(--fill-0, #ECCC37)"/>
<ellipse id="Ellipse 16_2" cx="8.78185" cy="8.47902" rx="8.78185" ry="8.47902" transform="matrix(-0.955301 -0.295636 -0.295636 0.955301 1180.11 200.028)" fill="var(--fill-0, #ECCC37)"/>
<ellipse id="Ellipse 17_2" cx="8.78185" cy="8.47902" rx="8.78185" ry="8.47902" transform="matrix(-0.955301 -0.295636 -0.295636 0.955301 1185.13 183.827)" fill="var(--fill-0, #ECCC37)"/>
<ellipse id="Ellipse 18_2" cx="8.78185" cy="8.47902" rx="8.78185" ry="8.47902" transform="matrix(-0.955301 -0.295636 -0.295636 0.955301 1225.27 197.517)" fill="var(--fill-0, #ECCC37)"/>
<ellipse id="Ellipse 19_2" cx="8.78185" cy="8.47902" rx="8.78185" ry="8.47902" transform="matrix(-0.955301 -0.295636 -0.295636 0.955301 1198.68 199.434)" fill="var(--fill-0, #ECCC37)"/>
<ellipse id="Ellipse 20_2" cx="8.78185" cy="8.47902" rx="8.78185" ry="8.47902" transform="matrix(-0.955301 -0.295636 -0.295636 0.955301 1168.35 178.635)" fill="var(--fill-0, #ECCC37)"/>
<ellipse id="Ellipse 21_2" cx="8.78185" cy="8.47902" rx="8.78185" ry="8.47902" transform="matrix(-0.955301 -0.295636 -0.295636 0.955301 1155.55 189.256)" fill="var(--fill-0, #ECCC37)"/>
<ellipse id="Ellipse 22_2" cx="8.78185" cy="8.47902" rx="8.78185" ry="8.47902" transform="matrix(-0.955301 -0.295636 -0.295636 0.955301 1219.2 208.951)" fill="var(--fill-0, #ECCC37)"/>
<ellipse id="Ellipse 23_2" cx="8.78185" cy="8.47902" rx="8.78185" ry="8.47902" transform="matrix(-0.955301 -0.295636 -0.295636 0.955301 1162.79 204.808)" fill="var(--fill-0, #ECCC37)"/>
</g>
<g id="Group 92">
<ellipse id="Ellipse 15_3" cx="8.78185" cy="8.47902" rx="8.78185" ry="8.47902" transform="matrix(-0.932805 -0.360383 -0.360383 0.932805 1153.43 195.126)" fill="var(--fill-0, #16628F)"/>
<ellipse id="Ellipse 16_3" cx="8.78185" cy="8.47902" rx="8.78185" ry="8.47902" transform="matrix(-0.932805 -0.360383 -0.360383 0.932805 1129.84 207.439)" fill="var(--fill-0, #16628F)"/>
<ellipse id="Ellipse 17_3" cx="8.78185" cy="8.47902" rx="8.78185" ry="8.47902" transform="matrix(-0.932805 -0.360383 -0.360383 0.932805 1135.96 191.621)" fill="var(--fill-0, #16628F)"/>
<ellipse id="Ellipse 19_3" cx="8.78185" cy="8.47902" rx="8.78185" ry="8.47902" transform="matrix(-0.932805 -0.360383 -0.360383 0.932805 1148.41 208.121)" fill="var(--fill-0, #16628F)"/>
<ellipse id="Ellipse 20_3" cx="8.78185" cy="8.47902" rx="8.78185" ry="8.47902" transform="matrix(-0.932805 -0.360383 -0.360383 0.932805 1119.57 185.291)" fill="var(--fill-0, #16628F)"/>
<ellipse id="Ellipse 21_3" cx="8.78185" cy="8.47902" rx="8.78185" ry="8.47902" transform="matrix(-0.932805 -0.360383 -0.360383 0.932805 1106.08 195.011)" fill="var(--fill-0, #16628F)"/>
<ellipse id="Ellipse 23_3" cx="8.78185" cy="8.47902" rx="8.78185" ry="8.47902" transform="matrix(-0.932805 -0.360383 -0.360383 0.932805 1112.23 211.023)" fill="var(--fill-0, #16628F)"/>
</g>
<g id="Group 93">
<ellipse id="Ellipse 15_4" cx="1063.29" cy="157.342" rx="8.78185" ry="8.47902" fill="var(--fill-0, #D0521C)"/>
<ellipse id="Ellipse 16_4" cx="1080.85" cy="177.328" rx="8.78185" ry="8.47902" fill="var(--fill-0, #D0521C)"/>
<ellipse id="Ellipse 17_4" cx="1080.85" cy="160.37" rx="8.78185" ry="8.47902" fill="var(--fill-0, #D0521C)"/>
<ellipse id="Ellipse 18_3" cx="1038.46" cy="161.582" rx="8.78185" ry="8.47902" fill="var(--fill-0, #D0521C)"/>
<ellipse id="Ellipse 19_4" cx="1063.29" cy="171.271" rx="8.78185" ry="8.47902" fill="var(--fill-0, #D0521C)"/>
<ellipse id="Ellipse 20_4" cx="1098.42" cy="160.37" rx="8.78185" ry="8.47902" fill="var(--fill-0, #D0521C)"/>
<ellipse id="Ellipse 21_4" cx="1107.5" cy="174.3" rx="8.78185" ry="8.47902" fill="var(--fill-0, #D0521C)"/>
<ellipse id="Ellipse 22_3" cx="1040.88" cy="174.3" rx="8.78185" ry="8.47902" fill="var(--fill-0, #D0521C)"/>
<ellipse id="Ellipse 23_4" cx="1095.99" cy="187.019" rx="8.78185" ry="8.47902" fill="var(--fill-0, #D0521C)"/>
</g>
<ellipse id="Ellipse 22_4" cx="8.78185" cy="8.47902" rx="8.78185" ry="8.47902" transform="matrix(-0.667293 -0.744795 -0.744795 0.667293 1205.87 227.854)" fill="var(--fill-0, #ECCC37)"/>
<ellipse id="Ellipse 18_4" cx="8.78185" cy="8.47902" rx="8.78185" ry="8.47902" transform="matrix(-0.667293 -0.744795 -0.744795 0.667293 1193.35 223.944)" fill="var(--fill-0, #ECCC37)"/>
</g>
</svg>
