<svg preserveAspectRatio="none" width="100%" height="100%" overflow="visible" style="display: block;" viewBox="0 0 1087 518.469" fill="none" xmlns="http://www.w3.org/2000/svg">
<g id="light green mountain">
<path id="Vector 73" d="M947.501 464.358C971.001 473.358 1087 515.358 1087 515.358L50.0005 493.358L6.00055 73.8576C6.00055 73.8576 96.6318 98.0557 153.501 117.358C246.592 148.954 296.612 172.943 386.001 213.858C466.911 250.891 510.579 275.231 590.001 315.358C671.687 356.629 712.655 390.631 798.501 422.358C855.207 443.315 924.001 455.358 947.501 464.358Z" fill="var(--fill-0, #5CB479)"/>
<path id="Vector 89" d="M830 347.858C830 347.858 814 404.858 811.5 419.358C809 433.858 830 442.358 830 442.358C830 442.358 852 433.358 849 419.358C846.001 405.358 830 347.858 830 347.858Z" fill="var(--fill-0, #5CB479)" stroke="var(--stroke-0, #5CB479)"/>
<path id="Vector 96" d="M19.2073 1.85758C19.2073 1.85758 3.20727 58.8576 0.707276 73.3576C-1.79272 87.8576 19.2073 96.3576 19.2073 96.3576C19.2073 96.3576 41.2072 87.3576 38.2073 73.3576C35.2073 59.3576 19.2073 1.85758 19.2073 1.85758Z" fill="var(--fill-0, #5CB479)" stroke="var(--stroke-0, #5CB479)"/>
<path id="Vector 97" d="M52.2073 20.8576C52.2073 20.8576 36.2073 77.8576 33.7073 92.3576C31.2073 106.858 52.2073 115.358 52.2073 115.358C52.2073 115.358 74.2072 106.358 71.2073 92.3576C68.2073 78.3576 52.2073 20.8576 52.2073 20.8576Z" fill="var(--fill-0, #5CB479)" stroke="var(--stroke-0, #5CB479)"/>
<path id="Vector 90" d="M869.207 389.858C869.207 389.858 853.207 446.858 850.707 461.358C848.207 475.858 869.207 484.358 869.207 484.358C869.207 484.358 891.207 475.358 888.207 461.358C885.207 447.358 869.207 389.858 869.207 389.858Z" fill="var(--fill-0, #5CB479)" stroke="var(--stroke-0, #5CB479)"/>
<path id="Vector 91" d="M900.327 381.858C900.327 381.858 885.935 433.127 883.686 446.17C881.438 459.212 900.327 466.858 900.327 466.858C900.327 466.858 920.115 458.762 917.417 446.17C914.718 433.577 900.327 381.858 900.327 381.858Z" fill="var(--fill-0, #5CB479)" stroke="var(--stroke-0, #5CB479)" stroke-width="0.899471"/>
<path id="Vector 92" d="M940.327 381.858C940.327 381.858 925.935 433.127 923.686 446.17C921.438 459.212 940.327 466.858 940.327 466.858C940.327 466.858 960.115 458.762 957.417 446.17C954.718 433.577 940.327 381.858 940.327 381.858Z" fill="var(--fill-0, #5CB479)" stroke="var(--stroke-0, #5CB479)" stroke-width="0.899471"/>
<path id="Vector 93" d="M730.327 339.858C730.327 339.858 715.935 391.127 713.686 404.17C711.438 417.212 730.327 424.858 730.327 424.858C730.327 424.858 750.115 416.762 747.417 404.17C744.718 391.577 730.327 339.858 730.327 339.858Z" fill="var(--fill-0, #5CB479)" stroke="var(--stroke-0, #5CB479)" stroke-width="0.899471"/>
<path id="Vector 94" d="M688.327 313.858C688.327 313.858 673.935 365.127 671.686 378.17C669.438 391.212 688.327 398.858 688.327 398.858C688.327 398.858 708.115 390.762 705.417 378.17C702.718 365.577 688.327 313.858 688.327 313.858Z" fill="var(--fill-0, #5CB479)" stroke="var(--stroke-0, #5CB479)" stroke-width="0.899471"/>
<path id="Vector 95" d="M661.327 291.858C661.327 291.858 646.935 343.127 644.686 356.17C642.438 369.212 661.327 376.858 661.327 376.858C661.327 376.858 681.115 368.762 678.417 356.17C675.718 343.577 661.327 291.858 661.327 291.858Z" fill="var(--fill-0, #5CB479)" stroke="var(--stroke-0, #5CB479)" stroke-width="0.899471"/>
<path id="Vector 72" d="M958.501 512.858C954.001 524.358 471.501 512.858 471.501 512.858H148.501V230.858L286.501 270.358C286.501 270.358 376.001 299.358 378.001 311.358C380.001 323.358 359.001 324.358 352.001 352.358C345.001 380.358 458.474 403.475 531.001 423.358C591.064 439.823 671.501 428.358 688.001 451.358C704.501 474.358 690.501 474.858 704.501 486.858C718.501 498.858 963.001 501.358 958.501 512.858Z" fill="var(--fill-0, #459863)" stroke="var(--stroke-0, #459863)"/>
</g>
</svg>
