<svg preserveAspectRatio="none" width="100%" height="100%" overflow="visible" style="display: block;" viewBox="0 0 985.547 177" fill="none" xmlns="http://www.w3.org/2000/svg">
<path id="Vector 87" d="M189.548 17C196.048 15.0005 198.048 0 198.048 0H259.548L985.547 116V177C985.547 177 905.492 156.488 853.047 151C750.244 140.242 692.41 169.257 589.047 170C527.12 170.445 492.447 166.903 430.548 165C358.498 162.785 227.547 165 246.048 159.5C264.548 154 287.048 158.5 310.548 151C334.047 143.5 143.548 146 165.048 140.5C186.547 135 225.548 137.5 231.048 132C236.547 126.5 35.8209 133.315 89.5475 119.5C116.308 112.619 155.048 119.501 160.048 113.5C165.048 107.5 65.0477 101 67.5475 91.5C70.0474 82 146.048 88.0005 153.048 82C160.048 75.9995 23.0474 72.9995 28.5475 67.5C34.0477 62.0005 100.048 57.5005 105.048 52.5C110.047 47.4995 3.04754 53.0005 0.0475342 43.5C-2.95247 33.9995 137.048 36.9995 137.548 31C138.048 25.0005 13.0475 28 11.0475 22.5C9.04753 17 183.048 18.9995 189.548 17Z" fill="var(--fill-0, #A5D3FF)"/>
</svg>
