<svg preserveAspectRatio="none" width="100%" height="100%" overflow="visible" style="display: block;" viewBox="0 0 669.5 740.5" fill="none" xmlns="http://www.w3.org/2000/svg">
<g id="right mountain">
<path id="Vector 68" d="M328.5 168.5C343.5 146 669.5 0 669.5 0V740.5C669.5 740.5 553.5 719.5 538 713.5C522.5 707.5 261.5 729 246.5 729C231.5 729 0 699 0 699C0 699 34.5002 523 38.0002 512.5C41.5002 502 101 379 109.5 372C118 365 235.5 293 246.5 278C257.5 263 313.5 191 328.5 168.5Z" fill="var(--fill-0, #AA866B)"/>
<path id="Vector 121" d="M347.5 185.5L668.5 41V0.5C668.5 0.5 371.5 134.5 331 165.5C290.5 196.5 245.5 279.5 245.5 279.5C245.5 279.5 116 368 108.5 372.5C101 377 37 516 37 516L113.5 378.5L261.5 292.5L347.5 185.5Z" fill="var(--fill-0, #B89978)"/>
<path id="Vector 122" d="M389 316L668.5 152L668 740L535 711.5L246 728.5L0.5 698L18 620L188.5 546.5L321 408.5L389 316Z" fill="var(--fill-0, #A37E68)"/>
</g>
</svg>
