<svg preserveAspectRatio="none" width="100%" height="100%" overflow="visible" style="display: block;" viewBox="0 0 430.696 286.035" fill="none" xmlns="http://www.w3.org/2000/svg">
<g id="small mountain">
<path id="Vector 36" d="M328.727 2.45039C376.265 -22.6404 430.696 286.035 430.696 286.035L0 277.574C0 277.574 281.189 27.5412 328.727 2.45039Z" fill="var(--fill-0, #066172)"/>
<path id="Vector 37" d="M347.945 57.5753C364.06 53.888 384.609 82.4167 384.609 82.4167C384.609 82.4167 364.134 9.91425 339.613 1.53747C315.091 -6.83931 256.762 57.5753 256.762 57.5753C256.762 57.5753 275.514 71.8953 283.903 72.5957C293.225 73.374 295.06 56.7182 304.377 57.5753C315.266 58.5769 312.589 80.7539 323.423 82.4167C335.8 84.3164 335.686 60.3802 347.945 57.5753Z" fill="var(--fill-0, white)" stroke="var(--stroke-0, white)" stroke-width="1.57188"/>
</g>
</svg>
