<svg preserveAspectRatio="none" width="100%" height="100%" overflow="visible" style="display: block;" viewBox="0 0 36 36" fill="none" xmlns="http://www.w3.org/2000/svg">
<g id="Frame" clip-path="url(#clip0_0_4)">
<g id="Vector">
</g>
<path id="Vector_2" d="M13.8125 32.175C12.2125 31.625 10.7625 30.875 9.4625 29.925C8.1625 28.975 7.094 27.8625 6.257 26.5875C5.42 25.3125 5.001 23.95 5 22.5V19.5C5 19.2 5.1375 18.975 5.4125 18.825C5.6875 18.675 5.95 18.7 6.2 18.9L9.6125 21.45C9.9625 21.725 10.156 22.094 10.193 22.557C10.23 23.02 10.0865 23.4135 9.7625 23.7375L8.675 24.825C9.4 26.1 10.55 27.2 12.125 28.125C13.7 29.05 15.325 29.6375 17 29.8875V16.5H14C13.575 16.5 13.219 16.356 12.932 16.068C12.645 15.78 12.501 15.424 12.5 15C12.499 14.576 12.643 14.22 12.932 13.932C13.221 13.644 13.577 13.5 14 13.5H17V11.7375C16.125 11.4125 15.4065 10.8685 14.8445 10.1055C14.2825 9.3425 14.001 8.474 14 7.5C14 6.25 14.4375 5.1875 15.3125 4.3125C16.1875 3.4375 17.25 3 18.5 3C19.75 3 20.8125 3.4375 21.6875 4.3125C22.5625 5.1875 23 6.25 23 7.5C23 8.475 22.719 9.344 22.157 10.107C21.595 10.87 20.876 11.4135 20 11.7375V13.5H23C23.425 13.5 23.7815 13.644 24.0695 13.932C24.3575 14.22 24.501 14.576 24.5 15C24.499 15.424 24.355 15.7805 24.068 16.0695C23.781 16.3585 23.425 16.502 23 16.5H20V29.8875C21.675 29.6375 23.3 29.05 24.875 28.125C26.45 27.2 27.6 26.1 28.325 24.825L27.2375 23.7375C26.9125 23.4125 26.7685 23.019 26.8055 22.557C26.8425 22.095 27.0365 21.726 27.3875 21.45L30.8 18.9C31.05 18.7 31.3125 18.675 31.5875 18.825C31.8625 18.975 32 19.2 32 19.5V22.5C32 23.95 31.581 25.3125 30.743 26.5875C29.905 27.8625 28.8365 28.975 27.5375 29.925C26.2385 30.875 24.7885 31.625 23.1875 32.175C21.5865 32.725 20.024 33 18.5 33C16.976 33 15.4135 32.725 13.8125 32.175ZM18.5 9C18.925 9 19.2815 8.8565 19.5695 8.5695C19.8575 8.2825 20.001 7.926 20 7.5C19.999 7.074 19.855 6.718 19.568 6.432C19.281 6.146 18.925 6.002 18.5 6C18.075 5.998 17.719 6.142 17.432 6.432C17.145 6.722 17.001 7.078 17 7.5C16.999 7.922 17.143 8.2785 17.432 8.5695C17.721 8.8605 18.077 9.004 18.5 9Z" fill="var(--fill-0, #03506D)"/>
</g>
<defs>
<clipPath id="clip0_0_4">
<rect width="36" height="36" fill="white"/>
</clipPath>
</defs>
</svg>
