<svg preserveAspectRatio="none" width="100%" height="100%" overflow="visible" style="display: block;" viewBox="0 0 949.418 513.105" fill="none" xmlns="http://www.w3.org/2000/svg">
<g id="big mountain">
<path id="Vector 34" d="M224.78 3.81403C119.987 -41.2467 0 513.105 0 513.105L949.418 497.91C949.418 497.91 329.572 48.8748 224.78 3.81403Z" fill="var(--fill-0, #03506D)"/>
<path id="Vector 35" d="M184.703 103.798C149.236 97.1092 104.013 148.858 104.013 148.858C104.013 148.858 149.074 17.3438 203.042 2.14896C257.01 -13.0459 385.38 103.798 385.38 103.798C385.38 103.798 344.112 129.773 325.649 131.044C305.133 132.455 301.093 102.243 280.588 103.798C256.623 105.614 262.515 145.842 238.671 148.858C211.432 152.304 211.684 108.886 184.703 103.798Z" fill="var(--fill-0, white)" stroke="var(--stroke-0, white)" stroke-width="1.57188"/>
</g>
</svg>
