<svg preserveAspectRatio="none" width="100%" height="100%" overflow="visible" style="display: block;" viewBox="0 0 211.992 204.752" fill="none" xmlns="http://www.w3.org/2000/svg">
<g id="ey boat">
<path id="Vector 130" d="M200.903 164.762C199.17 160.802 176.95 165.974 176.95 165.974L23.7266 166.3C23.7266 166.3 14.1561 167.163 13.2221 171.106C12.288 175.05 14.2507 180.651 17.597 182.895C20.9433 185.14 51.2502 189.19 59.3549 190.056C67.4596 190.923 164.678 187.304 171.89 182.145C179.102 176.986 202.636 168.721 200.903 164.762Z" fill="var(--fill-0, #65A7E6)"/>
<path id="Vector 61" d="M69.6111 103.675C69.6372 71.0195 60.3459 20.5696 60.3459 20.5696C60.3459 20.5696 122.395 -0.206629 151.875 29.8347C181.355 59.8761 210.554 141.859 210.554 141.859C210.554 141.859 190.289 133.237 176.582 130.348C134.021 121.377 66.8035 149.159 66.8035 149.159C66.8035 149.159 69.5969 121.472 69.6111 103.675Z" fill="var(--fill-0, #E2F3FE)" stroke="var(--stroke-0, #E2F3FE)" stroke-width="1.68458"/>
<path id="Vector 62" d="M51.923 81.4947C48.4343 107.827 61.1882 148.878 61.1882 148.878L9.24702 136.243C9.24702 136.243 13.6242 123.074 17.1084 114.906C29.4096 86.066 61.1882 47.8031 61.1882 47.8031C61.1882 47.8031 53.7153 67.9671 51.923 81.4947Z" fill="var(--fill-0, #E2F3FE)" stroke="var(--stroke-0, #E2F3FE)" stroke-width="1.68458"/>
<path id="Vector 63" d="M57.8191 0.915642L59.2229 17.1999C59.2229 17.1999 53.6076 16.3576 49.3962 16.3576C43.6276 16.3576 40.2267 16.0712 35.358 19.1652C30.6349 22.1668 30.8894 25.6867 26.3736 28.992C22.0927 32.1253 18.75 32.8245 13.4585 33.2034C8.24444 33.5768 0.262644 30.9573 0.262644 30.9573C0.262644 30.9573 7.57983 32.0447 12.0547 30.9573C16.4862 29.8805 19.039 28.6578 22.4429 25.6228C27.1656 21.4121 25.7624 15.981 30.0235 11.3039C37.8278 2.73776 57.8191 0.915642 57.8191 0.915642Z" fill="var(--fill-0, #F3DB00)" stroke="var(--stroke-0, #F3DB00)" stroke-width="1.68458"/>
<path id="Vector 64" d="M57.5382 175.27C55.0113 174.988 14.3007 165.724 13.4584 164.32C12.6161 162.915 12.0546 150.282 12.3354 149.439C12.6162 148.597 23.2851 152.809 23.2851 152.809V149.439C23.2851 148.878 63.1535 150.562 64.8381 150.843C66.5226 151.124 72.9802 154.493 75.7878 154.774C78.5954 155.055 201.851 143.824 203.535 144.105C205.22 144.386 186.97 147.755 185.847 148.036C184.724 148.316 166.194 171.059 164.228 171.62C162.263 172.181 60.0651 175.551 57.5382 175.27Z" fill="var(--fill-0, #F3DB00)" stroke="var(--stroke-0, #F3DB00)" stroke-width="1.68458"/>
<g id="Group 4">
<path id="Vector" d="M82.4921 83.1786C89.2825 82.348 96.0729 81.5175 103.069 80.6617C103.432 81.1529 103.795 81.644 104.168 82.15C104.362 82.4076 104.556 82.6648 104.752 82.9209C104.851 83.0506 104.95 83.1802 105.049 83.3099C105.098 83.3742 105.147 83.4385 105.197 83.5047C105.443 83.8275 105.689 84.1508 105.934 84.4741C106.032 84.603 106.13 84.732 106.228 84.8609C106.426 85.1208 106.623 85.3807 106.82 85.6407C106.919 85.771 107.018 85.9013 107.117 86.0316C107.165 86.0948 107.213 86.158 107.262 86.2232C107.512 86.552 107.763 86.8797 108.016 87.206C108.067 87.2714 108.118 87.3369 108.17 87.4043C108.267 87.5294 108.364 87.6544 108.462 87.7791C108.505 87.8346 108.548 87.8902 108.592 87.9475C108.63 87.9963 108.668 88.0452 108.708 88.0955C108.791 88.2169 108.791 88.2169 108.808 88.356C104.059 88.9368 99.3107 89.5177 94.4181 90.1161C94.6538 92.0431 94.8896 93.9701 95.1324 95.9555C99.4223 95.4308 103.712 94.9061 108.132 94.3654C108.435 96.843 108.738 99.3206 109.05 101.873C104.76 102.398 100.471 102.923 96.0507 103.463C96.2864 105.39 96.5222 107.317 96.765 109.303C102.707 108.576 108.648 107.849 114.77 107.1C115.104 109.83 115.438 112.56 115.782 115.373C106.238 116.54 96.6952 117.708 86.8628 118.91C85.4205 107.119 83.9781 95.3274 82.4921 83.1786Z" fill="var(--fill-0, #151C22)"/>
<path id="Vector_2" d="M106.336 80.2623C110.305 79.7768 114.274 79.2914 118.363 78.7912C119.529 80.4211 119.529 80.4211 120.037 81.1742C120.192 81.4042 120.348 81.6338 120.504 81.8634C120.534 81.9079 120.564 81.9523 120.595 81.9982C120.893 82.4376 121.195 82.8739 121.499 83.3097C121.74 83.6562 121.979 84.0043 122.218 84.3523C122.532 84.8084 122.846 85.264 123.161 85.7186C123.477 86.1732 123.791 86.6288 124.105 87.0849C124.433 87.5624 124.761 88.0398 125.091 88.5165C125.142 88.5905 125.142 88.5905 125.194 88.666C125.395 88.9559 125.601 89.2403 125.814 89.5217C126.194 88.5797 126.559 87.6326 126.91 86.6793C127.122 86.1057 127.339 85.5349 127.568 84.9679C127.888 84.1742 128.18 83.3706 128.474 82.5668C128.721 81.8902 128.972 81.216 129.241 80.5475C129.666 79.4766 130.059 78.3927 130.459 77.3117C134.382 76.8318 138.304 76.352 142.346 75.8576C142.274 76.1298 142.199 76.3575 142.089 76.6131C142.057 76.6892 142.024 76.7654 141.991 76.8438C141.956 76.9256 141.92 77.0073 141.884 77.0916C141.847 77.1781 141.81 77.2647 141.773 77.3513C141.715 77.4857 141.658 77.6201 141.6 77.7545C141.473 78.0508 141.347 78.3474 141.222 78.6443C140.839 79.5498 140.45 80.4518 140.054 81.3513C139.765 82.0082 139.483 82.6677 139.203 83.3286C138.975 83.8675 138.746 84.4057 138.514 84.9431C138.467 85.053 138.467 85.053 138.418 85.1652C138.291 85.4595 138.165 85.7538 138.038 86.048C137.942 86.2694 137.847 86.4907 137.751 86.7121C137.72 86.7856 137.688 86.8592 137.655 86.9349C137.421 87.4786 137.19 88.0234 136.96 88.5685C136.642 89.3181 136.317 90.0641 135.989 90.8091C135.7 91.4661 135.418 92.1258 135.139 92.7867C134.912 93.3226 134.683 93.8575 134.453 94.3917C134.155 95.0822 133.86 95.7738 133.567 96.4663C133.537 96.5386 133.506 96.6109 133.475 96.6855C133.428 96.8023 133.428 96.8023 133.381 96.9215C133.287 97.1446 133.173 97.3433 133.046 97.549C132.21 99.0045 132.518 100.449 132.734 102.04C132.786 102.431 132.832 102.822 132.88 103.213C132.969 103.951 133.064 104.689 133.16 105.426C133.29 106.424 133.413 107.422 133.535 108.421C133.729 109.991 133.932 111.559 134.134 113.128C130.555 113.566 126.977 114.004 123.29 114.455C123.175 113.452 123.06 112.449 122.942 111.416C122.867 110.778 122.791 110.14 122.714 109.502C122.592 108.491 122.471 107.48 122.357 106.469C122.275 105.731 122.188 104.995 122.097 104.259C122.049 103.87 122.003 103.481 121.961 103.091C121.774 101.336 121.59 100.006 120.313 98.7202C120.011 98.4007 119.76 98.0434 119.501 97.6891C119.397 97.5495 119.292 97.41 119.188 97.2708C119.136 97.2027 119.085 97.1346 119.033 97.0645C118.785 96.7349 118.535 96.4065 118.286 96.0783C118.237 96.0147 118.189 95.9512 118.139 95.8858C117.994 95.6944 117.848 95.5031 117.702 95.3117C117.508 95.0563 117.314 94.8008 117.119 94.5452C117.071 94.4815 117.022 94.4178 116.972 94.3521C116.614 93.8809 116.259 93.4078 115.903 92.9344C115.47 92.3569 115.032 91.7832 114.59 91.212C114.095 90.5715 113.605 89.9271 113.119 89.2794C112.77 88.8139 112.419 88.3499 112.067 87.887C111.661 87.3544 111.258 86.8199 110.857 86.2844C110.423 85.7069 109.985 85.1332 109.544 84.562C109.049 83.9226 108.56 83.2794 108.075 82.6326C107.809 82.277 107.541 81.9222 107.271 81.569C107.19 81.4621 107.19 81.4621 107.106 81.353C107.002 81.217 106.898 81.0811 106.794 80.9453C106.748 80.8847 106.702 80.8241 106.654 80.7617C106.613 80.7085 106.572 80.6554 106.53 80.6006C106.431 80.4623 106.431 80.4623 106.336 80.2623Z" fill="var(--fill-0, #151C22)"/>
<path id="Vector_3" d="M148.63 38.399C149.169 42.8035 149.707 47.2081 150.262 51.7462C144.266 53.574 144.266 53.574 142.411 54.1389C142.312 54.1689 142.312 54.1689 142.212 54.1996C138.893 55.2102 135.573 56.2181 132.253 57.2256C132.106 57.2701 131.959 57.3146 131.813 57.3591C131.74 57.3813 131.667 57.4034 131.591 57.4262C131.482 57.4595 131.482 57.4595 131.37 57.4935C131.296 57.5157 131.223 57.538 131.148 57.5609C130.324 57.8108 129.501 58.0607 128.677 58.3106C128.603 58.3333 128.528 58.3559 128.451 58.3793C124.917 59.4518 121.384 60.5256 117.85 61.5997C117.463 61.7175 117.075 61.8353 116.688 61.9531C116.611 61.9764 116.534 61.9998 116.455 62.0238C116.223 62.0944 115.991 62.165 115.758 62.2357C115.682 62.2589 115.605 62.2822 115.526 62.3062C115.14 62.4235 114.755 62.5408 114.369 62.6581C114.061 62.7516 113.753 62.8451 113.446 62.9386C111.226 63.6134 109.006 64.2881 106.786 64.9626C106.715 64.9841 106.644 65.0056 106.571 65.0278C105.025 65.4976 103.478 65.9675 101.932 66.4373C101.378 66.6056 100.823 66.774 100.269 66.9424C100.131 66.9845 99.9919 67.0266 99.8533 67.0687C97.7638 67.7035 95.6745 68.3385 93.5852 68.9737C93.0307 69.1423 92.4761 69.3109 91.9215 69.4795C91.844 69.5031 91.7664 69.5267 91.6866 69.5509C91.2985 69.6689 90.9105 69.7868 90.5225 69.9048C89.6996 70.1549 88.8767 70.4051 88.0539 70.6554C87.4952 70.8253 86.9364 70.9952 86.3777 71.165C86.0571 71.2624 85.7365 71.3599 85.416 71.4574C83.8128 71.9453 82.2075 72.4256 80.5994 72.8969C80.5938 72.851 80.5882 72.8051 80.5824 72.7578C80.6539 72.7223 80.7254 72.6867 80.7991 72.6501C82.3298 71.8887 83.8573 71.1213 85.3806 70.3453C86.5601 69.7444 87.7404 69.1452 88.9225 68.5494C89.1964 68.4114 89.4703 68.2733 89.7442 68.1353C89.8112 68.1015 89.8782 68.0677 89.9472 68.0329C90.6735 67.6667 91.3991 67.2994 92.1246 66.9318C92.1887 66.8993 92.2528 66.8669 92.3189 66.8334C92.6414 66.67 92.9639 66.5066 93.2864 66.3432C93.9358 66.0141 94.5853 65.6852 95.2348 65.3563C95.4963 65.2239 95.7577 65.0915 96.0192 64.9591C96.0838 64.9264 96.1484 64.8937 96.2149 64.86C96.5959 64.6671 96.9769 64.4741 97.3578 64.2811C97.6717 64.122 97.9855 63.963 98.2994 63.804C98.3625 63.7721 98.4256 63.7401 98.4906 63.7072C99.2895 63.3025 100.089 62.8983 100.888 62.4946C100.972 62.4521 101.057 62.4096 101.141 62.3671C101.204 62.3353 101.204 62.3353 101.268 62.3028C101.483 62.1944 101.698 62.0859 101.912 61.9774C101.955 61.9558 101.998 61.9341 102.042 61.9118C103.296 61.279 104.548 60.6441 105.799 60.0071C107.074 59.3579 108.35 58.711 109.627 58.066C109.691 58.0341 109.691 58.0341 109.755 58.0015C110.439 57.6559 111.124 57.3105 111.808 56.9651C112.449 56.6415 113.09 56.3179 113.731 55.9941C113.773 55.9729 113.815 55.9516 113.859 55.9297C115.093 55.3061 116.327 54.6805 117.559 54.053C118.834 53.4038 120.111 52.7568 121.388 52.1118C121.43 52.0906 121.472 52.0693 121.515 52.0474C122.2 51.7018 122.884 51.3564 123.568 51.0109C124.209 50.6874 124.85 50.3637 125.491 50.04C125.533 50.0187 125.575 49.9975 125.619 49.9756C126.853 49.352 128.087 48.7264 129.32 48.0989C130.595 47.4497 131.871 46.8027 133.148 46.1577C133.19 46.1364 133.232 46.1152 133.276 46.0933C133.96 45.7477 134.644 45.4022 135.328 45.0568C135.969 44.7332 136.61 44.4096 137.251 44.0859C137.294 44.0646 137.336 44.0433 137.379 44.0214C138.688 43.3604 139.995 42.6969 141.302 42.0316C142.725 41.307 144.15 40.5863 145.576 39.8667C145.657 39.826 145.737 39.7853 145.82 39.7433C145.977 39.6641 146.135 39.5849 146.292 39.5057C146.66 39.3198 147.028 39.133 147.395 38.944C147.497 38.8917 147.497 38.8917 147.601 38.8384C147.727 38.7733 147.853 38.708 147.98 38.6423C148.035 38.6138 148.091 38.5853 148.148 38.556C148.22 38.5186 148.22 38.5186 148.293 38.4804C148.421 38.4245 148.421 38.4245 148.63 38.399Z" fill="var(--fill-0, #FFE600)"/>
</g>
</g>
</svg>
