<svg preserveAspectRatio="none" width="100%" height="100%" overflow="visible" style="display: block;" viewBox="0 0 720.037 301.821" fill="none" xmlns="http://www.w3.org/2000/svg">
<g id="beach house">
<path id="Vector 27" d="M652.272 188.525C790.243 131.716 1.42801 116.878 1.42801 116.878L76.2894 247.765C76.2894 247.765 514.301 245.335 652.272 188.525Z" fill="var(--fill-0, #37772B)" stroke="var(--stroke-0, #458739)" stroke-width="1.63874"/>
<path id="Vector 166" d="M287.314 210.14C299.322 210.14 473.838 179.319 473.838 179.319L287.314 140.093C287.314 140.093 168.835 150.1 159.629 156.504C150.423 162.908 275.306 210.14 287.314 210.14Z" fill="var(--fill-0, #1C3E25)" stroke="var(--stroke-0, #1C3E25)" stroke-width="0.800532"/>
<path id="Polygon 7" d="M245.919 0L282.244 141.564H209.594L245.919 0Z" fill="var(--fill-0, #1D4F2A)"/>
<path id="Polygon 9" d="M176.273 16.8111L212.598 158.375H139.947L176.273 16.8111Z" fill="var(--fill-0, #1D4F2A)"/>
<path id="Polygon 8" d="M247.134 51.2341L268.566 154.418H225.702L247.134 51.2341Z" fill="var(--fill-0, #2B743E)"/>
<path id="Polygon 10" d="M207.107 57.6383L228.539 160.823H185.675L207.107 57.6383Z" fill="var(--fill-0, #2B743E)"/>
<path id="Polygon 5" d="M311.563 6.40418L347.888 147.968H275.237L311.563 6.40418Z" fill="var(--fill-0, #1D4F2A)"/>
<path id="Polygon 6" d="M284.759 41.6277L306.191 144.812H263.327L284.759 41.6277Z" fill="var(--fill-0, #2B743E)"/>
<g id="Group 105">
<path id="Vector 155" d="M467.573 72.4828L431.311 102.754V180.323L500.682 173.071V102.754L467.573 72.4828Z" fill="var(--fill-0, white)" stroke="var(--stroke-0, white)" stroke-width="0.630644"/>
<path id="Vector 157" d="M474.511 141.854V110.952L458.429 111.267L458.744 141.854H474.511Z" fill="var(--fill-0, #7970A2)" stroke="var(--stroke-0, #7970A2)" stroke-width="0.630644"/>
<path id="Vector 156" d="M468.204 112.844H458.744V141.224H468.204V112.844Z" fill="var(--fill-0, black)" stroke="var(--stroke-0, black)" stroke-width="0.630644"/>
<g id="Vector 158">
<path d="M500.997 95.8166V102.438L467.888 72.4828L470.411 69.6449L500.997 95.8166Z" fill="var(--fill-0, #8883AD)"/>
<path d="M318.741 99.2852L430.996 102.754V180.638L318.741 168.971V99.2852Z" fill="var(--fill-0, #8883AD)"/>
<path d="M500.997 95.8166V102.438L467.888 72.4828L470.411 69.6449L500.997 95.8166Z" stroke="var(--stroke-0, #8883AD)" stroke-width="0.630644"/>
<path d="M318.741 99.2852L430.996 102.754V180.638L318.741 168.971V99.2852Z" stroke="var(--stroke-0, #8883AD)" stroke-width="0.630644"/>
</g>
<path id="Vector 161" d="M401.987 117.258H391.265L390.635 145.007L401.987 145.519V117.258Z" fill="var(--fill-0, black)" stroke="var(--stroke-0, black)" stroke-width="0.630644"/>
<path id="Vector 162" d="M361.941 115.682H351.219L350.589 143.431L361.31 144.062L361.941 115.682Z" fill="var(--fill-0, black)" stroke="var(--stroke-0, black)" stroke-width="0.630644"/>
<path id="Vector 163" d="M346.49 115.682H350.904L350.589 143.431L345.859 143.746L346.49 115.682Z" fill="var(--fill-0, #615983)" stroke="var(--stroke-0, #615983)" stroke-width="0.630644"/>
<path id="Vector 160" d="M317.165 99.2852L430.365 102.754L470.474 69.3296L507.304 101.177L512.98 95.5013L471.042 60.1853L344.598 59.2393L319.687 95.8167H317.165V99.2852Z" fill="var(--fill-0, #44323E)" stroke="var(--stroke-0, #44323E)" stroke-width="0.630644"/>
<g id="Vector 159">
<path d="M386.535 117.258H390.95L390.635 145.007L401.671 145.323L400.725 146.584L385.905 145.323L386.535 117.258Z" fill="var(--fill-0, #615983)"/>
<path d="M390.635 145.007L401.671 145.323L400.725 146.584L385.905 145.323L386.535 117.258H390.95L390.635 145.007ZM385.905 145.323L390.635 145.007" stroke="var(--stroke-0, #615983)" stroke-width="0.630644"/>
</g>
<path id="Vector 164" d="M429.104 98.9699V96.7626L470.727 60.1853L512.98 95.186L511.403 96.7626L470.727 62.3925L429.104 98.9699Z" fill="var(--fill-0, #987370)" stroke="var(--stroke-0, #987370)" stroke-width="0.630644"/>
<path id="Vector 165" d="M429.419 98.9698L316.849 95.1859V98.9698L430.365 102.754L429.419 98.9698Z" fill="var(--fill-0, black)" stroke="var(--stroke-0, black)" stroke-width="0.630644"/>
</g>
<g id="Group 75">
<ellipse id="Ellipse 15" cx="240.572" cy="143.707" rx="7.88846" ry="7.61644" fill="var(--fill-0, #D0521C)"/>
<ellipse id="Ellipse 16" cx="256.348" cy="161.659" rx="7.88846" ry="7.61644" fill="var(--fill-0, #D0521C)"/>
<ellipse id="Ellipse 17" cx="256.348" cy="146.426" rx="7.88846" ry="7.61644" fill="var(--fill-0, #D0521C)"/>
<ellipse id="Ellipse 18" cx="218.267" cy="147.515" rx="7.88846" ry="7.61644" fill="var(--fill-0, #D0521C)"/>
<ellipse id="Ellipse 19" cx="240.572" cy="156.219" rx="7.88846" ry="7.61644" fill="var(--fill-0, #D0521C)"/>
<ellipse id="Ellipse 20" cx="272.125" cy="146.426" rx="7.88846" ry="7.61644" fill="var(--fill-0, #D0521C)"/>
<ellipse id="Ellipse 21" cx="280.285" cy="158.94" rx="7.88846" ry="7.61644" fill="var(--fill-0, #D0521C)"/>
<ellipse id="Ellipse 22" cx="220.443" cy="158.94" rx="7.88846" ry="7.61644" fill="var(--fill-0, #D0521C)"/>
<ellipse id="Ellipse 23" cx="269.949" cy="170.364" rx="7.88846" ry="7.61644" fill="var(--fill-0, #D0521C)"/>
</g>
<g id="Group 76">
<ellipse id="Ellipse 15_2" cx="295.654" cy="147.656" rx="6.17497" ry="5.96204" fill="var(--fill-0, #ECCC37)"/>
<ellipse id="Ellipse 16_2" cx="308.004" cy="161.71" rx="6.17497" ry="5.96204" fill="var(--fill-0, #ECCC37)"/>
<ellipse id="Ellipse 17_2" cx="308.004" cy="149.786" rx="6.17497" ry="5.96204" fill="var(--fill-0, #ECCC37)"/>
<ellipse id="Ellipse 18_2" cx="278.194" cy="150.637" rx="6.17497" ry="5.96204" fill="var(--fill-0, #ECCC37)"/>
<ellipse id="Ellipse 19_2" cx="295.654" cy="157.45" rx="6.17497" ry="5.96204" fill="var(--fill-0, #ECCC37)"/>
<ellipse id="Ellipse 20_2" cx="320.354" cy="149.786" rx="6.17497" ry="5.96204" fill="var(--fill-0, #ECCC37)"/>
<ellipse id="Ellipse 21_2" cx="326.741" cy="159.58" rx="6.17497" ry="5.96204" fill="var(--fill-0, #ECCC37)"/>
<ellipse id="Ellipse 22_2" cx="279.898" cy="159.58" rx="6.17497" ry="5.96204" fill="var(--fill-0, #ECCC37)"/>
<ellipse id="Ellipse 23_2" cx="318.65" cy="168.523" rx="6.17497" ry="5.96204" fill="var(--fill-0, #ECCC37)"/>
</g>
<path id="Vector 167" d="M543.788 201.734C530.402 205.522 525.402 214.581 511.767 217.344C494.798 220.783 484.995 210.736 467.738 212.141C452.433 213.387 444.655 218.611 429.713 222.147C408.771 227.103 397.136 231.332 375.677 232.955C345.294 235.252 328.455 226.916 298.025 225.35C264.15 223.606 224.923 222.38 211.167 225.35L175.944 232.955V301C175.944 301 188.736 290.993 197.959 290.993C219.217 290.993 231.164 292.088 252.395 290.993C298.436 288.618 322.467 275.729 368.072 268.979C410.497 262.699 445.001 254.008 487.751 250.566C530.305 247.141 547.591 256.768 588.618 244.963C616.836 236.844 638.002 229.634 664.669 217.344C687.933 206.622 732.091 194.633 716.303 185.723L675.876 162.908C660.089 153.998 584.616 148.499 584.616 148.499C584.616 148.499 595.634 152.79 602.628 155.703C620.576 163.181 635.85 168.112 647.858 176.517C659.866 184.923 619.63 196.691 598.625 201.734C577.802 206.733 564.394 195.903 543.788 201.734Z" fill="var(--fill-0, #FFECC4)" stroke="var(--stroke-0, #FFE4A9)" stroke-width="0.800532"/>
</g>
</svg>
