<svg preserveAspectRatio="none" width="100%" height="100%" overflow="visible" style="display: block;" viewBox="0 0 1438 1105.54" fill="none" xmlns="http://www.w3.org/2000/svg">
<g id="darkest hill">
<g id="darkest trees">
<path id="Vector 108" d="M935.607 2.54277C935.607 2.54277 913.705 80.5677 910.283 100.416C906.861 120.265 935.607 131.9 935.607 131.9C935.607 131.9 965.722 119.58 961.615 100.416C957.509 81.2522 935.607 2.54277 935.607 2.54277Z" fill="var(--fill-0, #1D4F2A)" stroke="var(--stroke-0, #1D4F2A)" stroke-width="1.36886"/>
<path id="Vector 114" d="M997.682 38.5428C997.682 38.5428 979.993 101.563 977.229 117.594C974.465 133.626 997.682 143.024 997.682 143.024C997.682 143.024 1022.01 133.073 1018.69 117.594C1015.37 102.116 997.682 38.5428 997.682 38.5428Z" fill="var(--fill-0, #1D4F2A)" stroke="var(--stroke-0, #1D4F2A)" stroke-width="1.10562"/>
<path id="Vector 109" d="M899.607 14.5428C899.607 14.5428 877.705 92.5677 874.283 112.416C870.861 132.265 899.607 143.9 899.607 143.9C899.607 143.9 929.722 131.58 925.615 112.416C921.509 93.2522 899.607 14.5428 899.607 14.5428Z" fill="var(--fill-0, #1D4F2A)" stroke="var(--stroke-0, #1D4F2A)" stroke-width="1.36886"/>
<path id="Vector 115" d="M639.181 106.543C639.181 106.543 621.065 171.082 618.234 187.5C615.403 203.918 639.181 213.543 639.181 213.543C639.181 213.543 664.091 203.352 660.694 187.5C657.298 171.649 639.181 106.543 639.181 106.543Z" fill="var(--fill-0, #1D4F2A)" stroke="var(--stroke-0, #1D4F2A)" stroke-width="1.13228"/>
<path id="Vector 111" d="M737.607 28.5428C737.607 28.5428 715.705 106.568 712.283 126.416C708.861 146.265 737.607 157.9 737.607 157.9C737.607 157.9 767.722 145.58 763.615 126.416C759.509 107.252 737.607 28.5428 737.607 28.5428Z" fill="var(--fill-0, #1D4F2A)" stroke="var(--stroke-0, #1D4F2A)" stroke-width="1.36886"/>
<path id="Vector 112" d="M697.607 41.5428C697.607 41.5428 675.705 119.568 672.283 139.416C668.861 159.265 697.607 170.9 697.607 170.9C697.607 170.9 727.722 158.58 723.615 139.416C719.509 120.252 697.607 41.5428 697.607 41.5428Z" fill="var(--fill-0, #1D4F2A)" stroke="var(--stroke-0, #1D4F2A)" stroke-width="1.36886"/>
</g>
<path id="hill" d="M1438 242.467C1438 242.467 1011.4 51.6556 737.666 145.497C519.674 220.228 279.666 539.805 184.461 684.819C89.2551 829.832 0 1105.54 0 1105.54H1438V684.819V242.467Z" fill="var(--fill-0, #1D4F2A)"/>
</g>
</svg>
