<svg preserveAspectRatio="none" width="100%" height="100%" overflow="visible" style="display: block;" viewBox="0 0 309.536 61.2224" fill="none" xmlns="http://www.w3.org/2000/svg">
<g id="Group 83">
<path id="Vector 85" d="M0.5 27.1111C0.5 23.6111 15.5 23.6111 15.5 23.6111L79.5 23.6111C79.5 23.6111 101 23.6112 100 27.1111C99 30.611 84.3805 28.4032 74.5 30.1111C60.4068 32.5471 53.1825 40.9577 39 39.1111C31.6523 38.1544 28.0692 35.3315 21 33.1111C13.0417 30.6114 0.5 30.611 0.5 27.1111Z" fill="var(--fill-0, white)" stroke="var(--stroke-0, white)"/>
<path id="Vector 83" d="M88 26.1109H9C9 26.1109 14.803 21.5596 18 18.1109C23.2649 12.4315 25.5 4.11037 29 1.61088C32.5 -0.88861 53 1.61088 53 1.61088L88 26.1109Z" fill="var(--fill-0, #755848)" stroke="var(--stroke-0, #755848)"/>
<path id="Vector 86" d="M283 59.6113C280.5 62.1113 245 59.6113 245 59.6113L242.5 47.6113L283 44.1113C283 44.1113 316.5 51.1113 307.5 52.6113C298.5 54.1113 298.422 52.8001 293 54.6113L292.959 54.625C288.837 56.0022 285.492 57.1196 283 59.6113Z" fill="var(--fill-0, white)" stroke="var(--stroke-0, white)"/>
<path id="Vector 84" d="M298.5 52.1113H232.5C232.5 52.1113 237.348 47.4908 240.019 43.9898C244.417 38.2241 246.285 29.7766 249.209 27.2391C252.133 24.7016 269.259 27.2391 269.259 27.2391L298.5 52.1113Z" fill="var(--fill-0, #755848)" stroke="var(--stroke-0, #755848)"/>
</g>
</svg>
