<svg preserveAspectRatio="none" width="100%" height="100%" overflow="visible" style="display: block;" viewBox="0 0 1217 454" fill="none" xmlns="http://www.w3.org/2000/svg">
<g id="bridge">
<path id="Vector 79" d="M332 313H317L313 302L309 142.5L338 93L405 89C405 89 378.5 94 355 114C331.5 134 332 154 332 154V313Z" fill="var(--fill-0, #41608A)" stroke="var(--stroke-0, #41608A)"/>
<path id="Vector 82" d="M887 314H872L868 303L864 143.5L893 94L960 90C960 90 933.5 95 910 115C886.5 135 887 155 887 155V314Z" fill="var(--fill-0, #41608A)" stroke="var(--stroke-0, #41608A)"/>
<g id="Vector 80">
<path d="M516.5 453.5H502L498 156.5L513 91H587.632C588.203 90.9844 588.5 91 588.5 91H587.632C583.633 91.1094 566.187 92.75 543 112C516.5 134 516.5 157.5 516.5 157.5V453.5Z" fill="var(--fill-0, #41608A)"/>
<path d="M502 453.5H516.5V157.5C516.5 157.5 516.5 134 543 112C569.5 90 588.5 91 588.5 91H513L498 156.5L502 453.5Z" stroke="var(--stroke-0, #41608A)"/>
</g>
<g id="Vector 81">
<path d="M701.5 453.5H687.5L681.5 147L706.5 90.4998H772.705C774.544 90.3862 775.5 90.4998 775.5 90.4998H772.705C766.791 90.8654 751.742 93.5827 730 110C701.5 131.52 701.5 157 701.5 157V453.5Z" fill="var(--fill-0, #41608A)"/>
<path d="M687.5 453.5H701.5V157C701.5 157 701.5 131.52 730 110C758.5 88.4793 775.5 90.4998 775.5 90.4998H706.5L681.5 147L687.5 453.5Z" stroke="var(--stroke-0, #41608A)"/>
</g>
<rect id="Rectangle 168" width="1217" height="13" transform="matrix(1 0 0 -1 0 13)" fill="var(--fill-0, #3C4550)"/>
<path id="Vector 78" d="M167 116C156.806 127.162 148.5 150 148.5 150L128.5 141L162.5 90H219.5C219.5 90 182.429 99.1063 167 116Z" fill="var(--fill-0, #41608A)" stroke="var(--stroke-0, #41608A)"/>
<rect id="Rectangle 184" x="1051" y="120.055" width="69.6511" height="22" transform="rotate(-25.5634 1051 120.055)" fill="var(--fill-0, #4C6D99)"/>
<path id="Vector 77" d="M1216.5 13.5H51.5L97 158L134.5 160.5C134.5 160.5 130 91.5 211.5 91.5C293 91.5 293 160.5 293 160.5V287.5L316 312V160.5C316 160.5 314 91.5 395.5 91.5C477 91.5 479 160.5 479 160.5V453.5H501V160.5C501 160.5 499 91.5 581.5 91.5C664 91.5 664 160.5 664 160.5V453.5H686.5V160.5C686.5 160.5 683.5 91.5 766.5 91.5C849.5 91.5 849.5 160.5 849.5 160.5V364.5L871.5 339V160.5C871.5 160.5 869.5 91.5 952 91.5C1034.5 91.5 1034.5 160.5 1034.5 160.5L1065.5 137.5C1065.5 137.5 1065.5 125.95 1081 112C1096.5 98.05 1108.5 98.5 1108.5 98.5L1118.5 104L1216.5 112V13.5Z" fill="var(--fill-0, #7598C1)" stroke="var(--stroke-0, #7598C1)"/>
<rect id="Rectangle 169" x="101" y="44" width="43" height="23" fill="var(--fill-0, #4C6D99)"/>
<rect id="Rectangle 170" x="265" y="45" width="45" height="22" fill="var(--fill-0, #4C6D99)"/>
<rect id="Rectangle 172" x="447" y="69" width="45" height="22" fill="var(--fill-0, #4C6D99)"/>
<rect id="Rectangle 176" x="663" y="45" width="45" height="22" fill="var(--fill-0, #4C6D99)"/>
<rect id="Rectangle 177" x="819" y="45" width="45" height="22" fill="var(--fill-0, #4C6D99)"/>
<rect id="Rectangle 178" x="870" y="45" width="45" height="22" fill="var(--fill-0, #4C6D99)"/>
<rect id="Rectangle 179" x="841" y="71" width="45" height="22" fill="var(--fill-0, #4C6D99)"/>
<rect id="Rectangle 180" x="1036" y="71" width="45" height="22" fill="var(--fill-0, #4C6D99)"/>
<rect id="Rectangle 173" x="479" y="155" width="15" height="22" fill="var(--fill-0, #4C6D99)"/>
<rect id="Rectangle 181" x="664" y="172" width="15" height="22" fill="var(--fill-0, #4C6D99)"/>
<rect id="Rectangle 174" x="479" y="342" width="19" height="22" fill="var(--fill-0, #4C6D99)"/>
<rect id="Rectangle 175" x="479" y="279" width="5" height="22" fill="var(--fill-0, #4C6D99)"/>
<rect id="Rectangle 171" x="287" y="71" width="45" height="22" fill="var(--fill-0, #4C6D99)"/>
<rect id="Rectangle 182" x="664" y="278" width="19" height="22" fill="var(--fill-0, #4C6D99)"/>
<rect id="Rectangle 183" x="849" y="257" width="15" height="22" fill="var(--fill-0, #4C6D99)"/>
</g>
</svg>
