<svg preserveAspectRatio="none" width="100%" height="100%" overflow="visible" style="display: block;" viewBox="0 0 1560.5 1191.87" fill="none" xmlns="http://www.w3.org/2000/svg">
<g id="ABOUT hill">
<g id="ABOUT hill_2">
<path id="hill bottom" d="M1545.59 432.353C1494.27 309.302 1359.99 261.446 1301.68 232.658C1243.37 203.87 553.44 231.363 74 231.363V1182.36L1278.5 1190.36C1278.5 1190.36 1292.53 1098.45 1301.68 1087.29C1326.03 1057.58 1367.38 1087.29 1367.38 1087.29L1380.52 1048.72L1448.52 1087.29C1448.52 1087.29 1463.23 1060.84 1473.16 1048.72C1495.16 1021.85 1531.96 1018.58 1531.96 1018.58V712.409C1531.96 712.409 1582.32 520.413 1545.59 432.353Z" fill="var(--fill-0, #1E7234)" stroke="var(--stroke-0, #1E7234)" stroke-width="3"/>
<path id="hill" d="M727.408 115.87C443.09 95.8619 0 182.242 0 182.242V230.863H1302C1302 230.863 953.828 131.804 727.408 115.87Z" fill="var(--fill-0, #1E7234)"/>
</g>
<path id="Vector 103" d="M172.903 3.86305C172.903 3.86305 139.629 122.401 134.43 152.555C129.231 182.71 172.903 200.387 172.903 200.387C172.903 200.387 218.654 181.67 212.415 152.555C206.177 123.441 172.903 3.86305 172.903 3.86305Z" fill="var(--fill-0, #1D4F2A)" stroke="var(--stroke-0, #1D4F2A)" stroke-width="2.07961"/>
<path id="Vector 105" d="M239.903 3.86305C239.903 3.86305 206.629 122.401 201.43 152.555C196.231 182.71 239.903 200.387 239.903 200.387C239.903 200.387 285.654 181.67 279.415 152.555C273.177 123.441 239.903 3.86305 239.903 3.86305Z" fill="var(--fill-0, #1D4F2A)" stroke="var(--stroke-0, #1D4F2A)" stroke-width="2.07961"/>
<path id="Vector 104" d="M107.903 12.8631C107.903 12.8631 74.6289 131.401 69.4299 161.555C64.2309 191.71 107.903 209.387 107.903 209.387C107.903 209.387 153.654 190.67 147.415 161.555C141.177 132.441 107.903 12.8631 107.903 12.8631Z" fill="var(--fill-0, #1D4F2A)" stroke="var(--stroke-0, #1D4F2A)" stroke-width="2.07961"/>
<path id="Vector 101" d="M185.084 71.8631C185.084 71.8631 161.919 154.389 158.299 175.383C154.68 196.377 185.084 208.683 185.084 208.683C185.084 208.683 216.936 195.653 212.593 175.383C208.25 155.113 185.084 71.8631 185.084 71.8631Z" fill="var(--fill-0, #2B743E)" stroke="var(--stroke-0, #2B743E)" stroke-width="1.44783"/>
<path id="Vector 102" d="M150.084 63.8631C150.084 63.8631 126.919 146.389 123.299 167.383C119.68 188.377 150.084 200.683 150.084 200.683C150.084 200.683 181.936 187.653 177.593 167.383C173.25 147.113 150.084 63.8631 150.084 63.8631Z" fill="var(--fill-0, #2B743E)" stroke="var(--stroke-0, #2B743E)" stroke-width="1.44783"/>
<g id="Group 79">
<ellipse id="Ellipse 15" cx="102.613" cy="231.342" rx="8.78185" ry="8.47902" fill="var(--fill-0, #ECCC37)"/>
<ellipse id="Ellipse 16" cx="120.177" cy="251.329" rx="8.78185" ry="8.47902" fill="var(--fill-0, #ECCC37)"/>
<ellipse id="Ellipse 17" cx="120.177" cy="234.371" rx="8.78185" ry="8.47902" fill="var(--fill-0, #ECCC37)"/>
<ellipse id="Ellipse 18" cx="77.7819" cy="235.582" rx="8.78185" ry="8.47902" fill="var(--fill-0, #ECCC37)"/>
<ellipse id="Ellipse 19" cx="102.613" cy="245.272" rx="8.78185" ry="8.47902" fill="var(--fill-0, #ECCC37)"/>
<ellipse id="Ellipse 20" cx="137.74" cy="234.371" rx="8.78185" ry="8.47902" fill="var(--fill-0, #ECCC37)"/>
<ellipse id="Ellipse 21" cx="146.825" cy="248.3" rx="8.78185" ry="8.47902" fill="var(--fill-0, #ECCC37)"/>
<ellipse id="Ellipse 22" cx="80.2046" cy="248.3" rx="8.78185" ry="8.47902" fill="var(--fill-0, #ECCC37)"/>
<ellipse id="Ellipse 23" cx="135.318" cy="261.019" rx="8.78185" ry="8.47902" fill="var(--fill-0, #ECCC37)"/>
</g>
<g id="Group 89">
<ellipse id="Ellipse 15_2" cx="336.17" cy="141.491" rx="8.78185" ry="8.47902" transform="rotate(-40.1121 336.17 141.491)" fill="var(--fill-0, #ECCC37)"/>
<ellipse id="Ellipse 16_2" cx="362.479" cy="145.461" rx="8.78185" ry="8.47902" transform="rotate(-40.1121 362.479 145.461)" fill="var(--fill-0, #ECCC37)"/>
<ellipse id="Ellipse 17_2" cx="351.553" cy="132.492" rx="8.78185" ry="8.47902" transform="rotate(-40.1121 351.553 132.492)" fill="var(--fill-0, #ECCC37)"/>
<ellipse id="Ellipse 18_2" cx="319.911" cy="160.732" rx="8.78185" ry="8.47902" transform="rotate(-40.1121 319.911 160.732)" fill="var(--fill-0, #ECCC37)"/>
<ellipse id="Ellipse 19_2" cx="345.145" cy="152.145" rx="8.78185" ry="8.47902" transform="rotate(-40.1121 345.145 152.145)" fill="var(--fill-0, #ECCC37)"/>
<ellipse id="Ellipse 20_2" cx="364.986" cy="121.175" rx="8.78185" ry="8.47902" transform="rotate(-40.1121 364.986 121.175)" fill="var(--fill-0, #ECCC37)"/>
<ellipse id="Ellipse 21_2" cx="380.908" cy="125.975" rx="8.78185" ry="8.47902" transform="rotate(-40.1121 380.908 125.975)" fill="var(--fill-0, #ECCC37)"/>
<ellipse id="Ellipse 22_2" cx="329.958" cy="168.898" rx="8.78185" ry="8.47902" transform="rotate(-40.1121 329.958 168.898)" fill="var(--fill-0, #ECCC37)"/>
<ellipse id="Ellipse 23_2" cx="380.302" cy="143.116" rx="8.78185" ry="8.47902" transform="rotate(-40.1121 380.302 143.116)" fill="var(--fill-0, #ECCC37)"/>
</g>
<g id="Group 90">
<ellipse id="Ellipse 15_3" cx="263.41" cy="175.87" rx="8.78185" ry="8.47902" transform="rotate(-21.1237 263.41 175.87)" fill="var(--fill-0, #16628F)"/>
<ellipse id="Ellipse 16_3" cx="286.996" cy="188.184" rx="8.78185" ry="8.47902" transform="rotate(-21.1237 286.996 188.184)" fill="var(--fill-0, #16628F)"/>
<ellipse id="Ellipse 17_3" cx="280.885" cy="172.365" rx="8.78185" ry="8.47902" transform="rotate(-21.1237 280.885 172.365)" fill="var(--fill-0, #16628F)"/>
<ellipse id="Ellipse 19_3" cx="268.43" cy="188.865" rx="8.78185" ry="8.47902" transform="rotate(-21.1237 268.43 188.865)" fill="var(--fill-0, #16628F)"/>
<ellipse id="Ellipse 20_3" cx="297.268" cy="166.035" rx="8.78185" ry="8.47902" transform="rotate(-21.1237 297.268 166.035)" fill="var(--fill-0, #16628F)"/>
<ellipse id="Ellipse 21_3" cx="310.763" cy="175.756" rx="8.78185" ry="8.47902" transform="rotate(-21.1237 310.763 175.756)" fill="var(--fill-0, #16628F)"/>
<ellipse id="Ellipse 23_3" cx="304.612" cy="191.767" rx="8.78185" ry="8.47902" transform="rotate(-21.1237 304.612 191.767)" fill="var(--fill-0, #16628F)"/>
</g>
<g id="Group 86">
<ellipse id="Ellipse 15_4" cx="8.78185" cy="8.47902" rx="8.78185" ry="8.47902" transform="matrix(-1 0 0 1 335.776 116.863)" fill="var(--fill-0, #D0521C)"/>
<ellipse id="Ellipse 16_4" cx="8.78185" cy="8.47902" rx="8.78185" ry="8.47902" transform="matrix(-1 0 0 1 318.212 136.849)" fill="var(--fill-0, #D0521C)"/>
<ellipse id="Ellipse 17_4" cx="8.78185" cy="8.47902" rx="8.78185" ry="8.47902" transform="matrix(-1 0 0 1 318.212 119.891)" fill="var(--fill-0, #D0521C)"/>
<ellipse id="Ellipse 18_3" cx="8.78185" cy="8.47902" rx="8.78185" ry="8.47902" transform="matrix(-1 0 0 1 360.607 121.103)" fill="var(--fill-0, #D0521C)"/>
<ellipse id="Ellipse 19_4" cx="8.78185" cy="8.47902" rx="8.78185" ry="8.47902" transform="matrix(-1 0 0 1 335.776 130.792)" fill="var(--fill-0, #D0521C)"/>
<ellipse id="Ellipse 20_4" cx="8.78185" cy="8.47902" rx="8.78185" ry="8.47902" transform="matrix(-1 0 0 1 300.649 119.891)" fill="var(--fill-0, #D0521C)"/>
<ellipse id="Ellipse 21_4" cx="8.78185" cy="8.47902" rx="8.78185" ry="8.47902" transform="matrix(-1 0 0 1 291.564 133.821)" fill="var(--fill-0, #D0521C)"/>
<ellipse id="Ellipse 22_3" cx="8.78185" cy="8.47902" rx="8.78185" ry="8.47902" transform="matrix(-1 0 0 1 358.185 133.821)" fill="var(--fill-0, #D0521C)"/>
<ellipse id="Ellipse 23_4" cx="8.78185" cy="8.47902" rx="8.78185" ry="8.47902" transform="matrix(-1 0 0 1 303.071 146.54)" fill="var(--fill-0, #D0521C)"/>
</g>
<g id="Group 81">
<ellipse id="Ellipse 15_5" cx="8.78185" cy="8.47902" rx="8.78185" ry="8.47902" transform="matrix(-1 0 0 1 205.776 190.863)" fill="var(--fill-0, #ECCC37)"/>
<ellipse id="Ellipse 16_5" cx="8.78185" cy="8.47902" rx="8.78185" ry="8.47902" transform="matrix(-1 0 0 1 188.212 210.85)" fill="var(--fill-0, #ECCC37)"/>
<ellipse id="Ellipse 17_5" cx="8.78185" cy="8.47902" rx="8.78185" ry="8.47902" transform="matrix(-1 0 0 1 188.212 193.891)" fill="var(--fill-0, #ECCC37)"/>
<ellipse id="Ellipse 19_5" cx="8.78185" cy="8.47902" rx="8.78185" ry="8.47902" transform="matrix(-1 0 0 1 205.776 204.792)" fill="var(--fill-0, #ECCC37)"/>
<ellipse id="Ellipse 20_5" cx="8.78185" cy="8.47902" rx="8.78185" ry="8.47902" transform="matrix(-1 0 0 1 170.648 193.891)" fill="var(--fill-0, #ECCC37)"/>
<ellipse id="Ellipse 21_5" cx="8.78185" cy="8.47902" rx="8.78185" ry="8.47902" transform="matrix(-1 0 0 1 161.564 207.821)" fill="var(--fill-0, #ECCC37)"/>
<ellipse id="Ellipse 23_5" cx="8.78185" cy="8.47902" rx="8.78185" ry="8.47902" transform="matrix(-1 0 0 1 173.071 220.54)" fill="var(--fill-0, #ECCC37)"/>
</g>
<g id="Group 88">
<ellipse id="Ellipse 15_6" cx="142.613" cy="224.342" rx="8.78185" ry="8.47902" fill="var(--fill-0, #16628F)"/>
<ellipse id="Ellipse 16_6" cx="160.177" cy="244.328" rx="8.78185" ry="8.47902" fill="var(--fill-0, #16628F)"/>
<ellipse id="Ellipse 17_6" cx="160.177" cy="227.37" rx="8.78185" ry="8.47902" fill="var(--fill-0, #16628F)"/>
<ellipse id="Ellipse 18_4" cx="117.782" cy="228.582" rx="8.78185" ry="8.47902" fill="var(--fill-0, #16628F)"/>
<ellipse id="Ellipse 19_6" cx="142.613" cy="238.273" rx="8.78185" ry="8.47902" fill="var(--fill-0, #16628F)"/>
<ellipse id="Ellipse 20_6" cx="177.741" cy="227.37" rx="8.78185" ry="8.47902" fill="var(--fill-0, #16628F)"/>
<ellipse id="Ellipse 21_6" cx="186.825" cy="241.3" rx="8.78185" ry="8.47902" fill="var(--fill-0, #16628F)"/>
<ellipse id="Ellipse 22_4" cx="120.204" cy="241.3" rx="8.78185" ry="8.47902" fill="var(--fill-0, #16628F)"/>
<ellipse id="Ellipse 23_6" cx="175.318" cy="254.019" rx="8.78185" ry="8.47902" fill="var(--fill-0, #16628F)"/>
</g>
<g id="Group 80">
<ellipse id="Ellipse 15_7" cx="8.78185" cy="8.47902" rx="8.78185" ry="8.47902" transform="matrix(-1 0 0 1 126.776 183.863)" fill="var(--fill-0, #D0521C)"/>
<ellipse id="Ellipse 16_7" cx="8.78185" cy="8.47902" rx="8.78185" ry="8.47902" transform="matrix(-1 0 0 1 109.212 203.849)" fill="var(--fill-0, #D0521C)"/>
<ellipse id="Ellipse 17_7" cx="8.78185" cy="8.47902" rx="8.78185" ry="8.47902" transform="matrix(-1 0 0 1 109.212 186.891)" fill="var(--fill-0, #D0521C)"/>
<ellipse id="Ellipse 18_5" cx="8.78185" cy="8.47902" rx="8.78185" ry="8.47902" transform="matrix(-1 0 0 1 151.607 188.103)" fill="var(--fill-0, #D0521C)"/>
<ellipse id="Ellipse 19_7" cx="8.78185" cy="8.47902" rx="8.78185" ry="8.47902" transform="matrix(-1 0 0 1 126.776 197.792)" fill="var(--fill-0, #D0521C)"/>
<ellipse id="Ellipse 20_7" cx="8.78185" cy="8.47902" rx="8.78185" ry="8.47902" transform="matrix(-1 0 0 1 91.6485 186.891)" fill="var(--fill-0, #D0521C)"/>
<ellipse id="Ellipse 21_7" cx="8.78185" cy="8.47902" rx="8.78185" ry="8.47902" transform="matrix(-1 0 0 1 82.5638 200.821)" fill="var(--fill-0, #D0521C)"/>
<ellipse id="Ellipse 22_5" cx="8.78185" cy="8.47902" rx="8.78185" ry="8.47902" transform="matrix(-1 0 0 1 149.185 200.821)" fill="var(--fill-0, #D0521C)"/>
<ellipse id="Ellipse 23_7" cx="8.78185" cy="8.47902" rx="8.78185" ry="8.47902" transform="matrix(-1 0 0 1 94.071 213.54)" fill="var(--fill-0, #D0521C)"/>
</g>
</g>
</svg>
