<svg preserveAspectRatio="none" width="100%" height="100%" overflow="visible" style="display: block;" viewBox="0 0 193.472 424.328" fill="none" xmlns="http://www.w3.org/2000/svg">
<g id="lighthouse">
<ellipse id="Ellipse 7" cx="96.7361" cy="83.6194" rx="96.7361" ry="83.6194" fill="var(--fill-0, #F0C66A)"/>
<ellipse id="Ellipse 6" cx="96.7359" cy="83.6195" rx="60.665" ry="54.7625" fill="var(--fill-0, #FFE4A9)"/>
<path id="Vector 22" d="M90.8335 112.476V126.905H103.294V112.476C103.294 110.181 99.1007 109.148 96.0802 109.525C93.7474 109.816 90.8335 110.181 90.8335 112.476Z" fill="var(--fill-0, white)" stroke="var(--stroke-0, white)" stroke-width="3.27919"/>
<path id="Vector 21" d="M124.609 173.141V137.398L103.95 138.054L102.639 173.141H124.609Z" fill="var(--fill-0, #67315B)" stroke="var(--stroke-0, #67315B)" stroke-width="3.27919"/>
<path id="Vector 18" d="M47.2201 147.892V142.973" stroke="var(--stroke-0, #410C1C)" stroke-width="2.62335"/>
<path id="Vector 19" d="M146.58 148.22V142.645" stroke="var(--stroke-0, #410C1C)" stroke-width="3.27919"/>
<path id="Vector 20" d="M69.1907 132.479V173.141H102.638V147.891C102.638 146.579 104.008 142.709 105.918 140.349C108.157 137.581 110.181 135.43 113.46 135.43H124.609V132.479H134.447V127.56H59.3531V132.479H69.1907Z" fill="var(--fill-0, #410C1C)" stroke="var(--stroke-0, #410C1C)" stroke-width="3.27919"/>
<path id="Vector 1" d="M64.2719 199.374L41.6455 418.752C41.6455 418.752 47.7927 420.562 51.811 421.376C60.1289 423.061 64.9806 422.86 73.4537 423.343C87.7732 424.16 95.8486 423.898 110.181 423.343C124.513 422.788 152.154 415.801 152.154 415.801L129.2 199.374H64.2719Z" fill="var(--fill-0, #948DB6)" stroke="var(--stroke-0, #948DB6)" stroke-width="0.655837"/>
<g id="window">
<path id="Vector 3" d="M74.7655 262.335H67.8792L65.5838 285.29H72.798L74.7655 262.335Z" fill="var(--fill-0, #67315B)" stroke="var(--stroke-0, #67315B)" stroke-width="0.655837"/>
<path id="Vector 4" d="M71.1584 262.335H74.7655L72.798 285.29H68.5351L71.1584 262.335Z" fill="var(--fill-0, black)" stroke="var(--stroke-0, black)" stroke-width="0.655837"/>
</g>
<path id="Vector 9" d="M75.7491 373.5L72.4699 417.769V375.467L75.7491 373.5Z" fill="var(--fill-0, white)" stroke="var(--stroke-0, white)" stroke-width="0.655837"/>
<path id="Vector 8" d="M53.4507 421.704V372.516L61.3208 367.597L72.1421 375.139V423.343L61.9766 423.015L53.4507 421.704Z" fill="var(--fill-0, #6D65A1)" stroke="var(--stroke-0, #6D65A1)" stroke-width="0.655837"/>
<path id="Vector 7" d="M56.4022 376.451C56.4023 378.419 56.4022 422.36 56.4022 422.36C56.4022 422.36 59.5925 422.828 61.6489 423.016C64.3301 423.261 68.5352 423.343 68.5352 423.343C68.5352 423.343 68.8631 377.763 68.5352 376.451C68.2073 375.14 64.9281 371.532 62.3047 371.532C59.6814 371.533 56.4021 374.484 56.4022 376.451Z" fill="var(--fill-0, #410C1C)" stroke="var(--stroke-0, #410C1C)" stroke-width="0.655837"/>
<path id="Vector 6" d="M67.5513 363.334H62.3046L75.7493 372.844L79.0285 371.86L67.5513 363.334Z" fill="var(--fill-0, white)" stroke="var(--stroke-0, white)" stroke-width="0.655837"/>
<path id="Vector 5" d="M61.3209 363.334L48.86 371.532L50.4996 373.828L61.3209 366.613L72.7981 375.139L75.0935 373.172L61.3209 363.334Z" fill="var(--fill-0, #410C1C)" stroke="var(--stroke-0, #410C1C)" stroke-width="0.655837"/>
<path id="Vector 2" d="M110.181 199.374H129.2L152.154 415.801C152.154 415.801 130.525 422.485 113.132 423.671C102.272 424.411 80.3401 423.671 80.3401 423.671L94.1127 212.491C94.1127 212.491 95.4244 209.868 100.343 205.277C105.262 200.686 110.181 199.374 110.181 199.374Z" fill="var(--fill-0, white)" stroke="var(--stroke-0, white)" stroke-width="0.655837"/>
<g id="window_2">
<path id="Vector 3_2" d="M125.921 307.588H132.807L135.102 330.542H127.888L125.921 307.588Z" fill="var(--fill-0, #67315B)" stroke="var(--stroke-0, #67315B)" stroke-width="0.655837"/>
<path id="Vector 4_2" d="M129.528 307.588H125.921L127.888 330.542H132.151L129.528 307.588Z" fill="var(--fill-0, black)" stroke="var(--stroke-0, black)" stroke-width="0.655837"/>
</g>
<g id="window_3">
<path id="Vector 3_3" d="M120.018 231.51H126.314L128.413 252.497H121.817L120.018 231.51Z" fill="var(--fill-0, #67315B)" stroke="var(--stroke-0, #67315B)" stroke-width="0.599623"/>
<path id="Vector 4_3" d="M123.316 231.51H120.018L121.817 252.497H125.715L123.316 231.51Z" fill="var(--fill-0, black)" stroke="var(--stroke-0, black)" stroke-width="0.599623"/>
</g>
<path id="Vector 15" d="M69.5188 173.797L67.8792 197.407H124.609L122.314 173.797H69.5188Z" fill="var(--fill-0, #706995)" stroke="var(--stroke-0, #706995)" stroke-width="2.62335"/>
<path id="Vector 16" d="M103.294 186.586C101.327 186.586 100.671 186.258 99.6871 187.57C98.7034 188.881 97.7196 197.407 97.7196 197.407H124.937L122.969 186.586H103.294Z" fill="var(--fill-0, white)" stroke="var(--stroke-0, white)" stroke-width="1.31167"/>
<path id="Vector 17" d="M50.4993 172.813H47.2201V147.891H50.4993M50.4993 172.813V147.891M50.4993 172.813H54.1064M50.4993 147.891H54.1064M54.1064 147.891V172.813M54.1064 147.891H57.0577M54.1064 172.813H57.0577M57.0577 172.813V147.891M57.0577 172.813H60.9927M57.0577 147.891H60.6648M60.6648 147.891L60.9927 172.813M60.6648 147.891H65.2557M60.9927 172.813H65.2557M65.2557 172.813V147.891M65.2557 172.813H107.557M65.2557 147.891H107.557M107.557 147.891V172.813M107.557 147.891H111.164M107.557 172.813H111.164M111.164 172.813V147.891M111.164 172.813H115.099M111.164 147.891H115.099M115.099 147.891V172.813M115.099 147.891H119.69M115.099 172.813H119.69M119.69 172.813V147.891M119.69 172.813H124.609M119.69 147.891H124.609M124.609 147.891V172.813M124.609 147.891H128.544M124.609 172.813H128.544M128.544 172.813V147.891M128.544 172.813H131.823M128.544 147.891H131.823M131.823 147.891V172.813M131.823 147.891H135.758M131.823 172.813H135.758M135.758 172.813V147.891M135.758 172.813H139.693M135.758 147.891H139.693M139.693 147.891V172.813M139.693 147.891H143.628M139.693 172.813H143.628M143.628 172.813H146.58V147.891H143.628M143.628 172.813V147.891" stroke="var(--stroke-0, #410C1C)" stroke-width="1.31167"/>
<g id="Group 1">
<path id="Vector 14" d="M47.8761 175.109V181.667" stroke="var(--stroke-0, #410C1C)" stroke-width="2.62335"/>
<path id="Vector 12" d="M105.918 197.735L106.902 173.797" stroke="var(--stroke-0, #410C1C)" stroke-width="2.62335"/>
<path id="Vector 13" d="M84.9313 173.797C84.9313 173.797 86.8988 177.404 86.8988 180.355C86.8988 183.307 86.8988 198.063 86.8988 198.063M69.1912 173.797C69.1912 173.797 73.5954 179.834 75.0937 184.29C75.5591 185.674 75.7947 186.465 76.0775 187.897C76.8465 191.792 76.0775 198.063 76.0775 198.063M54.7628 174.781C54.7628 174.781 60.5253 179.06 63.2887 182.651C65.2843 185.244 66.7341 186.696 67.5516 189.865C68.2874 192.717 67.5516 197.407 67.5516 197.407M63.9445 197.407C63.9445 197.407 64.6003 194.784 63.9445 192.488C63.2887 190.193 61.8768 188.61 60.3374 186.258C57.3476 181.689 51.4836 175.437 51.4836 175.437M120.019 198.063C120.019 198.063 118.834 189.537 120.019 184.29C120.554 181.92 120.823 180.521 121.986 178.388C123.078 176.386 125.593 173.797 125.593 173.797M124.937 198.063C124.937 198.063 123.806 191.313 124.937 187.242C125.658 184.648 126.362 183.229 127.889 181.011C129.276 178.996 130.143 177.817 132.152 176.42C134.811 174.57 140.022 173.797 140.022 173.797M128.545 198.063C128.545 198.063 128.052 193.953 128.545 191.833C129.181 189.094 130.516 187.561 132.152 185.274C133.946 182.766 135.14 182.456 137.398 180.355C140.08 177.861 144.941 174.781 144.941 174.781M145.596 174.781V181.667" stroke="var(--stroke-0, #410C1C)" stroke-width="2.62335"/>
<path id="Vector 11" d="M149.531 173.797L45.2527 173.797" stroke="var(--stroke-0, #410C1C)" stroke-width="5.2467"/>
<path id="Vector 10" d="M61.9765 197.735H131.167" stroke="var(--stroke-0, #410C1C)" stroke-width="2.62335"/>
</g>
<circle id="Ellipse 1" cx="97.0642" cy="104.934" r="5.57463" fill="var(--fill-0, white)" stroke="var(--stroke-0, white)" stroke-width="0.655837"/>
<path id="Vector 23" d="M115.1 128.217H122.97V81.652H115.1M115.1 128.217V81.652M115.1 128.217H104.934M115.1 81.652H104.934M104.934 81.652V128.217M104.934 81.652H97.064M104.934 128.217H97.064M97.064 128.217V81.652M97.064 128.217H84.6031M97.064 81.652H84.6031M84.6031 81.652V128.217M84.6031 81.652H78.3726M84.6031 128.217H78.3726M78.3726 128.217H72.1422V108.213V81.652H78.3726M78.3726 128.217V81.652" stroke="var(--stroke-0, #410C1C)" stroke-width="1.31167"/>
<path id="Ellipse 3" d="M122.97 80.6679C122.97 90.8097 113.373 78.0445 98.7038 78.0445C84.0344 78.0445 70.8307 90.8097 70.8307 80.6679C70.8307 70.526 81.7389 62.3044 96.4084 62.3044C111.078 62.3044 122.97 70.526 122.97 80.6679Z" fill="var(--fill-0, #410C1C)"/>
<ellipse id="Ellipse 4" cx="97.0642" cy="59.6809" rx="5.90254" ry="3.93503" fill="var(--fill-0, #410C1C)"/>
<circle id="Ellipse 5" cx="97.064" cy="49.8438" r="7.21422" fill="var(--fill-0, #410C1C)"/>
<g id="Vector 24">
<path d="M96.408 21.315L95.4242 44.9252H98.0476L96.408 21.315Z" fill="var(--fill-0, #410C1C)"/>
<path d="M127.888 78.3729H66.5673C66.5673 78.3729 66.1326 82.555 70.8303 84.9313C77.7208 88.4169 88.686 89.1943 96.408 89.1943C103.95 89.1943 116.277 86.9289 122.314 84.9313C128.786 82.7894 127.888 78.3729 127.888 78.3729Z" fill="var(--fill-0, #410C1C)"/>
<path d="M96.408 21.315L95.4242 44.9252H98.0476L96.408 21.315Z" stroke="var(--stroke-0, #410C1C)" stroke-width="0.983756"/>
<path d="M127.888 78.3729H66.5673C66.5673 78.3729 66.1326 82.555 70.8303 84.9313C77.7208 88.4169 88.686 89.1943 96.408 89.1943C103.95 89.1943 116.277 86.9289 122.314 84.9313C128.786 82.7894 127.888 78.3729 127.888 78.3729Z" stroke="var(--stroke-0, #410C1C)" stroke-width="0.983756"/>
</g>
<path id="Vector 25" d="M100.671 77.7167L99.6871 65.9116C99.6871 65.9116 108.657 67.6189 112.476 69.8467C116.658 72.2858 118.379 77.7167 118.379 77.7167H100.671Z" fill="var(--fill-0, #67315B)" stroke="var(--stroke-0, #67315B)" stroke-width="0.983756"/>
</g>
</svg>
