<svg preserveAspectRatio="none" width="100%" height="100%" overflow="visible" style="display: block;" viewBox="0 0 404 598.506" fill="none" xmlns="http://www.w3.org/2000/svg">
<g id="left mountain">
<path id="Vector 69" d="M84 74L0.5 0V592.5L84 580.5L219 598.5L404 564V499L348 447L302.5 336.5L231 254L185.5 106.5L84 74Z" fill="var(--fill-0, #AA866B)"/>
<path id="Vector 119" d="M83.5 74L0.5 0.5L76 84L174.5 118.5L213.5 268.5L279 336.5L331.5 441.5L403.5 499L348 447L302 336.5L231 254.5L185.5 107L83.5 74Z" fill="var(--fill-0, #B89978)" stroke="var(--stroke-0, #B89978)" stroke-linecap="round"/>
<path id="Vector 118" d="M122.5 239L0.5 144V592L84 580L219 598L403.5 564V526L245 462L180.5 386.5L122.5 239Z" fill="var(--fill-0, #A37E68)" stroke="var(--stroke-0, #A37E68)" stroke-linecap="round"/>
</g>
</svg>
