<svg preserveAspectRatio="none" width="100%" height="100%" overflow="visible" style="display: block;" viewBox="0 0 422.252 280.645" fill="none" xmlns="http://www.w3.org/2000/svg">
<g id="deshaw&#38;co boat">
<path id="Vector 131" d="M33.069 205.149C35.9785 197.469 78.6423 205.154 78.6423 205.154L369.452 191.091C369.452 191.091 387.697 191.812 389.848 199.206C391.998 206.6 388.81 217.417 382.675 221.998C376.54 226.578 319.413 237.168 304.115 239.589C288.817 242.011 103.975 244.457 89.7936 235.358C75.6126 226.259 30.1595 212.829 33.069 205.149Z" fill="var(--fill-0, #65A7E6)"/>
<path id="Vector 61" d="M283.567 119.445C283.515 81.8091 302.072 23.6664 302.072 23.6664C302.072 23.6664 178.146 -0.2778 119.268 34.3444C60.3894 68.9665 2.07161 163.451 2.07161 163.451C2.07161 163.451 42.5465 153.514 69.9221 150.184C154.926 139.846 289.174 171.864 289.174 171.864C289.174 171.864 283.595 139.954 283.567 119.445Z" fill="var(--fill-0, #E2F3FE)" stroke="var(--stroke-0, #E2F3FE)" stroke-width="1.94145"/>
<path id="Vector 62" d="M318.894 93.8817C325.862 124.229 300.39 171.54 300.39 171.54L404.128 156.979C404.128 156.979 395.386 141.801 388.427 132.387C363.859 99.15 300.39 55.0527 300.39 55.0527C300.39 55.0527 315.315 78.2914 318.894 93.8817Z" fill="var(--fill-0, #E2F3FE)" stroke="var(--stroke-0, #E2F3FE)" stroke-width="1.94145"/>
<path id="Vector 63" d="M307.118 1.01571L304.315 19.783C304.315 19.783 315.53 18.8123 323.941 18.8123C335.462 18.8123 342.254 18.4823 351.978 22.0481C361.412 25.5073 360.903 29.5639 369.922 33.3732C378.472 36.9843 385.148 37.7901 395.717 38.2268C406.13 38.6571 422.072 35.6382 422.072 35.6382C422.072 35.6382 407.458 36.8914 398.52 35.6382C389.67 34.3972 384.571 32.988 377.773 29.4903C368.341 24.6375 371.143 18.3783 362.633 12.988C347.046 3.11567 307.118 1.01571 307.118 1.01571Z" fill="var(--fill-0, #030303)" stroke="var(--stroke-0, #030303)" stroke-width="1.94145"/>
<path id="Vector 64" d="M307.559 217.784C312.607 217.317 393.946 201.938 395.629 199.606C397.312 197.275 398.434 176.302 397.873 174.904C397.312 173.505 375.996 180.497 375.996 180.497V174.904C375.996 173.971 296.339 176.768 292.974 177.234C289.608 177.7 276.706 183.293 271.096 183.759C265.487 184.225 19.2253 165.582 15.8595 166.048C12.4938 166.514 48.9562 172.108 51.2 172.573C53.4439 173.038 90.4672 210.793 94.3939 211.724C98.3207 212.656 302.51 218.251 307.559 217.784Z" fill="var(--fill-0, #030303)" stroke="var(--stroke-0, #030303)" stroke-width="1.94145"/>
<g id="Group 8">
<path id="Vector" d="M127.748 93.4525C127.705 93.6585 127.705 93.6585 127.708 93.9134C127.708 93.9831 127.708 93.9831 127.708 94.0542C127.708 94.2077 127.711 94.361 127.713 94.5144C127.714 94.6209 127.714 94.7273 127.715 94.8338C127.716 95.1138 127.72 95.3938 127.723 95.6738C127.727 95.9596 127.729 96.2454 127.73 96.5312C127.734 97.0919 127.74 97.6526 127.748 98.2133C128.071 98.2133 128.394 98.2133 128.728 98.2133C128.771 98.0445 128.771 98.0445 128.815 97.8722C129.132 96.6711 129.457 95.4912 130.338 94.5727C130.382 94.5269 130.425 94.4812 130.471 94.434C131.206 93.7315 132.114 93.5666 133.092 93.5715C133.903 93.5903 134.475 93.8558 135.081 94.3933C135.64 95.0298 135.925 95.7214 135.891 96.5825C135.562 99.9634 132.831 103.274 130.758 105.844C130.678 105.943 130.678 105.943 130.597 106.044C130.442 106.235 130.285 106.425 130.128 106.615C130.084 106.668 130.084 106.668 130.038 106.723C129.625 107.219 129.2 107.703 128.761 108.177C128.623 108.326 128.491 108.477 128.36 108.632C128.069 108.968 127.748 109.276 127.432 109.589C127.156 109.863 126.89 110.142 126.641 110.443C126.558 110.545 126.558 110.545 126.417 110.605C126.399 110.565 126.38 110.524 126.361 110.482C126.274 110.32 126.176 110.195 126.059 110.054C125.284 109.068 124.805 107.917 124.597 106.685C124.584 106.61 124.571 106.535 124.558 106.458C124.394 105.063 124.561 103.81 125.362 102.636C125.944 101.92 126.898 101.447 127.812 101.349C128.118 101.322 128.421 101.308 128.728 101.294C128.728 100.947 128.728 100.601 128.728 100.244C127.041 100.244 125.355 100.244 123.617 100.244C123.21 101.791 123.21 101.791 123.144 102.252C123.132 102.334 123.132 102.334 123.12 102.417C123.044 102.952 123.004 103.484 122.987 104.024C122.982 104.152 122.982 104.152 122.978 104.283C122.933 106.955 123.88 109.381 125.647 111.375C125.554 111.588 125.463 111.711 125.28 111.852C125.233 111.888 125.187 111.924 125.139 111.961C125.089 111.999 125.038 112.037 124.986 112.075C124.934 112.115 124.882 112.154 124.829 112.195C124.129 112.716 123.385 113.17 122.637 113.616C122.672 113.964 122.745 114.22 122.917 114.526C123.447 114.541 123.944 114.503 124.466 114.408C124.571 114.389 124.571 114.389 124.678 114.369C125.627 114.191 126.498 113.917 127.374 113.511C127.677 113.373 127.677 113.373 128.002 113.341C128.218 113.426 128.424 113.525 128.631 113.629C129.038 113.825 129.448 113.986 129.878 114.123C129.928 114.14 129.978 114.156 130.03 114.173C131.047 114.487 132.027 114.562 133.085 114.557C133.299 114.556 133.513 114.559 133.727 114.561C136.075 114.569 138.159 113.795 139.859 112.145C141.276 110.734 141.945 108.758 141.977 106.785C141.945 104.936 141.262 103.359 139.94 102.081C139.389 101.595 138.648 101.047 137.899 100.944C137.926 100.878 137.953 100.813 137.981 100.745C138.658 99.0585 138.917 97.2511 138.283 95.5113C138.123 95.1445 137.927 94.8232 137.689 94.5027C137.653 94.4533 137.618 94.404 137.581 94.3531C136.745 93.2999 135.302 92.7582 134.011 92.5686C132.183 92.3704 129.288 92.236 127.748 93.4525ZM137.549 101.574C138.783 103.051 139.227 104.605 139.074 106.526C138.906 108.167 138.343 109.736 137.199 110.955C137.146 111.015 137.093 111.074 137.038 111.135C135.877 112.377 134.092 113.141 132.402 113.211C131.148 113.244 130.022 113.058 128.868 112.566C129.084 112.342 129.308 112.133 129.541 111.927C129.906 111.6 130.256 111.258 130.602 110.911C130.702 110.81 130.802 110.711 130.902 110.611C131.265 110.247 131.614 109.876 131.948 109.485C132.05 109.372 132.152 109.26 132.254 109.148C132.586 108.781 132.899 108.401 133.208 108.015C133.237 107.979 133.266 107.943 133.295 107.907C134.742 106.101 136.015 104.193 137.144 102.174C137.177 102.116 137.21 102.058 137.244 101.997C137.287 101.92 137.287 101.92 137.33 101.841C137.409 101.703 137.409 101.703 137.549 101.574Z" fill="var(--fill-0, black)"/>
<path id="Vector_2" d="M122.286 75.3898C122.182 75.5577 122.182 75.5577 122.094 75.7661C122.049 75.8687 122.049 75.8687 122.003 75.9734C121.936 76.1599 121.936 76.1599 121.936 76.3699C123.759 77.1418 125.584 77.9086 127.411 78.6689C127.481 78.6979 127.55 78.7268 127.622 78.7566C127.691 78.7854 127.76 78.8141 127.831 78.8438C128.546 79.1413 129.26 79.4401 129.974 79.7392C130.036 79.765 130.097 79.7907 130.161 79.8173C130.47 79.9466 130.778 80.0759 131.087 80.2053C131.65 80.4409 132.212 80.6763 132.775 80.9118C133.088 81.0431 133.402 81.1744 133.716 81.3057C133.841 81.3582 133.967 81.4107 134.092 81.4633C134.154 81.4892 134.216 81.5152 134.28 81.542C134.845 81.7783 134.845 81.7783 135.033 81.8571C135.158 81.9096 135.284 81.9621 135.409 82.0146C135.723 82.146 136.037 82.2773 136.351 82.4087C136.912 82.6436 137.473 82.8786 138.034 83.1137C139.561 83.7534 141.089 84.3916 142.617 85.0276C142.678 85.053 142.738 85.0783 142.801 85.1044C142.934 85.1595 143.067 85.2137 143.201 85.2667C143.565 85.4127 143.905 85.5691 144.242 85.7709C146.055 86.7822 148.176 86.5783 150.186 86.564C150.781 86.56 151.375 86.5614 151.969 86.5629C153.079 86.5656 154.188 86.564 155.298 86.56C156.422 86.556 157.545 86.5541 158.669 86.5545C158.74 86.5545 158.811 86.5545 158.884 86.5546C159.247 86.5547 159.61 86.5549 159.973 86.5551C162.595 86.5563 165.216 86.5532 167.838 86.5478C170.433 86.5424 173.028 86.5389 175.622 86.5379C175.744 86.5378 175.744 86.5378 175.867 86.5378C176.604 86.5375 177.341 86.5373 178.078 86.537C179.91 86.5364 181.741 86.5356 183.573 86.5345C183.657 86.5344 183.74 86.5344 183.826 86.5343C187.88 86.532 191.933 86.5262 195.987 86.5202C197.393 86.5181 198.8 86.516 200.206 86.514C200.293 86.5139 200.38 86.5138 200.47 86.5137C204.527 86.5079 208.584 86.5045 212.641 86.5017C212.904 86.5015 213.168 86.5014 213.431 86.5012C215.177 86.5 216.924 86.4988 218.67 86.4977C222.144 86.4954 225.618 86.4929 229.092 86.4903C229.258 86.4901 229.423 86.49 229.589 86.4899C237.033 86.4842 244.478 86.4757 251.922 86.466C251.992 86.4659 252.062 86.4658 252.134 86.4657C255.619 86.4612 259.104 86.4564 262.589 86.4515C262.589 86.0819 262.589 85.7122 262.589 85.3314C262.488 85.3315 262.387 85.3317 262.284 85.3318C258.842 85.3368 255.399 85.3415 251.957 85.346C251.853 85.3462 251.853 85.3462 251.747 85.3463C244.312 85.3561 236.877 85.3638 229.442 85.3677C229.277 85.3678 229.112 85.3678 228.946 85.3679C225.477 85.3697 222.008 85.3712 218.539 85.3724C216.796 85.3731 215.054 85.3737 213.311 85.3744C213.048 85.3745 212.785 85.3746 212.522 85.3747C208.477 85.3764 204.431 85.3791 200.386 85.3851C200.255 85.3853 200.255 85.3853 200.122 85.3855C198.721 85.3876 197.32 85.3898 195.919 85.392C191.881 85.3984 187.843 85.404 183.805 85.405C183.722 85.405 183.639 85.4051 183.553 85.4051C181.728 85.4055 179.902 85.4056 178.077 85.4054C177.342 85.4053 176.607 85.4052 175.873 85.4052C175.792 85.4052 175.712 85.4052 175.629 85.4052C173.043 85.4051 170.458 85.4092 167.872 85.4156C165.265 85.4219 162.658 85.4241 160.051 85.4206C159.69 85.4201 159.328 85.4197 158.967 85.4193C158.896 85.4192 158.826 85.4191 158.753 85.419C157.637 85.4178 156.521 85.4211 155.405 85.4263C154.305 85.4313 153.204 85.4315 152.104 85.4267C151.516 85.4243 150.929 85.4239 150.342 85.4297C147.908 85.4526 145.787 85.3592 143.583 84.1909C142.991 83.8771 142.375 83.626 141.754 83.3744C141.444 83.2479 141.135 83.1179 140.826 82.9882C140.722 82.9445 140.722 82.9445 140.615 82.8998C139.907 82.6034 139.201 82.3046 138.494 82.0058C137.465 81.5708 136.435 81.1374 135.405 80.7063C135.343 80.6804 135.281 80.6545 135.217 80.6278C134.719 80.4193 134.22 80.2109 133.721 80.0025C133.285 79.82 132.848 79.6374 132.412 79.4548C132.319 79.416 132.319 79.416 132.224 79.3764C131.19 78.9437 130.158 78.5082 129.125 78.0718C128.02 77.6045 126.913 77.1392 125.805 76.6773C125.228 76.4362 124.651 76.1937 124.076 75.9463C123.925 75.8817 123.774 75.8172 123.623 75.7527C123.529 75.7125 123.436 75.672 123.343 75.6312C123.216 75.576 123.089 75.5219 122.963 75.4677C122.857 75.422 122.857 75.422 122.75 75.3754C122.556 75.3165 122.47 75.3072 122.286 75.3898Z" fill="var(--fill-0, black)"/>
<path id="Vector_3" d="M262.589 92.7527C261.36 92.7478 260.132 92.7441 258.904 92.7419C258.333 92.7408 257.763 92.7393 257.192 92.7369C256.694 92.7348 256.196 92.7334 255.698 92.733C255.435 92.7327 255.172 92.7321 254.909 92.7305C251.639 92.712 248.186 93.048 245.716 95.4132C245.645 95.4775 245.645 95.4775 245.573 95.5431C244.82 96.2491 244.31 97.1386 243.896 98.0736C243.876 98.1174 243.857 98.1612 243.837 98.2063C243.126 99.8457 242.956 101.649 242.959 103.416C242.959 103.518 242.959 103.518 242.959 103.621C242.967 106.562 243.6 109.375 245.716 111.516C245.757 111.562 245.799 111.608 245.841 111.656C246.376 112.246 247.13 112.657 247.834 113.012C247.877 113.034 247.92 113.055 247.964 113.078C248.644 113.409 249.344 113.608 250.083 113.76C250.159 113.777 250.236 113.794 250.314 113.812C251.961 114.155 253.632 114.208 255.307 114.197C255.565 114.196 255.822 114.196 256.08 114.196C256.564 114.195 257.048 114.193 257.532 114.191C258.084 114.189 258.637 114.188 259.189 114.187C260.322 114.185 261.456 114.181 262.589 114.176C262.589 113.806 262.589 113.437 262.589 113.056C261.711 113.056 260.833 113.056 259.928 113.056C259.928 106.726 259.928 100.395 259.928 93.8729C260.806 93.8729 261.684 93.8729 262.589 93.8729C262.589 93.5033 262.589 93.1336 262.589 92.7527ZM256.568 93.8729C256.568 100.203 256.568 106.534 256.568 113.056C252.346 113.168 252.346 113.168 248.656 111.306C246.714 109.287 246.61 106.14 246.613 103.504C246.613 103.396 246.613 103.396 246.613 103.286C246.615 102.267 246.618 101.255 246.766 100.244C246.776 100.179 246.785 100.115 246.795 100.049C247.032 98.4919 247.428 96.9539 248.516 95.7632C248.555 95.719 248.594 95.6748 248.633 95.6292C249.329 94.8769 250.285 94.5125 251.251 94.2492C251.3 94.2356 251.349 94.222 251.4 94.208C253.154 93.7545 254.707 93.8729 256.568 93.8729Z" fill="var(--fill-0, black)"/>
<path id="Vector_4" d="M237.385 92.7529C232.302 92.7529 227.219 92.7529 221.982 92.7529C221.982 94.6012 221.982 96.4495 221.982 98.3538C222.329 98.3538 222.675 98.3538 223.033 98.3538C223.063 98.2455 223.094 98.1372 223.125 98.0256C223.642 95.9459 223.642 95.9459 224.993 94.3632C225.905 93.9155 227.032 93.9229 228.027 93.9141C228.156 93.9122 228.156 93.9122 228.287 93.9104C228.601 93.906 228.915 93.9027 229.229 93.8993C229.933 93.8907 230.638 93.882 231.364 93.8731C231.364 96.6455 231.364 99.418 231.364 102.274C228.982 102.237 228.982 102.237 226.821 101.235C226.287 100.581 226.266 99.7908 226.183 98.9839C225.813 98.9839 225.444 98.9839 225.063 98.9839C225.063 101.502 225.063 104.02 225.063 106.615C225.433 106.615 225.802 106.615 226.183 106.615C226.209 106.362 226.209 106.362 226.236 106.103C226.318 105.411 226.453 104.694 227.023 104.235C228.29 103.418 229.937 103.513 231.364 103.395C231.364 106.583 231.364 109.771 231.364 113.056C227.461 113.065 227.461 113.065 223.951 111.402C223.261 110.627 222.99 109.624 222.801 108.628C222.782 108.534 222.763 108.44 222.745 108.346C222.7 108.119 222.656 107.892 222.612 107.665C222.243 107.665 221.873 107.665 221.492 107.665C221.6 109.173 221.711 110.68 221.833 112.187C221.845 112.34 221.857 112.494 221.869 112.648C221.887 112.864 221.904 113.08 221.922 113.296C221.927 113.361 221.932 113.426 221.937 113.493C221.942 113.552 221.947 113.612 221.952 113.673C221.956 113.725 221.96 113.777 221.965 113.83C221.982 113.966 221.982 113.966 222.052 114.176C227.112 114.176 232.172 114.176 237.385 114.176C237.385 113.807 237.385 113.437 237.385 113.056C236.484 113.056 235.583 113.056 234.654 113.056C234.654 106.726 234.654 100.395 234.654 93.8731C235.555 93.8731 236.456 93.8731 237.385 93.8731C237.385 93.5034 237.385 93.1338 237.385 92.7529Z" fill="var(--fill-0, black)"/>
<path id="Vector_5" d="M199.159 92.7529C197.472 92.7529 195.785 92.7529 194.048 92.7529C194.025 95.4329 194.002 98.1129 193.978 100.874C193.701 100.528 193.701 100.528 193.418 100.174C192.474 99.1161 191.089 98.4358 189.673 98.3423C188.291 98.281 187.008 98.4739 185.948 99.4346C185.895 99.4938 185.842 99.553 185.786 99.614C185.753 99.6482 185.719 99.6824 185.684 99.7176C184.978 100.471 184.727 101.601 184.728 102.608C184.728 102.675 184.728 102.675 184.728 102.744C184.728 102.894 184.728 103.043 184.728 103.193C184.728 103.3 184.728 103.408 184.728 103.516C184.728 103.807 184.729 104.098 184.729 104.389C184.73 104.694 184.73 104.999 184.73 105.304C184.73 105.881 184.731 106.457 184.731 107.034C184.732 107.691 184.732 108.348 184.733 109.004C184.734 110.355 184.735 111.706 184.736 113.056C184.043 113.056 183.35 113.056 182.636 113.056C182.636 113.426 182.636 113.795 182.636 114.176C185.039 114.176 187.442 114.176 189.917 114.176C189.917 113.807 189.917 113.437 189.917 113.056C189.201 113.056 188.485 113.056 187.747 113.056C187.751 111.667 187.756 110.278 187.763 108.89C187.766 108.245 187.769 107.6 187.771 106.955C187.773 106.392 187.775 105.83 187.778 105.267C187.78 104.97 187.781 104.672 187.782 104.375C187.782 104.094 187.783 103.813 187.786 103.532C187.786 103.43 187.786 103.328 187.786 103.225C187.786 102.242 187.864 101.183 188.544 100.411C189.079 99.953 189.727 99.8448 190.407 99.894C191.42 100.034 192.366 100.51 192.993 101.331C193.771 102.493 193.985 103.745 193.992 105.116C193.993 105.202 193.994 105.288 193.994 105.377C193.996 105.611 193.998 105.846 193.999 106.08C194.001 106.325 194.002 106.571 194.004 106.817C194.008 107.281 194.011 107.745 194.014 108.209C194.017 108.738 194.021 109.267 194.025 109.795C194.033 110.882 194.041 111.969 194.048 113.056C193.308 113.056 192.569 113.056 191.807 113.056C191.807 113.426 191.807 113.795 191.807 114.176C194.233 114.176 196.659 114.176 199.159 114.176C199.159 113.807 199.159 113.437 199.159 113.056C198.466 113.056 197.772 113.056 197.058 113.056C197.058 106.726 197.058 100.395 197.058 93.8731C197.751 93.8731 198.445 93.8731 199.159 93.8731C199.159 93.5034 199.159 93.1338 199.159 92.7529Z" fill="var(--fill-0, black)"/>
<path id="Vector_6" d="M167.444 98.7037C165.064 98.7037 162.684 98.7037 160.233 98.7037C160.233 99.0734 160.233 99.4431 160.233 99.8239C161.342 99.8586 161.342 99.8586 162.473 99.8939C162.416 100.131 162.359 100.369 162.301 100.613C162.111 101.408 161.921 102.203 161.732 102.998C161.617 103.479 161.502 103.96 161.387 104.441C160.397 108.578 160.397 108.578 160.023 110.606C159.25 107.969 158.493 105.329 157.74 102.687C157.661 102.411 157.582 102.135 157.504 101.859C157.449 101.666 157.394 101.474 157.339 101.281C157.306 101.164 157.273 101.048 157.239 100.932C157.217 100.852 157.217 100.852 157.194 100.772C157.137 100.571 157.078 100.372 157.012 100.174C156.273 100.174 155.533 100.174 154.772 100.174C154.64 100.482 154.528 100.749 154.438 101.065C154.416 101.141 154.394 101.217 154.371 101.296C154.336 101.418 154.336 101.418 154.3 101.543C154.262 101.676 154.223 101.809 154.185 101.941C154.13 102.131 154.076 102.32 154.022 102.509C153.951 102.754 153.88 102.999 153.81 103.244C153.796 103.293 153.781 103.342 153.767 103.393C153.738 103.492 153.71 103.592 153.681 103.691C153.638 103.841 153.595 103.99 153.551 104.14C153.376 104.75 153.198 105.359 153.018 105.968C152.598 107.387 152.188 108.801 151.869 110.247C151.836 110.398 151.836 110.398 151.761 110.536C151.515 109.5 151.269 108.464 151.023 107.428C150.909 106.946 150.795 106.465 150.681 105.983C150.549 105.427 150.416 104.87 150.284 104.314C150.274 104.269 150.263 104.224 150.252 104.177C149.913 102.75 149.576 101.322 149.241 99.8939C150.073 99.8708 150.904 99.8477 151.761 99.8239C151.761 99.4543 151.761 99.0846 151.761 98.7037C149.821 98.7037 147.88 98.7037 145.88 98.7037C145.88 99.0734 145.88 99.4431 145.88 99.8239C146.573 99.8239 147.267 99.8239 147.981 99.8239C148.027 100.101 148.073 100.378 148.121 100.664C148.167 100.882 148.216 101.098 148.267 101.315C148.289 101.405 148.289 101.405 148.31 101.496C148.357 101.693 148.403 101.89 148.45 102.087C148.484 102.229 148.517 102.37 148.551 102.512C148.622 102.815 148.694 103.118 148.766 103.42C148.936 104.14 149.106 104.86 149.276 105.58C149.315 105.745 149.354 105.91 149.393 106.074C149.676 107.274 149.958 108.475 150.237 109.677C150.271 109.825 150.306 109.973 150.34 110.121C150.487 110.754 150.634 111.387 150.781 112.02C150.84 112.278 150.9 112.535 150.96 112.792C150.988 112.911 151.015 113.03 151.043 113.149C151.08 113.311 151.117 113.472 151.155 113.633C151.166 113.681 151.177 113.728 151.188 113.777C151.263 114.098 151.263 114.098 151.341 114.176C151.507 114.182 151.672 114.184 151.838 114.183C151.913 114.183 151.913 114.183 151.988 114.183C152.148 114.182 152.307 114.181 152.466 114.181C152.573 114.18 152.681 114.18 152.789 114.18C153.053 114.179 153.317 114.178 153.582 114.176C154.899 109.783 154.899 109.783 155.525 107.64C155.57 107.485 155.615 107.331 155.661 107.177C156.022 105.946 156.347 104.708 156.662 103.464C156.888 104.265 157.114 105.066 157.34 105.867C157.357 105.927 157.374 105.987 157.392 106.05C157.941 107.997 158.488 109.944 159.034 111.892C159.05 111.95 159.066 112.008 159.083 112.068C159.28 112.771 159.476 113.473 159.672 114.176C160.435 114.176 161.197 114.176 161.983 114.176C162.253 113.056 162.523 111.936 162.792 110.816C162.813 110.732 162.833 110.648 162.854 110.561C163.478 107.968 164.101 105.375 164.722 102.782C164.74 102.708 164.757 102.634 164.776 102.558C164.988 101.67 165.201 100.782 165.413 99.8939C166.083 99.8708 166.753 99.8477 167.444 99.8239C167.444 99.4543 167.444 99.0846 167.444 98.7037Z" fill="var(--fill-0, black)"/>
<path id="Vector_7" d="M201.749 93.4528C201.749 95.0932 201.749 96.7335 201.749 98.4236C202.096 98.4236 202.442 98.4236 202.799 98.4236C202.823 98.3262 202.847 98.2288 202.871 98.1285C203.263 96.5822 203.799 95.1087 205.232 94.2475C206.285 93.6747 207.522 93.5672 208.68 93.8466C209.123 93.9803 209.494 94.1658 209.87 94.433C209.934 94.4748 209.997 94.5167 210.063 94.5599C210.71 95.1886 210.994 95.9947 211.011 96.8769C211.018 98.014 210.888 98.9982 210.057 99.8517C209.715 100.153 209.356 100.377 208.948 100.578C208.9 100.602 208.851 100.626 208.802 100.651C208.265 100.912 207.713 101.137 207.159 101.359C206.858 101.48 206.558 101.602 206.257 101.725C206.199 101.748 206.141 101.772 206.081 101.796C203.537 102.836 203.537 102.836 202.519 103.744C202.46 103.797 202.401 103.849 202.34 103.903C201.266 104.914 200.807 106.238 200.756 107.692C200.719 109.44 201.133 111.047 202.361 112.337C202.413 112.39 202.465 112.442 202.519 112.496C202.566 112.544 202.612 112.592 202.66 112.641C204.203 114.132 206.509 114.472 208.558 114.474C208.614 114.474 208.67 114.474 208.728 114.474C209.613 114.473 210.472 114.435 211.341 114.246C211.396 114.234 211.451 114.222 211.508 114.21C212.155 114.064 212.785 113.867 213.41 113.647C213.467 113.627 213.525 113.607 213.583 113.587C213.662 113.558 213.662 113.558 213.743 113.528C213.813 113.503 213.813 113.503 213.884 113.477C214.043 113.38 214.072 113.299 214.141 113.126C214.165 112.966 214.182 112.805 214.195 112.644C214.2 112.597 214.204 112.549 214.208 112.499C214.221 112.342 214.234 112.184 214.247 112.026C214.256 111.916 214.265 111.806 214.274 111.696C214.294 111.465 214.312 111.235 214.331 111.004C214.355 110.709 214.379 110.414 214.404 110.119C214.428 109.838 214.451 109.556 214.474 109.274C214.479 109.22 214.483 109.167 214.488 109.112C214.5 108.959 214.512 108.807 214.525 108.655C214.532 108.568 214.539 108.482 214.546 108.392C214.56 108.174 214.561 107.954 214.561 107.735C214.215 107.735 213.868 107.735 213.511 107.735C213.474 107.867 213.474 107.867 213.436 108.002C212.893 109.904 212.045 111.726 210.243 112.733C208.981 113.343 207.505 113.469 206.16 113.056C205.131 112.658 204.559 112.116 204.112 111.113C203.793 110.26 203.735 109.286 204.064 108.431C204.375 107.754 204.802 107.179 205.309 106.636C205.447 106.488 205.578 106.336 205.709 106.182C206.28 105.529 206.931 105.112 207.731 104.792C207.859 104.74 207.987 104.687 208.115 104.635C208.181 104.608 208.247 104.581 208.315 104.554C212.846 102.707 212.846 102.707 213.857 100.376C214.41 98.8729 214.332 97.1622 213.721 95.6932C213.016 94.3249 211.788 93.4217 210.349 92.95C210.098 92.8742 209.846 92.8112 209.59 92.7527C209.541 92.7412 209.492 92.7298 209.442 92.718C206.922 92.1604 204.133 92.5589 201.749 93.4528Z" fill="var(--fill-0, black)"/>
<path id="Vector_8" d="M102.614 92.6826C102.516 92.7017 102.516 92.7017 102.417 92.7212C101.592 92.8867 100.828 93.1146 100.023 93.3827C100.023 95.023 100.023 96.6634 100.023 98.3535C100.347 98.3535 100.67 98.3535 101.003 98.3535C101.031 98.2603 101.059 98.1672 101.088 98.0712C101.582 96.4822 102.285 95.1221 103.813 94.3174C105.194 93.6487 107.001 93.4338 108.477 93.9201C110.04 94.5577 111.125 95.6014 111.797 97.1534C113.338 100.907 113.311 106.033 111.798 109.796C111.288 110.914 110.567 111.896 109.475 112.496C109.418 112.528 109.361 112.56 109.302 112.593C107.948 113.319 106.163 113.444 104.684 113.049C103.966 112.831 103.337 112.502 102.801 111.971C102.684 111.866 102.684 111.866 102.544 111.866C102.525 111.825 102.506 111.784 102.487 111.742C102.402 111.582 102.307 111.464 102.189 111.327C101.582 110.555 101.204 109.652 100.933 108.715C100.913 108.645 100.913 108.645 100.892 108.574C100.81 108.295 100.731 108.015 100.653 107.735C100.284 107.735 99.9139 107.735 99.5331 107.735C99.5865 108.383 99.64 109.03 99.6938 109.678C99.7187 109.978 99.7436 110.279 99.7684 110.58C99.7923 110.87 99.8164 111.161 99.8406 111.451C99.8497 111.562 99.8589 111.672 99.8679 111.783C99.8807 111.938 99.8937 112.094 99.9066 112.249C99.9176 112.382 99.9176 112.382 99.9288 112.517C99.9546 112.791 99.9877 113.063 100.023 113.336C102.819 114.462 106.012 114.835 108.985 114.246C109.044 114.234 109.103 114.223 109.164 114.211C111.548 113.721 113.675 112.516 115.049 110.475C116.213 108.671 116.754 106.489 116.772 104.353C116.773 104.286 116.774 104.219 116.775 104.15C116.799 101.126 116.514 98.0078 114.445 95.623C114.399 95.5665 114.352 95.5099 114.305 95.4516C112.976 93.8878 111.026 93.0751 109.055 92.6826C108.997 92.671 108.939 92.6595 108.88 92.6475C106.901 92.277 104.584 92.2826 102.614 92.6826Z" fill="var(--fill-0, black)"/>
<path id="Vector_9" d="M170.266 99.658C169.626 100.25 169.226 101.136 169.187 102.008C169.184 102.194 169.183 102.38 169.183 102.565C169.182 102.636 169.182 102.707 169.182 102.78C169.181 102.933 169.18 103.086 169.18 103.239C169.179 103.483 169.178 103.727 169.176 103.971C169.172 104.665 169.168 105.358 169.166 106.052C169.164 106.477 169.162 106.902 169.159 107.327C169.158 107.487 169.157 107.648 169.157 107.808C169.179 110.388 169.179 110.388 168.074 112.636C167.811 112.872 167.549 113.039 167.234 113.196C167.234 113.543 167.234 113.889 167.234 114.247C168.354 114.433 169.558 114.419 170.524 113.756C171.079 113.357 171.403 112.85 171.644 112.216C171.673 112.265 171.702 112.314 171.732 112.365C172.173 113.09 172.642 113.571 173.395 113.966C173.469 114.006 173.469 114.006 173.545 114.047C174.939 114.733 176.877 114.672 178.33 114.203C179.42 113.822 180.21 113.142 180.725 112.107C180.968 111.459 181.063 110.842 181.056 110.151C181.056 110.074 181.055 109.997 181.055 109.918C181.044 109.383 180.995 108.918 180.746 108.436C180.716 108.375 180.686 108.315 180.656 108.253C179.666 106.433 177.302 105.916 175.482 105.342C175.308 105.287 175.135 105.232 174.962 105.176C174.557 105.047 174.151 104.919 173.746 104.792C173.554 104.731 173.362 104.67 173.171 104.609C173.069 104.576 172.968 104.544 172.866 104.511C172.782 104.485 172.698 104.458 172.611 104.43C172.414 104.375 172.414 104.375 172.204 104.375C172.207 103.982 172.212 103.588 172.219 103.195C172.221 103.061 172.222 102.928 172.223 102.794C172.226 101.41 172.226 101.41 172.904 100.244C172.904 100.198 172.904 100.152 172.904 100.104C172.944 100.085 172.984 100.065 173.025 100.045C173.241 99.9356 173.449 99.8138 173.659 99.6927C174.256 99.3912 175.179 99.4667 175.816 99.5945C176 99.6584 176.164 99.73 176.335 99.8243C176.382 99.8496 176.429 99.875 176.477 99.9011C176.975 100.212 177.205 100.708 177.348 101.261C177.379 101.463 177.392 101.647 177.396 101.85C177.397 101.912 177.399 101.974 177.4 102.038C177.402 102.161 177.401 102.285 177.398 102.409C177.401 102.835 177.401 102.835 177.555 103.036C177.979 103.414 178.36 103.49 178.912 103.491C178.966 103.493 179.02 103.495 179.075 103.496C179.555 103.499 179.909 103.363 180.273 103.05C180.707 102.532 180.803 102.106 180.746 101.435C180.615 100.711 180.247 100.08 179.682 99.6104C179.013 99.1465 178.246 98.819 177.455 98.6341C177.323 98.6028 177.323 98.6028 177.189 98.5709C174.988 98.1133 172.074 98.1898 170.266 99.658ZM172.477 105.653C172.535 105.672 172.593 105.691 172.653 105.711C172.924 105.801 173.194 105.892 173.464 105.983C173.605 106.031 173.747 106.078 173.888 106.124C174.582 106.354 175.267 106.585 175.923 106.911C175.967 106.933 176.011 106.955 176.057 106.978C176.814 107.373 177.201 107.972 177.473 108.759C177.701 109.787 177.694 110.913 177.207 111.868C176.812 112.47 176.33 112.813 175.635 112.986C175.415 113.015 175.2 113.02 174.979 113.017C174.921 113.017 174.863 113.016 174.803 113.016C174.122 112.998 173.509 112.805 173.008 112.324C172.188 111.44 172.101 110.286 172.114 109.134C172.114 109.03 172.114 108.927 172.115 108.823C172.115 108.553 172.118 108.284 172.12 108.014C172.122 107.738 172.123 107.461 172.124 107.185C172.126 106.645 172.13 106.105 172.134 105.565C172.255 105.565 172.364 105.615 172.477 105.653Z" fill="var(--fill-0, black)"/>
<path id="Vector_10" d="M90.4313 98.4236C90.3678 98.4269 90.3042 98.4303 90.2388 98.4337C88.3594 98.5388 86.4233 98.8703 85.0779 100.325C84.3923 101.148 83.8839 102.14 83.6402 103.184C83.6276 103.235 83.615 103.285 83.602 103.337C83.3517 104.37 83.3321 105.4 83.3296 106.457C83.3291 106.524 83.3287 106.59 83.3283 106.659C83.3202 108.593 83.57 110.731 84.8304 112.286C84.8763 112.344 84.9221 112.402 84.9694 112.462C85.996 113.685 87.5594 114.285 89.1191 114.443C89.5661 114.473 90.0141 114.473 90.4619 114.474C90.515 114.474 90.5682 114.474 90.6229 114.474C92.4916 114.471 94.2789 114.113 95.6821 112.776C97.3817 110.965 97.7104 108.407 97.649 106.018C97.5647 103.777 97.1802 101.571 95.5101 99.9354C94.1436 98.7389 92.2089 98.3239 90.4313 98.4236ZM92.8642 100.418C94.2777 101.996 94.3678 104.378 94.3694 106.383C94.3695 106.443 94.3696 106.503 94.3697 106.565C94.368 108.614 94.2401 110.891 92.8117 112.496C92.2025 113.095 91.3644 113.342 90.5276 113.353C89.5497 113.345 88.7877 113.06 88.0783 112.394C86.6598 110.883 86.5648 108.412 86.5632 106.462C86.5632 106.41 86.5631 106.359 86.5631 106.305C86.566 104.265 86.7171 101.874 88.1869 100.309C89.4665 99.1123 91.6235 99.2151 92.8642 100.418Z" fill="var(--fill-0, black)"/>
<path id="Vector_11" d="M118.856 85.2613C107.466 85.2613 96.0757 85.2613 84.3405 85.2613C84.3405 85.6309 84.3405 86.0006 84.3405 86.3815C95.7306 86.3815 107.121 86.3815 118.856 86.3815C118.856 86.0118 118.856 85.6421 118.856 85.2613Z" fill="var(--fill-0, black)"/>
</g>
</g>
</svg>
