<svg preserveAspectRatio="none" width="100%" height="100%" overflow="visible" style="display: block;" viewBox="0 0 322.146 362.02" fill="none" xmlns="http://www.w3.org/2000/svg">
<g id="small mountain">
<path id="Vector 75" d="M321.5 316C320.111 303.346 300 291.5 300 291.5L233.5 295L185 338C185 338 225 361 230.5 361.5C236 362 238.294 353.153 244.5 349.5C261.173 339.686 276.867 356.487 294 347.5L294.231 347.379C308.618 339.832 323.272 332.146 321.5 316Z" fill="var(--fill-0, white)" stroke="var(--stroke-0, white)"/>
<path id="Vector 70" d="M110.5 68C107.5 62 0 0 0 0L15.5 315L189 337C189 337 224.5 349 228.5 348C232.5 347 237.5 339.5 242 337C246.5 334.5 274.5 331.5 292 328.5C309.5 325.5 312.5 316 309.5 305.5C306.5 295 305.5 260 298 254.5C290.5 249 262.5 235 258.5 231.5C254.5 228 232.5 189 228.5 184.5C224.5 180 167 149 164 147C161 145 113.5 74 110.5 68Z" fill="var(--fill-0, #755848)"/>
</g>
</svg>
