<svg preserveAspectRatio="none" width="100%" height="100%" overflow="visible" style="display: block;" viewBox="0 0 369.362 271.658" fill="none" xmlns="http://www.w3.org/2000/svg">
<g id="m&#38;t boat">
<path id="Vector 126" d="M29.747 205.114C32.66 198.542 69.5767 207.315 69.5767 207.315L324.415 209.042C324.415 209.042 340.326 210.552 341.849 217.118C343.372 223.683 340.065 232.984 334.482 236.691C328.899 240.399 278.461 246.9 264.974 248.279C251.488 249.658 89.8219 242.886 77.8667 234.25C65.9115 225.614 26.834 211.686 29.747 205.114Z" fill="var(--fill-0, #65A7E6)"/>
<path id="Vector 61" d="M248.066 130.808C248.02 89.5968 264.238 25.9297 264.238 25.9297C264.238 25.9297 155.929 -0.289504 104.47 37.6223C53.0112 75.534 2.04229 178.996 2.04229 178.996C2.04229 178.996 37.4168 168.114 61.3427 164.468C135.635 153.148 252.966 188.208 252.966 188.208C252.966 188.208 248.09 153.267 248.066 130.808Z" fill="var(--fill-0, #E2F3FE)" stroke="var(--stroke-0, #E2F3FE)" stroke-width="2.12591"/>
<path id="Vector 62" d="M278.941 102.816C285.031 136.047 262.768 187.853 262.768 187.853L353.434 171.909C353.434 171.909 345.794 155.289 339.712 144.98C318.239 108.585 262.768 60.2982 262.768 60.2982C262.768 60.2982 275.813 85.7448 278.941 102.816Z" fill="var(--fill-0, #E2F3FE)" stroke="var(--stroke-0, #E2F3FE)" stroke-width="2.12591"/>
<path id="Vector 63" d="M268.649 1.12695L266.199 21.6774C266.199 21.6774 276 20.6145 283.352 20.6145C293.421 20.6145 299.357 20.2531 307.856 24.1577C316.1 27.9456 315.656 32.3877 323.539 36.5588C331.011 40.513 336.846 41.3954 346.083 41.8736C355.184 42.3448 369.117 39.0391 369.117 39.0391C369.117 39.0391 356.344 40.4113 348.533 39.0391C340.798 37.6801 336.342 36.1371 330.4 32.307C322.156 26.9932 324.606 20.1392 317.168 14.2368C303.545 3.42643 268.649 1.12695 268.649 1.12695Z" fill="var(--fill-0, #017755)" stroke="var(--stroke-0, #017755)" stroke-width="2.12591"/>
<path id="Vector 64" d="M269.139 221.159C273.55 220.804 344.613 209.113 346.083 207.341C347.553 205.568 348.533 189.625 348.043 188.562C347.553 187.499 328.93 192.814 328.93 192.814V188.562C328.93 187.853 259.338 189.979 256.397 190.333C253.457 190.688 242.185 194.939 237.284 195.294C232.383 195.648 17.2352 181.475 14.2947 181.83C11.3542 182.184 43.2097 186.437 45.1701 186.79C47.1305 187.144 79.4761 215.845 82.9067 216.553C86.3373 217.261 264.729 221.514 269.139 221.159Z" fill="var(--fill-0, #017755)" stroke="var(--stroke-0, #017755)" stroke-width="2.12591"/>
<g id="Group 8">
<path id="Vector" d="M129.477 94.7151C138.108 95.6002 146.739 96.4852 155.632 97.3971C155.35 100.148 155.068 102.9 154.777 105.734C154.134 105.668 153.49 105.602 152.827 105.534C152.829 105.357 152.83 105.179 152.831 104.996C152.824 103.149 152.384 101.179 151.045 99.8222C149.502 98.3899 147.706 98.2801 145.65 98.0041C144.719 107.079 143.789 116.154 142.83 125.504C143.94 125.617 145.049 125.731 146.192 125.848C146.137 126.381 146.083 126.913 146.027 127.462C145.83 127.506 145.713 127.506 145.516 127.486C145.455 127.48 145.393 127.474 145.329 127.468C145.261 127.461 145.193 127.454 145.122 127.446C145.05 127.439 144.978 127.432 144.903 127.424C144.66 127.4 144.416 127.375 144.173 127.35C143.998 127.332 143.824 127.314 143.65 127.297C143.225 127.254 142.8 127.21 142.375 127.167C142.029 127.131 141.683 127.096 141.337 127.061C140.355 126.961 139.373 126.86 138.391 126.76C138.311 126.751 138.311 126.751 138.23 126.743C138.177 126.738 138.124 126.732 138.07 126.727C137.213 126.639 136.356 126.552 135.499 126.465C134.617 126.375 133.736 126.285 132.855 126.195C132.361 126.144 131.867 126.094 131.373 126.044C130.907 125.997 130.441 125.949 129.975 125.901C129.805 125.883 129.635 125.866 129.465 125.849C128.295 125.732 127.107 125.612 126 125.192C125.946 125.172 125.892 125.152 125.837 125.132C124.522 124.625 123.462 123.794 122.601 122.682C122.557 122.705 122.513 122.727 122.468 122.751C118.438 124.814 113.861 125.171 109.534 123.812C107.933 123.283 106.394 122.536 105.213 121.307C105.159 121.252 105.106 121.198 105.051 121.142C103.867 119.893 103.308 118.326 103.247 116.621C103.257 116.272 103.289 115.927 103.328 115.58C103.333 115.535 103.338 115.489 103.343 115.443C103.553 113.55 104.297 112.011 105.778 110.802C105.858 110.737 105.937 110.671 106.015 110.604C106.313 110.354 106.618 110.146 106.958 109.957C107.01 109.927 107.063 109.898 107.117 109.868C109.83 108.395 109.83 108.395 110.807 108.495C110.59 108.144 110.369 107.799 110.136 107.458C108.78 105.409 108.567 103.132 108.95 100.763C109.311 98.9887 110.351 97.4654 111.82 96.4206C114.217 94.8884 117.146 94.8118 119.859 95.381C121.803 95.8116 123.614 96.7308 124.761 98.4103C125.614 99.8593 125.833 101.525 125.467 103.159C125.191 104.215 124.602 105.1 123.786 105.818C123.736 105.864 123.685 105.91 123.633 105.957C122.094 107.292 120.003 107.888 118.084 108.426C118.224 108.601 118.365 108.775 118.506 108.949C118.545 108.998 118.584 109.047 118.624 109.097C118.813 109.331 119.005 109.558 119.213 109.775C119.637 110.225 120.014 110.718 120.401 111.2C120.861 111.778 120.861 111.778 121.352 112.329C121.772 112.767 122.14 113.254 122.52 113.727C122.979 114.305 122.979 114.305 123.47 114.854C123.698 115.092 123.905 115.346 124.111 115.602C124.146 115.646 124.182 115.69 124.218 115.734C124.364 115.917 124.511 116.099 124.657 116.282C124.765 116.417 124.873 116.551 124.981 116.685C125.014 116.726 125.047 116.768 125.08 116.81C125.237 117.004 125.377 117.167 125.6 117.282C125.62 117.248 125.64 117.214 125.661 117.179C125.764 117.025 125.878 116.886 125.997 116.744C126.89 115.672 127.587 114.344 127.471 112.909C127.37 112.2 127.11 111.556 126.578 111.064C125.806 110.489 125.105 110.289 124.159 110.136C124.214 109.604 124.268 109.071 124.324 108.523C127.386 108.837 130.448 109.151 133.603 109.474C133.548 110.007 133.494 110.539 133.438 111.088C133.255 111.093 133.072 111.098 132.884 111.103C132.116 111.141 131.294 111.34 130.728 111.898C130.674 111.963 130.674 111.963 130.619 112.03C130.583 112.073 130.547 112.116 130.51 112.16C130.043 112.842 129.804 113.63 129.531 114.402C129.172 115.415 128.766 116.364 128.159 117.256C128.122 117.312 128.084 117.369 128.045 117.427C127.787 117.807 127.515 118.165 127.211 118.509C127.089 118.659 127.004 118.807 126.921 118.98C126.976 119.042 127.03 119.104 127.087 119.167C127.557 119.7 128.015 120.241 128.458 120.796C128.721 121.124 128.999 121.432 129.288 121.737C129.356 121.811 129.423 121.885 129.491 121.959C130.134 122.658 130.817 123.268 131.628 123.769C131.688 123.807 131.688 123.807 131.749 123.845C133.18 124.693 134.618 124.625 136.308 124.835C137.239 115.76 138.169 106.685 139.128 97.3354C135.723 97.0462 135.723 97.0462 132.814 98.5309C132.412 98.9032 132.104 99.3189 131.812 99.7785C131.745 99.8827 131.745 99.8827 131.678 99.989C131.077 101.003 130.787 102.103 130.572 103.252C129.929 103.186 129.285 103.12 128.622 103.052C128.904 100.301 129.186 97.5498 129.477 94.7151ZM115.436 97.5584C114.469 98.508 114.271 99.8044 114.215 101.099C114.237 103.001 115.082 104.716 116.164 106.229C116.193 106.271 116.222 106.312 116.251 106.355C116.413 106.575 116.413 106.575 116.663 106.659C116.903 106.582 117.114 106.468 117.329 106.34C117.374 106.314 117.419 106.288 117.465 106.261C119.043 105.326 120.11 103.926 120.577 102.151C120.887 100.862 120.952 99.4648 120.292 98.2745C119.861 97.5728 119.308 97.1242 118.523 96.8531C117.365 96.6136 116.351 96.7676 115.436 97.5584ZM111.25 110.758C109.982 111.83 109.574 113.52 109.425 115.107C109.29 116.896 109.82 118.56 110.985 119.937C112.139 121.193 113.695 121.798 115.358 121.961C115.408 121.966 115.459 121.971 115.511 121.976C117.467 122.168 119.491 122.037 121.266 121.118C120.961 120.661 120.62 120.238 120.273 119.813C120.211 119.737 120.15 119.66 120.088 119.584C119.958 119.425 119.829 119.267 119.7 119.108C119.535 118.906 119.371 118.704 119.206 118.502C119.079 118.345 118.951 118.188 118.823 118.031C118.762 117.956 118.702 117.882 118.641 117.807C118.248 117.323 118.248 117.323 117.83 116.859C117.544 116.558 117.284 116.235 117.023 115.912C116.932 115.799 116.841 115.686 116.749 115.573C116.522 115.293 116.296 115.013 116.069 114.733C115.877 114.495 115.685 114.258 115.492 114.02C115.403 113.91 115.314 113.8 115.225 113.69C114.952 113.353 114.674 113.026 114.376 112.712C114.165 112.484 113.973 112.242 113.779 112C113.735 111.947 113.692 111.893 113.647 111.838C113.511 111.669 113.374 111.5 113.238 111.331C113.057 111.106 112.875 110.882 112.694 110.657C112.631 110.58 112.631 110.58 112.567 110.5C112.529 110.453 112.491 110.406 112.451 110.357C112.417 110.315 112.384 110.273 112.349 110.23C112.12 109.973 111.469 110.591 111.25 110.758Z" fill="var(--fill-0, #017755)"/>
<path id="Vector_2" d="M69.6367 88.5797C72.9871 88.9232 76.3374 89.2668 79.7893 89.6207C80.0151 90.4118 80.2409 91.2029 80.4735 92.0179C80.6211 92.5347 80.7687 93.0515 80.9165 93.5682C80.9353 93.6339 80.9541 93.6997 80.9734 93.7674C81.6502 96.1336 82.3317 98.4984 83.013 100.863C83.2206 101.584 83.4282 102.305 83.6357 103.026C84.241 105.129 84.8463 107.232 85.454 109.334C85.4994 109.491 85.5448 109.648 85.5902 109.805C85.6508 110.015 85.7115 110.225 85.7721 110.435C85.7897 110.495 85.8072 110.556 85.8252 110.618C85.9067 110.904 85.9067 110.904 86.0031 111.184C86.0444 111.105 86.0856 111.026 86.1281 110.945C86.9487 109.371 87.7696 107.797 88.5912 106.224C88.672 106.069 88.7528 105.914 88.8336 105.759C89.5641 104.36 90.2991 102.963 91.0379 101.568C91.8007 100.127 92.5587 98.6833 93.3178 97.2403C93.438 97.0119 93.5581 96.7835 93.6783 96.555C93.8703 96.1902 94.0622 95.8253 94.2542 95.4604C94.3284 95.3193 94.4026 95.1782 94.4769 95.037C94.8448 94.3378 95.2123 93.6384 95.5779 92.938C95.6342 92.8303 95.6904 92.7226 95.7467 92.6149C95.8489 92.4192 95.9509 92.2234 96.0528 92.0275C96.0971 91.9424 96.1415 91.8574 96.1859 91.7723C96.2428 91.6631 96.2428 91.6631 96.3008 91.5516C96.3897 91.3909 96.3897 91.3909 96.4639 91.3306C96.5913 91.3371 96.7185 91.3484 96.8455 91.3615C96.9282 91.3699 97.0109 91.3783 97.0961 91.3869C97.1885 91.3967 97.281 91.4064 97.3734 91.4161C97.4701 91.426 97.5669 91.436 97.6636 91.4458C97.927 91.4728 98.1903 91.5002 98.4536 91.5277C98.7285 91.5563 99.0035 91.5845 99.2784 91.6128C99.7994 91.6665 100.32 91.7204 100.841 91.7745C101.434 91.8361 102.027 91.8973 102.62 91.9584C103.84 92.0842 105.06 92.2105 106.28 92.3371C106.226 92.8697 106.171 93.4022 106.115 93.9508C104.917 93.828 103.719 93.7051 102.484 93.5785C101.554 102.653 100.623 111.728 99.6643 121.078C100.685 121.183 101.706 121.287 102.757 121.395C102.703 121.928 102.648 122.46 102.592 123.009C98.4869 122.588 94.3822 122.167 90.153 121.733C90.2076 121.201 90.2622 120.668 90.3185 120.12C91.3391 120.224 92.3598 120.329 93.4114 120.437C94.1855 112.669 94.9596 104.901 95.7572 96.8974C95.2531 97.8771 94.7491 98.8567 94.2298 99.8661C92.1296 103.948 90.0294 108.03 87.9293 112.112C87.8978 112.173 87.8663 112.235 87.8338 112.298C87.7702 112.422 87.7065 112.545 87.6429 112.669C87.4839 112.978 87.3249 113.287 87.166 113.596C86.878 114.156 86.5901 114.715 86.3021 115.275C86.2051 115.463 86.1081 115.652 86.0111 115.84C85.8839 116.087 85.7567 116.335 85.6295 116.582C85.3089 117.204 84.989 117.828 84.6701 118.451C84.5755 118.636 84.4809 118.821 84.3864 119.006C84.297 119.18 84.2079 119.355 84.1188 119.53C84.0651 119.635 84.0114 119.74 83.9577 119.845C83.9332 119.893 83.9087 119.941 83.8835 119.99C83.7154 120.318 83.7154 120.318 83.6328 120.385C83.5076 120.378 83.3826 120.367 83.2579 120.354C83.1823 120.346 83.1067 120.338 83.0288 120.329C82.9095 120.316 82.9095 120.316 82.7878 120.303C82.7079 120.294 82.6281 120.286 82.5458 120.277C82.3478 120.256 82.1499 120.235 81.9519 120.213C81.9398 120.169 81.9277 120.126 81.9152 120.081C81.2236 117.589 81.2236 117.589 80.5184 115.102C80.1972 113.983 79.8801 112.863 79.5635 111.743C79.5364 111.647 79.5093 111.551 79.4823 111.455C79.3321 110.924 79.182 110.393 79.0319 109.862C78.8937 109.372 78.7555 108.883 78.6173 108.394C78.4042 107.64 78.1912 106.886 77.9781 106.132C77.8119 105.543 77.6457 104.955 77.4795 104.367C77.4558 104.283 77.4321 104.199 77.4077 104.113C77.2885 103.691 77.1693 103.269 77.0501 102.847C76.8309 102.071 76.6118 101.295 76.3928 100.52C76.3045 100.207 76.2161 99.8935 76.1277 99.5804C76.0684 99.3703 76.0091 99.1602 75.9498 98.9502C75.5606 97.5704 75.1665 96.192 74.7726 94.8135C73.9564 102.555 73.1402 110.296 72.2992 118.272C73.5861 118.404 74.873 118.536 76.1989 118.672C76.1443 119.204 76.0897 119.737 76.0335 120.286C73.0825 119.983 70.1315 119.68 67.0911 119.369C67.1457 118.836 67.2003 118.304 67.2565 117.755C68.255 117.857 69.2534 117.96 70.2822 118.065C71.2127 108.99 72.1432 99.9155 73.102 90.5656C71.9038 90.4428 70.7057 90.3199 69.4712 90.1933C69.5258 89.6608 69.5804 89.1283 69.6367 88.5797Z" fill="var(--fill-0, #017755)"/>
<path id="Vector_3" d="M162.019 98.0522C174.086 99.2896 174.086 99.2896 175.286 99.7013C175.38 99.7331 175.38 99.7331 175.475 99.7655C177.437 100.445 179.194 101.672 180.119 103.578C181.013 105.544 180.979 107.957 180.242 109.964C180.178 110.12 180.113 110.277 180.045 110.432C180.015 110.502 179.985 110.572 179.954 110.644C179.176 112.311 177.748 113.379 176.061 114.018C175.61 114.179 175.153 114.283 174.682 114.366C174.904 114.469 175.128 114.565 175.357 114.654C176.761 115.208 177.913 115.933 178.885 117.107C178.931 117.163 178.977 117.218 179.024 117.275C180.296 118.909 180.497 120.972 180.27 122.965C180.057 124.608 179.45 126.222 178.301 127.443C178.243 127.505 178.184 127.567 178.124 127.631C176.718 129.077 174.714 129.753 172.741 129.947C172.69 129.952 172.639 129.957 172.586 129.962C168.013 130.351 163.434 129.247 158.868 128.779C159.908 118.639 160.948 108.499 162.019 98.0522ZM163.864 99.94C163.441 104.067 163.017 108.194 162.581 112.446C163.984 112.593 165.388 112.739 166.833 112.89C167.494 112.96 167.494 112.96 168.168 113.031C168.568 113.072 168.568 113.072 168.968 113.114C169.145 113.132 169.321 113.151 169.497 113.169C171.88 113.423 174.452 113.609 176.464 112.053C176.519 112.008 176.575 111.963 176.632 111.916C176.683 111.876 176.735 111.835 176.788 111.793C177.978 110.79 178.469 109.212 178.647 107.715C178.779 106.002 178.47 104.439 177.394 103.082C176.84 102.44 176.141 101.963 175.38 101.596C175.317 101.566 175.253 101.535 175.188 101.503C173.93 100.931 172.6 100.807 171.242 100.676C171.007 100.653 170.773 100.629 170.538 100.605C169.856 100.536 169.174 100.469 168.492 100.402C166.201 100.173 166.201 100.173 163.864 99.94ZM162.416 114.06C161.965 118.453 161.515 122.846 161.051 127.372C163.33 127.612 163.33 127.612 165.655 127.857C166.132 127.908 166.608 127.959 167.099 128.011C167.533 128.056 167.533 128.056 167.967 128.101C168.158 128.121 168.348 128.141 168.539 128.162C171.104 128.439 173.881 128.541 176.043 126.885C176.944 126.108 177.552 125.135 177.906 124.005C177.929 123.933 177.951 123.861 177.975 123.787C178.475 121.997 178.393 120.054 177.53 118.395C176.707 116.938 175.315 116.048 173.766 115.512C173.685 115.484 173.685 115.484 173.601 115.454C172.348 115.041 171.045 114.925 169.74 114.797C169.507 114.774 169.274 114.75 169.041 114.726C168.364 114.657 167.687 114.59 167.01 114.522C165.494 114.369 163.978 114.217 162.416 114.06Z" fill="var(--fill-0, #017755)"/>
<path id="Vector_4" d="M224.885 104.499C225.528 104.565 226.172 104.631 226.835 104.699C226.12 111.89 225.405 119.081 224.668 126.49C225.537 125.739 225.537 125.739 226.387 124.968C226.52 124.848 226.654 124.728 226.789 124.61C227.042 124.385 227.295 124.159 227.546 123.931C227.797 123.704 228.05 123.478 228.304 123.253C228.526 123.056 228.747 122.858 228.964 122.654C229.233 122.401 229.511 122.158 229.788 121.914C230.129 121.614 230.466 121.31 230.802 121.004C231.197 120.645 231.593 120.289 231.992 119.935C232.321 119.643 232.647 119.348 232.972 119.052C233.367 118.694 233.764 118.337 234.163 117.983C234.492 117.691 234.817 117.396 235.143 117.101C236.18 116.158 236.18 116.158 236.534 115.859C236.645 115.76 236.645 115.76 236.738 115.625C236.873 115.458 236.972 115.367 237.165 115.27C237.587 115.245 237.991 115.303 238.408 115.363C238.522 115.378 238.637 115.392 238.751 115.406C239.029 115.44 239.308 115.478 239.585 115.518C239.299 115.794 239.008 116.062 238.709 116.324C238.63 116.393 238.552 116.462 238.473 116.531C238.434 116.566 238.395 116.6 238.354 116.636C238.173 116.795 237.993 116.955 237.812 117.115C237.778 117.146 237.744 117.176 237.709 117.207C237.499 117.394 237.291 117.582 237.083 117.771C236.749 118.074 236.41 118.373 236.072 118.671C235.857 118.86 235.643 119.05 235.429 119.241C235.395 119.27 235.361 119.3 235.327 119.331C235.259 119.391 235.191 119.452 235.124 119.512C234.987 119.633 234.851 119.755 234.714 119.876C234.645 119.937 234.577 119.998 234.509 120.059C234.335 120.213 234.162 120.367 233.989 120.52C233.673 120.801 233.358 121.082 233.045 121.366C232.746 121.637 232.444 121.904 232.141 122.171C231.802 122.47 231.467 122.772 231.133 123.076C231.295 123.502 231.503 123.895 231.732 124.288C231.965 124.691 232.187 125.099 232.408 125.509C232.445 125.577 232.482 125.645 232.52 125.715C232.592 125.85 232.665 125.985 232.738 126.12C232.955 126.523 233.175 126.924 233.395 127.326C233.469 127.46 233.542 127.594 233.615 127.729C233.922 128.292 234.232 128.853 234.543 129.413C234.959 130.165 235.369 130.919 235.777 131.675C236.124 132.317 236.475 132.955 236.829 133.593C237.183 134.232 237.536 134.872 237.883 135.514C237.935 135.61 237.935 135.61 237.988 135.707C238.084 135.885 238.18 136.064 238.276 136.242C238.309 136.304 238.342 136.365 238.376 136.429C238.408 136.488 238.439 136.546 238.471 136.607C238.5 136.659 238.528 136.712 238.557 136.766C238.617 136.889 238.617 136.889 238.61 136.956C238.301 136.939 237.993 136.919 237.685 136.895C237.58 136.887 237.475 136.88 237.37 136.875C236.509 136.829 236.509 136.829 236.245 136.603C236.136 136.432 236.06 136.263 235.983 136.075C235.91 135.937 235.835 135.799 235.76 135.662C235.683 135.515 235.607 135.369 235.531 135.222C235.274 134.726 235.009 134.238 234.726 133.757C234.484 133.337 234.265 132.905 234.042 132.476C233.821 132.055 233.592 131.642 233.351 131.232C233.167 130.915 232.994 130.592 232.82 130.269C232.745 130.13 232.67 129.99 232.595 129.851C232.559 129.784 232.522 129.716 232.485 129.647C232.342 129.382 232.197 129.117 232.052 128.852C232.027 128.806 232.002 128.761 231.976 128.713C231.927 128.622 231.877 128.531 231.827 128.44C231.697 128.203 231.567 127.965 231.437 127.728C231.385 127.632 231.332 127.536 231.28 127.44C230.965 126.864 230.965 126.864 230.887 126.72C230.835 126.624 230.782 126.529 230.73 126.434C230.593 126.183 230.457 125.933 230.32 125.682C230.292 125.63 230.263 125.578 230.234 125.524C230.18 125.424 230.125 125.325 230.071 125.225C229.97 125.04 229.87 124.858 229.758 124.68C229.69 124.559 229.69 124.559 229.704 124.424C229.111 124.805 228.598 125.285 228.073 125.752C228 125.817 227.927 125.881 227.854 125.946C227.72 126.065 227.586 126.184 227.452 126.303C226.87 126.822 226.283 127.336 225.695 127.849C225.341 128.158 224.989 128.47 224.637 128.784C224.487 128.917 224.487 128.917 224.413 128.978C224.384 129.177 224.359 129.376 224.338 129.576C224.327 129.671 224.327 129.671 224.316 129.767C224.292 129.976 224.269 130.185 224.246 130.394C224.23 130.538 224.214 130.683 224.197 130.827C224.155 131.208 224.112 131.59 224.07 131.971C224.027 132.359 223.983 132.748 223.939 133.136C223.854 133.899 223.769 134.662 223.684 135.425C223.04 135.359 222.397 135.293 221.734 135.225C222.774 125.086 223.813 114.946 224.885 104.499Z" fill="var(--fill-0, #017755)"/>
<path id="Vector_5" d="M195.043 110.611C195.11 110.635 195.11 110.635 195.179 110.659C196.761 111.241 198.081 112.314 198.83 113.84C199.683 115.696 199.645 117.746 199.43 119.734C199.415 119.878 199.4 120.022 199.386 120.166C199.346 120.551 199.306 120.936 199.265 121.321C199.222 121.725 199.18 122.13 199.139 122.534C199.06 123.298 198.98 124.061 198.899 124.825C198.808 125.695 198.718 126.565 198.627 127.435C198.442 129.223 198.255 131.011 198.067 132.799C197.446 132.735 196.825 132.672 196.184 132.606C196.297 131.295 196.409 129.983 196.524 128.632C196.339 128.905 196.154 129.177 195.964 129.458C194.55 131.197 192.653 132.161 190.449 132.412C188.157 132.647 185.709 132.099 183.882 130.665C183.639 130.451 183.419 130.226 183.204 129.984C183.162 129.939 183.12 129.894 183.076 129.847C182.112 128.761 181.694 127.242 181.779 125.811C181.904 124.19 182.391 122.78 183.627 121.67C184.045 121.317 184.471 121.027 184.963 120.788C185.041 120.749 185.119 120.71 185.199 120.669C188.179 119.235 191.824 119.457 195.039 119.634C195.1 119.638 195.161 119.641 195.224 119.645C195.983 119.687 196.739 119.746 197.494 119.831C197.777 116.377 197.777 116.377 196.327 113.325C195.162 112.084 193.356 111.793 191.738 111.699C190.094 111.663 188.527 112.288 187.308 113.38C186.667 113.997 186.185 114.793 185.769 115.571C185.379 115.452 185.001 115.308 184.623 115.152C184.553 115.124 184.553 115.124 184.481 115.095C184.364 115.046 184.25 114.988 184.137 114.928C184.076 114.655 184.174 114.513 184.301 114.278C184.324 114.236 184.347 114.193 184.37 114.149C184.763 113.433 185.242 112.81 185.838 112.249C185.889 112.199 185.94 112.148 185.993 112.096C187.404 110.746 189.496 110.054 191.428 110.052C192.638 110.086 193.898 110.205 195.043 110.611ZM185.119 122.745C184.212 123.611 183.782 124.779 183.733 126.017C183.723 127.292 184.188 128.389 185.076 129.299C186.113 130.236 187.387 130.714 188.764 130.847C188.873 130.858 188.873 130.858 188.985 130.869C190.788 131.026 192.658 130.647 194.121 129.541C194.225 129.462 194.225 129.462 194.332 129.382C195.895 128.173 196.742 126.397 197.019 124.47C197.085 123.927 197.137 123.381 197.191 122.836C197.205 122.688 197.22 122.539 197.235 122.391C197.271 122.031 197.307 121.671 197.343 121.31C190.923 120.501 190.923 120.501 185.119 122.745Z" fill="var(--fill-0, #017755)"/>
<path id="Vector_6" d="M218.051 114.163C218.154 114.273 218.256 114.384 218.356 114.496C218.416 114.562 218.416 114.562 218.478 114.629C219.576 115.9 220.057 117.857 219.956 119.501C219.941 119.669 219.924 119.837 219.906 120.004C219.896 120.1 219.896 120.1 219.886 120.198C219.865 120.411 219.842 120.624 219.82 120.837C219.804 120.99 219.789 121.143 219.773 121.296C219.731 121.711 219.688 122.126 219.645 122.541C219.6 122.975 219.555 123.408 219.511 123.842C219.436 124.57 219.361 125.298 219.286 126.026C219.208 126.776 219.131 127.525 219.054 128.275C219.049 128.321 219.044 128.367 219.039 128.415C219.015 128.647 218.991 128.879 218.967 129.111C218.77 131.034 218.571 132.958 218.372 134.881C217.729 134.815 217.086 134.749 216.423 134.681C216.441 134.494 216.46 134.307 216.479 134.114C216.652 132.396 216.823 130.678 216.994 128.959C217.016 128.734 217.038 128.508 217.061 128.282C217.068 128.215 217.068 128.215 217.074 128.146C217.146 127.421 217.219 126.695 217.292 125.97C217.367 125.225 217.441 124.479 217.515 123.733C217.556 123.315 217.598 122.897 217.64 122.479C217.68 122.084 217.719 121.69 217.757 121.295C217.772 121.151 217.786 121.008 217.801 120.864C217.984 119.088 217.945 117.115 216.785 115.645C215.701 114.479 214.202 113.987 212.641 113.91C210.62 113.889 208.826 114.571 207.337 115.948C205.069 118.232 204.595 121.3 204.273 124.355C204.239 124.671 204.205 124.988 204.171 125.305C204.107 125.902 204.043 126.499 203.979 127.097C203.907 127.778 203.834 128.459 203.76 129.14C203.61 130.539 203.46 131.937 203.312 133.336C202.668 133.27 202.025 133.204 201.362 133.136C202.083 126.103 202.804 119.069 203.547 111.823C204.191 111.889 204.834 111.955 205.497 112.023C205.349 113.689 205.2 115.355 205.047 117.072C205.263 116.713 205.48 116.354 205.702 115.984C207.216 114.043 209.051 112.701 211.516 112.3C211.561 112.293 211.606 112.285 211.652 112.277C213.853 111.946 216.446 112.581 218.051 114.163Z" fill="var(--fill-0, #017755)"/>
</g>
</g>
</svg>
