<svg preserveAspectRatio="none" width="100%" height="100%" overflow="visible" style="display: block;" viewBox="0 0 68.7106 40.3707" fill="none" xmlns="http://www.w3.org/2000/svg">
<path id="Vector 63" d="M66.0093 1.08821L67.6114 20.3754C67.6114 20.3754 61.2029 19.3778 56.3965 19.3778C49.8129 19.3778 45.9316 19.0386 40.3751 22.7032C34.9847 26.2582 35.2752 30.4272 30.1214 34.342C25.2357 38.0531 21.4208 38.8813 15.3817 39.3301C9.43104 39.7723 0.321632 36.6698 0.321632 36.6698C0.321632 36.6698 8.67255 37.9577 13.7796 36.6698C18.8372 35.3943 21.7506 33.9462 25.6354 30.3515C31.0252 25.3644 29.4238 18.9317 34.287 13.3921C43.1938 3.24633 66.0093 1.08821 66.0093 1.08821Z" fill="var(--fill-0, #0864FF)" stroke="var(--stroke-0, #0864FF)" stroke-width="1.99523"/>
</svg>
