<svg preserveAspectRatio="none" width="100%" height="100%" overflow="visible" style="display: block;" viewBox="0 0 119.079 39.2395" fill="none" xmlns="http://www.w3.org/2000/svg">
<path id="Vector 63" d="M115.134 1.01571L117.938 19.783C117.938 19.783 106.723 18.8123 98.3115 18.8123C86.7902 18.8123 79.9979 18.4823 70.2741 22.0481C60.8409 25.5073 61.3493 29.5639 52.3302 33.3732C43.7803 36.9843 37.1041 37.7901 26.5358 38.2268C16.1221 38.6571 0.180622 35.6382 0.180622 35.6382C0.180622 35.6382 14.7947 36.8914 23.732 35.6382C32.5828 34.3972 37.6812 32.988 44.4797 29.4903C53.9119 24.6375 51.1093 18.3783 59.6199 12.988C75.2068 3.11567 115.134 1.01571 115.134 1.01571Z" fill="var(--fill-0, #017755)" stroke="var(--stroke-0, #017755)" stroke-width="1.94145"/>
</svg>
