<svg preserveAspectRatio="none" width="100%" height="100%" overflow="visible" style="display: block;" viewBox="0 0 269.917 212.459" fill="none" xmlns="http://www.w3.org/2000/svg">
<g id="mastra boat">
<path id="Vector 124" d="M242.492 166.183C240.57 161.555 214.693 167.06 214.693 167.06L37.0331 164.057C37.0331 164.057 25.9176 164.847 24.7476 169.398C23.5776 173.95 25.7296 180.487 29.5599 183.163C33.3902 185.84 68.4399 191.204 77.8177 192.388C87.1954 193.572 199.994 191.52 208.47 185.698C216.945 179.876 244.414 170.812 242.492 166.183Z" fill="var(--fill-0, #65A7E6)"/>
<path id="Vector 61" d="M88.6355 103.771C88.6688 71.0791 76.8216 20.5742 76.8216 20.5742C76.8216 20.5742 155.939 -0.224651 193.529 29.8494C231.118 59.9235 268.35 141.996 268.35 141.996C268.35 141.996 242.51 133.364 225.032 130.472C170.764 121.492 85.0555 149.304 85.0555 149.304C85.0555 149.304 88.6174 121.586 88.6355 103.771Z" fill="var(--fill-0, #E2F3FE)" stroke="var(--stroke-0, #E2F3FE)" stroke-width="1.68641"/>
<path id="Vector 62" d="M66.0814 81.5653C61.633 107.926 77.8953 149.022 77.8953 149.022L11.6659 136.374C11.6659 136.374 17.2472 123.19 21.6898 115.012C37.3749 86.1416 77.8953 47.837 77.8953 47.837C77.8953 47.837 68.3667 68.0229 66.0814 81.5653Z" fill="var(--fill-0, #E2F3FE)" stroke="var(--stroke-0, #E2F3FE)" stroke-width="1.68641"/>
<path id="Vector 63" d="M73.5998 0.899002L75.3898 17.201C75.3898 17.201 68.2298 16.3578 62.8599 16.3578C55.5044 16.3578 51.168 16.0711 44.96 19.1685C38.9376 22.1733 39.2622 25.697 33.5041 29.0059C28.0456 32.1426 23.7833 32.8426 17.0362 33.2219C10.3879 33.5957 0.210391 30.9734 0.210391 30.9734C0.210391 30.9734 9.54043 32.0619 15.2463 30.9734C20.8968 29.8954 24.1518 28.6713 28.4921 25.6331C34.5139 21.4178 32.7247 15.9808 38.1581 11.2986C48.1092 2.7231 73.5998 0.899002 73.5998 0.899002Z" fill="var(--fill-0, #F3DB00)" stroke="var(--stroke-0, #F3DB00)" stroke-width="1.68641"/>
<path id="Vector 64" d="M73.2419 175.443C70.0199 175.161 18.1104 165.887 17.0364 164.481C15.9624 163.075 15.2464 150.427 15.6044 149.584C15.9624 148.741 29.5663 152.957 29.5663 152.957V149.584C29.5663 149.022 80.4019 150.709 82.5498 150.99C84.6978 151.271 92.9318 154.643 96.5117 154.925C100.092 155.206 257.252 143.963 259.4 144.244C261.548 144.525 238.279 147.898 236.847 148.179C235.415 148.459 211.787 171.227 209.281 171.789C206.775 172.35 76.4639 175.724 73.2419 175.443Z" fill="var(--fill-0, #F3DB00)" stroke="var(--stroke-0, #F3DB00)" stroke-width="1.68641"/>
</g>
</svg>
