<?xml version="1.0" encoding="UTF-8"?>
<svg id="Layer_1" data-name="Layer 1" xmlns="http://www.w3.org/2000/svg" viewBox="0 0 400 400">
  <defs>
    <mask id="hole">
      <rect width="100%" height="100%" fill="white"/>
      <circle cx="200" cy="192.76" r="75.24" fill="black"/>
    </mask>
  </defs>
  <path
    d="M313.51,306.18c12.16-23.33,24.32-46.67,36.49-70-9.04-10.79-18.08-21.57-27.12-32.36.34-3.79.52-7.61.51-11.49-.01-3.89-.23-7.74-.6-11.54,8.96-10.84,17.93-21.69,26.89-32.53-12.31-23.24-24.62-46.48-36.93-69.72-14.93,3.75-29.86,7.49-44.79,11.24-6.24-4.13-12.88-7.71-19.84-10.66-4-13.86-8-27.73-12-41.59-24.43.09-48.85.19-73.28.28-3.91,13.88-7.81,27.76-11.72,41.64-6.95,3-13.56,6.62-19.77,10.79-14.95-3.63-29.91-7.27-44.86-10.9-12.16,23.33-24.32,46.67-36.49,70,9.04,10.79,18.08,21.57,27.12,32.36-.34,3.79-.52,7.61-.51,11.49.01,3.9.23,7.74.6,11.54-8.96,10.84-17.93,21.69-26.89,32.53,12.31,23.24,24.62,46.48,36.93,69.72,14.93-3.75,29.86-7.49,44.79-11.24,6.24,4.13,12.88,7.71,19.84,10.66,4,13.86,8,27.73,12,41.59,24.43-.09,48.86-.19,73.28-.28,3.91-13.88,7.81-27.76,11.72-41.64,6.95-3,13.56-6.62,19.77-10.79,14.95,3.63,29.91,7.27,44.86,10.9Z"
    fill="#000" 
    mask="url(#hole)"
  />
</svg>
