<svg preserveAspectRatio="none" width="100%" height="100%" overflow="visible" style="display: block;" viewBox="0 0 101.537 41.8129" fill="none" xmlns="http://www.w3.org/2000/svg">
<path id="Vector 63" d="M97.9725 1.09628L100.356 21.0876C100.356 21.0876 90.8213 20.0535 83.67 20.0535C73.8746 20.0535 68.0998 19.702 59.8325 23.5003C51.8123 27.1851 52.2446 31.5064 44.5765 35.564C37.3073 39.4106 31.6312 40.269 22.646 40.7342C13.7922 41.1926 0.238716 37.9768 0.238716 37.9768C0.238716 37.9768 12.6637 39.3117 20.2622 37.9768C27.7872 36.6548 32.1219 35.1538 37.902 31.4279C45.9213 26.2587 43.5385 19.5912 50.7742 13.8494C64.0264 3.3332 97.9725 1.09628 97.9725 1.09628Z" fill="var(--fill-0, #512D1E)" stroke="var(--stroke-0, #512D1E)" stroke-width="2.06807"/>
</svg>
