<svg preserveAspectRatio="none" width="100%" height="100%" overflow="visible" style="display: block;" viewBox="0 0 67.2217 38.0866" fill="none" xmlns="http://www.w3.org/2000/svg">
<path id="Vector 63" d="M64.6127 1.02323L66.1815 19.2209C66.1815 19.2209 59.9064 18.2796 55.2001 18.2796C48.7537 18.2796 44.9533 17.9596 39.5125 21.4171C34.2344 24.7713 34.5189 28.7048 29.4725 32.3984C24.6886 35.8999 20.9531 36.6813 15.0399 37.1047C9.21314 37.522 0.293504 34.5947 0.293504 34.5947C0.293504 34.5947 8.47044 35.8098 13.4711 34.5947C18.4233 33.3913 21.276 32.025 25.0799 28.6334C30.3575 23.928 28.7894 17.8587 33.5512 12.6321C42.2725 3.05944 64.6127 1.02323 64.6127 1.02323Z" fill="var(--fill-0, #2549A3)" stroke="var(--stroke-0, #2549A3)" stroke-width="1.88251"/>
</svg>
